<mxfile host="app.diagrams.net" modified="2024-02-23T22:29:19.015Z" agent="Mozilla/5.0 (Windows NT 10.0; Win64; x64) AppleWebKit/537.36 (KHTML, like Gecko) Chrome/122.0.0.0 Safari/537.36" etag="KsPudKpEsvjGsAU3n3xy" version="23.0.2" type="device">
  <diagram name="Page-1" id="O-grIq_JALh37_YLj8Ua">
    <mxGraphModel dx="6332" dy="4213" grid="1" gridSize="10" guides="1" tooltips="1" connect="1" arrows="1" fold="1" page="1" pageScale="1" pageWidth="4681" pageHeight="3300" math="0" shadow="0">
      <root>
        <mxCell id="0" />
        <mxCell id="1" parent="0" />
        <mxCell id="x4CWHcI_3ok25Xr3Ort--915" value="University" style="rounded=0;whiteSpace=wrap;html=1;fillColor=#D4E1F5;" vertex="1" parent="1">
          <mxGeometry x="330" y="580" width="120" height="30" as="geometry" />
        </mxCell>
        <mxCell id="x4CWHcI_3ok25Xr3Ort--916" value="Campus" style="rounded=0;whiteSpace=wrap;html=1;fillColor=#D4E1F5;" vertex="1" parent="1">
          <mxGeometry x="330" y="350" width="120" height="30" as="geometry" />
        </mxCell>
        <mxCell id="x4CWHcI_3ok25Xr3Ort--917" value="has" style="rhombus;whiteSpace=wrap;html=1;fillColor=#FFB366;" vertex="1" parent="1">
          <mxGeometry x="350" y="420" width="80" height="50" as="geometry" />
        </mxCell>
        <mxCell id="x4CWHcI_3ok25Xr3Ort--918" value="&lt;u&gt;Uni_ID&lt;/u&gt;" style="ellipse;whiteSpace=wrap;html=1;" vertex="1" parent="1">
          <mxGeometry x="150" y="550" width="120" height="30" as="geometry" />
        </mxCell>
        <mxCell id="x4CWHcI_3ok25Xr3Ort--919" value="Name" style="ellipse;whiteSpace=wrap;html=1;" vertex="1" parent="1">
          <mxGeometry x="185" y="510" width="120" height="30" as="geometry" />
        </mxCell>
        <mxCell id="x4CWHcI_3ok25Xr3Ort--920" value="Address" style="ellipse;whiteSpace=wrap;html=1;" vertex="1" parent="1">
          <mxGeometry x="260" y="470" width="120" height="30" as="geometry" />
        </mxCell>
        <mxCell id="x4CWHcI_3ok25Xr3Ort--921" value="" style="endArrow=none;html=1;rounded=0;exitX=0.5;exitY=0;exitDx=0;exitDy=0;entryX=0.5;entryY=1;entryDx=0;entryDy=0;" edge="1" parent="1" source="x4CWHcI_3ok25Xr3Ort--915" target="x4CWHcI_3ok25Xr3Ort--917">
          <mxGeometry width="50" height="50" relative="1" as="geometry">
            <mxPoint x="490" y="440" as="sourcePoint" />
            <mxPoint x="540" y="390" as="targetPoint" />
          </mxGeometry>
        </mxCell>
        <mxCell id="x4CWHcI_3ok25Xr3Ort--922" value="" style="endArrow=none;html=1;rounded=0;exitX=0.5;exitY=0;exitDx=0;exitDy=0;entryX=0.5;entryY=1;entryDx=0;entryDy=0;" edge="1" parent="1" source="x4CWHcI_3ok25Xr3Ort--917" target="x4CWHcI_3ok25Xr3Ort--916">
          <mxGeometry width="50" height="50" relative="1" as="geometry">
            <mxPoint x="350" y="430" as="sourcePoint" />
            <mxPoint x="400" y="380" as="targetPoint" />
          </mxGeometry>
        </mxCell>
        <mxCell id="x4CWHcI_3ok25Xr3Ort--923" value="Name" style="ellipse;whiteSpace=wrap;html=1;" vertex="1" parent="1">
          <mxGeometry x="290" y="281.25" width="90" height="30" as="geometry" />
        </mxCell>
        <mxCell id="x4CWHcI_3ok25Xr3Ort--924" value="&lt;u&gt;Campus_Id&lt;/u&gt;" style="ellipse;whiteSpace=wrap;html=1;" vertex="1" parent="1">
          <mxGeometry x="200" y="311.25" width="110" height="35" as="geometry" />
        </mxCell>
        <mxCell id="x4CWHcI_3ok25Xr3Ort--925" value="" style="group" vertex="1" connectable="0" parent="1">
          <mxGeometry x="-570" y="70" width="370" height="110" as="geometry" />
        </mxCell>
        <mxCell id="x4CWHcI_3ok25Xr3Ort--926" value="Grades" style="rounded=0;whiteSpace=wrap;html=1;container=0;fillColor=#D4E1F5;" vertex="1" parent="x4CWHcI_3ok25Xr3Ort--925">
          <mxGeometry x="110" y="80" width="120" height="30" as="geometry" />
        </mxCell>
        <mxCell id="x4CWHcI_3ok25Xr3Ort--927" value="Status" style="ellipse;whiteSpace=wrap;html=1;container=0;" vertex="1" parent="x4CWHcI_3ok25Xr3Ort--925">
          <mxGeometry x="240" y="40" width="80" height="30" as="geometry" />
        </mxCell>
        <mxCell id="x4CWHcI_3ok25Xr3Ort--928" value="AssesmentType" style="ellipse;whiteSpace=wrap;html=1;container=0;" vertex="1" parent="x4CWHcI_3ok25Xr3Ort--925">
          <mxGeometry x="250" y="80" width="110" height="30" as="geometry" />
        </mxCell>
        <mxCell id="x4CWHcI_3ok25Xr3Ort--929" value="Percentage" style="ellipse;whiteSpace=wrap;html=1;container=0;" vertex="1" parent="x4CWHcI_3ok25Xr3Ort--925">
          <mxGeometry x="190" width="80" height="30" as="geometry" />
        </mxCell>
        <mxCell id="x4CWHcI_3ok25Xr3Ort--930" value="Grade" style="ellipse;whiteSpace=wrap;html=1;container=0;" vertex="1" parent="x4CWHcI_3ok25Xr3Ort--925">
          <mxGeometry x="80" width="80" height="30" as="geometry" />
        </mxCell>
        <mxCell id="x4CWHcI_3ok25Xr3Ort--931" value="&lt;u&gt;Grades_ID&lt;/u&gt;" style="ellipse;whiteSpace=wrap;html=1;container=0;" vertex="1" parent="x4CWHcI_3ok25Xr3Ort--925">
          <mxGeometry x="10" y="40" width="80" height="30" as="geometry" />
        </mxCell>
        <mxCell id="x4CWHcI_3ok25Xr3Ort--932" value="" style="endArrow=none;html=1;rounded=0;exitX=0.316;exitY=0.968;exitDx=0;exitDy=0;exitPerimeter=0;entryX=0.593;entryY=0.093;entryDx=0;entryDy=0;entryPerimeter=0;" edge="1" parent="x4CWHcI_3ok25Xr3Ort--925" source="x4CWHcI_3ok25Xr3Ort--929" target="x4CWHcI_3ok25Xr3Ort--926">
          <mxGeometry width="50" height="50" relative="1" as="geometry">
            <mxPoint x="270" y="260" as="sourcePoint" />
            <mxPoint x="320" y="210" as="targetPoint" />
          </mxGeometry>
        </mxCell>
        <mxCell id="x4CWHcI_3ok25Xr3Ort--933" value="" style="endArrow=none;html=1;rounded=0;exitX=0;exitY=0.5;exitDx=0;exitDy=0;entryX=0.75;entryY=0;entryDx=0;entryDy=0;" edge="1" parent="x4CWHcI_3ok25Xr3Ort--925" source="x4CWHcI_3ok25Xr3Ort--927" target="x4CWHcI_3ok25Xr3Ort--926">
          <mxGeometry width="50" height="50" relative="1" as="geometry">
            <mxPoint x="270" y="260" as="sourcePoint" />
            <mxPoint x="320" y="210" as="targetPoint" />
          </mxGeometry>
        </mxCell>
        <mxCell id="x4CWHcI_3ok25Xr3Ort--934" value="" style="endArrow=none;html=1;rounded=0;exitX=1;exitY=0.5;exitDx=0;exitDy=0;entryX=0;entryY=0.5;entryDx=0;entryDy=0;" edge="1" parent="x4CWHcI_3ok25Xr3Ort--925" source="x4CWHcI_3ok25Xr3Ort--926" target="x4CWHcI_3ok25Xr3Ort--928">
          <mxGeometry width="50" height="50" relative="1" as="geometry">
            <mxPoint x="270" y="260" as="sourcePoint" />
            <mxPoint x="320" y="210" as="targetPoint" />
          </mxGeometry>
        </mxCell>
        <mxCell id="x4CWHcI_3ok25Xr3Ort--935" value="&lt;b&gt;N&lt;/b&gt;" style="text;html=1;strokeColor=none;fillColor=none;align=center;verticalAlign=middle;whiteSpace=wrap;rounded=0;" vertex="1" parent="x4CWHcI_3ok25Xr3Ort--925">
          <mxGeometry x="130" y="42.5" width="60" height="25" as="geometry" />
        </mxCell>
        <mxCell id="x4CWHcI_3ok25Xr3Ort--936" value="" style="group" vertex="1" connectable="0" parent="1">
          <mxGeometry x="-350" y="-210" width="440" height="180" as="geometry" />
        </mxCell>
        <mxCell id="x4CWHcI_3ok25Xr3Ort--937" value="Students" style="rounded=0;whiteSpace=wrap;html=1;fillColor=#D4E1F5;" vertex="1" parent="x4CWHcI_3ok25Xr3Ort--936">
          <mxGeometry x="130" y="80" width="120" height="30" as="geometry" />
        </mxCell>
        <mxCell id="x4CWHcI_3ok25Xr3Ort--938" value="&lt;u&gt;Student_ID&lt;/u&gt;" style="ellipse;whiteSpace=wrap;html=1;" vertex="1" parent="x4CWHcI_3ok25Xr3Ort--936">
          <mxGeometry x="10" y="75" width="80" height="30" as="geometry" />
        </mxCell>
        <mxCell id="x4CWHcI_3ok25Xr3Ort--939" value="Program_name" style="ellipse;whiteSpace=wrap;html=1;" vertex="1" parent="x4CWHcI_3ok25Xr3Ort--936">
          <mxGeometry x="340" y="105" width="110" height="30" as="geometry" />
        </mxCell>
        <mxCell id="x4CWHcI_3ok25Xr3Ort--940" value="GuardianInfo" style="ellipse;whiteSpace=wrap;html=1;" vertex="1" parent="x4CWHcI_3ok25Xr3Ort--936">
          <mxGeometry x="370" y="70" width="80" height="30" as="geometry" />
        </mxCell>
        <mxCell id="x4CWHcI_3ok25Xr3Ort--941" value="Gender" style="ellipse;whiteSpace=wrap;html=1;" vertex="1" parent="x4CWHcI_3ok25Xr3Ort--936">
          <mxGeometry x="210" width="80" height="30" as="geometry" />
        </mxCell>
        <mxCell id="x4CWHcI_3ok25Xr3Ort--942" value="DOB" style="ellipse;whiteSpace=wrap;html=1;" vertex="1" parent="x4CWHcI_3ok25Xr3Ort--936">
          <mxGeometry x="95" width="80" height="30" as="geometry" />
        </mxCell>
        <mxCell id="x4CWHcI_3ok25Xr3Ort--943" value="name" style="ellipse;whiteSpace=wrap;html=1;" vertex="1" parent="x4CWHcI_3ok25Xr3Ort--936">
          <mxGeometry x="40" y="30" width="80" height="30" as="geometry" />
        </mxCell>
        <mxCell id="x4CWHcI_3ok25Xr3Ort--944" value="Academic_year" style="ellipse;whiteSpace=wrap;html=1;" vertex="1" parent="x4CWHcI_3ok25Xr3Ort--936">
          <mxGeometry x="310" y="140" width="100" height="30" as="geometry" />
        </mxCell>
        <mxCell id="x4CWHcI_3ok25Xr3Ort--945" value="Enroll_Status" style="ellipse;whiteSpace=wrap;html=1;" vertex="1" parent="x4CWHcI_3ok25Xr3Ort--936">
          <mxGeometry y="120" width="80" height="30" as="geometry" />
        </mxCell>
        <mxCell id="x4CWHcI_3ok25Xr3Ort--946" value="" style="endArrow=none;html=1;rounded=0;exitX=1;exitY=0.5;exitDx=0;exitDy=0;entryX=0;entryY=0.75;entryDx=0;entryDy=0;" edge="1" parent="x4CWHcI_3ok25Xr3Ort--936" source="x4CWHcI_3ok25Xr3Ort--945" target="x4CWHcI_3ok25Xr3Ort--937">
          <mxGeometry width="50" height="50" relative="1" as="geometry">
            <mxPoint x="320" y="270" as="sourcePoint" />
            <mxPoint x="370" y="220" as="targetPoint" />
          </mxGeometry>
        </mxCell>
        <mxCell id="x4CWHcI_3ok25Xr3Ort--947" value="" style="endArrow=none;html=1;rounded=0;exitX=1;exitY=0.5;exitDx=0;exitDy=0;entryX=0;entryY=0.25;entryDx=0;entryDy=0;" edge="1" parent="x4CWHcI_3ok25Xr3Ort--936" source="x4CWHcI_3ok25Xr3Ort--938" target="x4CWHcI_3ok25Xr3Ort--937">
          <mxGeometry width="50" height="50" relative="1" as="geometry">
            <mxPoint x="320" y="270" as="sourcePoint" />
            <mxPoint x="370" y="220" as="targetPoint" />
          </mxGeometry>
        </mxCell>
        <mxCell id="x4CWHcI_3ok25Xr3Ort--948" value="" style="endArrow=none;html=1;rounded=0;exitX=0.5;exitY=1;exitDx=0;exitDy=0;entryX=0.75;entryY=0;entryDx=0;entryDy=0;" edge="1" parent="x4CWHcI_3ok25Xr3Ort--936" source="x4CWHcI_3ok25Xr3Ort--941" target="x4CWHcI_3ok25Xr3Ort--937">
          <mxGeometry width="50" height="50" relative="1" as="geometry">
            <mxPoint x="240" y="270" as="sourcePoint" />
            <mxPoint x="290" y="220" as="targetPoint" />
          </mxGeometry>
        </mxCell>
        <mxCell id="x4CWHcI_3ok25Xr3Ort--949" value="" style="endArrow=none;html=1;rounded=0;exitX=1;exitY=0.5;exitDx=0;exitDy=0;entryX=0;entryY=0.5;entryDx=0;entryDy=0;" edge="1" parent="x4CWHcI_3ok25Xr3Ort--936" source="x4CWHcI_3ok25Xr3Ort--937" target="x4CWHcI_3ok25Xr3Ort--939">
          <mxGeometry width="50" height="50" relative="1" as="geometry">
            <mxPoint x="240" y="270" as="sourcePoint" />
            <mxPoint x="290" y="220" as="targetPoint" />
          </mxGeometry>
        </mxCell>
        <mxCell id="x4CWHcI_3ok25Xr3Ort--950" value="" style="endArrow=none;html=1;rounded=0;exitX=1;exitY=1;exitDx=0;exitDy=0;entryX=0;entryY=0;entryDx=0;entryDy=0;" edge="1" parent="x4CWHcI_3ok25Xr3Ort--936" source="x4CWHcI_3ok25Xr3Ort--937" target="x4CWHcI_3ok25Xr3Ort--944">
          <mxGeometry width="50" height="50" relative="1" as="geometry">
            <mxPoint x="240" y="270" as="sourcePoint" />
            <mxPoint x="310" y="160" as="targetPoint" />
          </mxGeometry>
        </mxCell>
        <mxCell id="x4CWHcI_3ok25Xr3Ort--951" value="&lt;b&gt;N&lt;/b&gt;" style="text;html=1;strokeColor=none;fillColor=none;align=center;verticalAlign=middle;whiteSpace=wrap;rounded=0;" vertex="1" parent="x4CWHcI_3ok25Xr3Ort--936">
          <mxGeometry x="180" y="105" width="60" height="25" as="geometry" />
        </mxCell>
        <mxCell id="x4CWHcI_3ok25Xr3Ort--952" value="&lt;b&gt;1&lt;/b&gt;" style="text;html=1;strokeColor=none;fillColor=none;align=center;verticalAlign=middle;whiteSpace=wrap;rounded=0;" vertex="1" parent="x4CWHcI_3ok25Xr3Ort--936">
          <mxGeometry x="180" y="55" width="35" height="20" as="geometry" />
        </mxCell>
        <mxCell id="x4CWHcI_3ok25Xr3Ort--953" value="MiddleName" style="ellipse;whiteSpace=wrap;html=1;" vertex="1" parent="x4CWHcI_3ok25Xr3Ort--936">
          <mxGeometry x="-60" y="-20" width="120" height="30" as="geometry" />
        </mxCell>
        <mxCell id="x4CWHcI_3ok25Xr3Ort--954" value="" style="endArrow=none;html=1;rounded=0;exitX=1;exitY=1;exitDx=0;exitDy=0;entryX=0.273;entryY=0.156;entryDx=0;entryDy=0;entryPerimeter=0;" edge="1" parent="x4CWHcI_3ok25Xr3Ort--936" source="x4CWHcI_3ok25Xr3Ort--953" target="x4CWHcI_3ok25Xr3Ort--943">
          <mxGeometry width="50" height="50" relative="1" as="geometry">
            <mxPoint x="280" y="150" as="sourcePoint" />
            <mxPoint x="330" y="100" as="targetPoint" />
          </mxGeometry>
        </mxCell>
        <mxCell id="x4CWHcI_3ok25Xr3Ort--955" value="" style="ellipse;whiteSpace=wrap;html=1;" vertex="1" parent="x4CWHcI_3ok25Xr3Ort--936">
          <mxGeometry x="290" y="10" width="90" height="50" as="geometry" />
        </mxCell>
        <mxCell id="x4CWHcI_3ok25Xr3Ort--956" value="email" style="ellipse;whiteSpace=wrap;html=1;" vertex="1" parent="x4CWHcI_3ok25Xr3Ort--936">
          <mxGeometry x="295" y="15" width="80" height="40" as="geometry" />
        </mxCell>
        <mxCell id="x4CWHcI_3ok25Xr3Ort--957" value="" style="endArrow=none;html=1;rounded=0;exitX=1;exitY=0.5;exitDx=0;exitDy=0;entryX=0;entryY=0.5;entryDx=0;entryDy=0;" edge="1" parent="x4CWHcI_3ok25Xr3Ort--936" source="x4CWHcI_3ok25Xr3Ort--937" target="x4CWHcI_3ok25Xr3Ort--940">
          <mxGeometry width="50" height="50" relative="1" as="geometry">
            <mxPoint x="390" y="130" as="sourcePoint" />
            <mxPoint x="370" y="90" as="targetPoint" />
          </mxGeometry>
        </mxCell>
        <mxCell id="x4CWHcI_3ok25Xr3Ort--1483" value="&lt;b&gt;1&lt;/b&gt;" style="text;html=1;strokeColor=none;fillColor=none;align=center;verticalAlign=middle;whiteSpace=wrap;rounded=0;" vertex="1" parent="x4CWHcI_3ok25Xr3Ort--936">
          <mxGeometry x="100" y="115" width="35" height="20" as="geometry" />
        </mxCell>
        <mxCell id="x4CWHcI_3ok25Xr3Ort--1485" value="Age" style="ellipse;whiteSpace=wrap;html=1;dashed=1;" vertex="1" parent="x4CWHcI_3ok25Xr3Ort--936">
          <mxGeometry x="230" y="140" width="70" height="40" as="geometry" />
        </mxCell>
        <mxCell id="x4CWHcI_3ok25Xr3Ort--1486" value="" style="endArrow=none;html=1;rounded=0;entryX=0.5;entryY=0;entryDx=0;entryDy=0;" edge="1" parent="x4CWHcI_3ok25Xr3Ort--936" target="x4CWHcI_3ok25Xr3Ort--1485">
          <mxGeometry width="50" height="50" relative="1" as="geometry">
            <mxPoint x="230" y="110" as="sourcePoint" />
            <mxPoint x="360" y="170" as="targetPoint" />
          </mxGeometry>
        </mxCell>
        <mxCell id="x4CWHcI_3ok25Xr3Ort--958" value="" style="group" vertex="1" connectable="0" parent="1">
          <mxGeometry x="430" y="-130" width="980" height="1200" as="geometry" />
        </mxCell>
        <mxCell id="x4CWHcI_3ok25Xr3Ort--959" value="Transport" style="rounded=0;whiteSpace=wrap;html=1;fillColor=#D4E1F5;" vertex="1" parent="x4CWHcI_3ok25Xr3Ort--958">
          <mxGeometry x="610" y="315" width="120" height="30" as="geometry" />
        </mxCell>
        <mxCell id="x4CWHcI_3ok25Xr3Ort--960" value="Address" style="ellipse;whiteSpace=wrap;html=1;" vertex="1" parent="x4CWHcI_3ok25Xr3Ort--958">
          <mxGeometry x="-30" y="410" width="90" height="40" as="geometry" />
        </mxCell>
        <mxCell id="x4CWHcI_3ok25Xr3Ort--961" value="have" style="rhombus;whiteSpace=wrap;html=1;fillColor=#FFB366;" vertex="1" parent="x4CWHcI_3ok25Xr3Ort--958">
          <mxGeometry x="200" y="475" width="90" height="55" as="geometry" />
        </mxCell>
        <mxCell id="x4CWHcI_3ok25Xr3Ort--962" value="holds" style="rhombus;whiteSpace=wrap;html=1;fillColor=#FFB366;" vertex="1" parent="x4CWHcI_3ok25Xr3Ort--958">
          <mxGeometry x="450" y="560" width="80" height="80" as="geometry" />
        </mxCell>
        <mxCell id="x4CWHcI_3ok25Xr3Ort--963" value="" style="group" vertex="1" connectable="0" parent="x4CWHcI_3ok25Xr3Ort--958">
          <mxGeometry x="460" y="380" width="340" height="130" as="geometry" />
        </mxCell>
        <mxCell id="x4CWHcI_3ok25Xr3Ort--964" value="SocialMedia" style="rounded=0;whiteSpace=wrap;html=1;fillColor=#D4E1F5;" vertex="1" parent="x4CWHcI_3ok25Xr3Ort--963">
          <mxGeometry x="110" y="70" width="120" height="30" as="geometry" />
        </mxCell>
        <mxCell id="x4CWHcI_3ok25Xr3Ort--965" value="URL" style="ellipse;whiteSpace=wrap;html=1;" vertex="1" parent="x4CWHcI_3ok25Xr3Ort--963">
          <mxGeometry x="80" width="80" height="30" as="geometry" />
        </mxCell>
        <mxCell id="x4CWHcI_3ok25Xr3Ort--966" value="Founder" style="ellipse;whiteSpace=wrap;html=1;" vertex="1" parent="x4CWHcI_3ok25Xr3Ort--963">
          <mxGeometry x="260" y="70" width="80" height="30" as="geometry" />
        </mxCell>
        <mxCell id="x4CWHcI_3ok25Xr3Ort--967" value="&lt;u&gt;Social_ID&lt;/u&gt;" style="ellipse;whiteSpace=wrap;html=1;" vertex="1" parent="x4CWHcI_3ok25Xr3Ort--963">
          <mxGeometry y="70" width="80" height="30" as="geometry" />
        </mxCell>
        <mxCell id="x4CWHcI_3ok25Xr3Ort--968" value="Mobile_app" style="ellipse;whiteSpace=wrap;html=1;" vertex="1" parent="x4CWHcI_3ok25Xr3Ort--963">
          <mxGeometry x="250" y="30" width="80" height="30" as="geometry" />
        </mxCell>
        <mxCell id="x4CWHcI_3ok25Xr3Ort--969" value="Description" style="ellipse;whiteSpace=wrap;html=1;" vertex="1" parent="x4CWHcI_3ok25Xr3Ort--963">
          <mxGeometry x="180" width="80" height="30" as="geometry" />
        </mxCell>
        <mxCell id="x4CWHcI_3ok25Xr3Ort--970" value="Platform_name" style="ellipse;whiteSpace=wrap;html=1;" vertex="1" parent="x4CWHcI_3ok25Xr3Ort--963">
          <mxGeometry x="10" y="30" width="100" height="30" as="geometry" />
        </mxCell>
        <mxCell id="x4CWHcI_3ok25Xr3Ort--971" value="" style="endArrow=none;html=1;rounded=0;exitX=1;exitY=0.5;exitDx=0;exitDy=0;entryX=0;entryY=0.5;entryDx=0;entryDy=0;" edge="1" parent="x4CWHcI_3ok25Xr3Ort--963" source="x4CWHcI_3ok25Xr3Ort--967" target="x4CWHcI_3ok25Xr3Ort--964">
          <mxGeometry width="50" height="50" relative="1" as="geometry">
            <mxPoint x="130" y="160" as="sourcePoint" />
            <mxPoint x="180" y="110" as="targetPoint" />
          </mxGeometry>
        </mxCell>
        <mxCell id="x4CWHcI_3ok25Xr3Ort--972" value="" style="endArrow=none;html=1;rounded=0;exitX=0.703;exitY=0.982;exitDx=0;exitDy=0;exitPerimeter=0;entryX=0;entryY=0;entryDx=0;entryDy=0;" edge="1" parent="x4CWHcI_3ok25Xr3Ort--963" source="x4CWHcI_3ok25Xr3Ort--970" target="x4CWHcI_3ok25Xr3Ort--964">
          <mxGeometry width="50" height="50" relative="1" as="geometry">
            <mxPoint x="130" y="160" as="sourcePoint" />
            <mxPoint x="180" y="110" as="targetPoint" />
          </mxGeometry>
        </mxCell>
        <mxCell id="x4CWHcI_3ok25Xr3Ort--973" value="" style="endArrow=none;html=1;rounded=0;exitX=0.5;exitY=1;exitDx=0;exitDy=0;entryX=0.189;entryY=0.036;entryDx=0;entryDy=0;entryPerimeter=0;" edge="1" parent="x4CWHcI_3ok25Xr3Ort--963" source="x4CWHcI_3ok25Xr3Ort--965" target="x4CWHcI_3ok25Xr3Ort--964">
          <mxGeometry width="50" height="50" relative="1" as="geometry">
            <mxPoint x="130" y="160" as="sourcePoint" />
            <mxPoint x="180" y="110" as="targetPoint" />
          </mxGeometry>
        </mxCell>
        <mxCell id="x4CWHcI_3ok25Xr3Ort--974" value="" style="endArrow=none;html=1;rounded=0;exitX=0.5;exitY=0;exitDx=0;exitDy=0;entryX=0.346;entryY=0.973;entryDx=0;entryDy=0;entryPerimeter=0;" edge="1" parent="x4CWHcI_3ok25Xr3Ort--963" source="x4CWHcI_3ok25Xr3Ort--964" target="x4CWHcI_3ok25Xr3Ort--969">
          <mxGeometry width="50" height="50" relative="1" as="geometry">
            <mxPoint x="130" y="160" as="sourcePoint" />
            <mxPoint x="180" y="110" as="targetPoint" />
          </mxGeometry>
        </mxCell>
        <mxCell id="x4CWHcI_3ok25Xr3Ort--975" value="" style="endArrow=none;html=1;rounded=0;entryX=0;entryY=0.5;entryDx=0;entryDy=0;" edge="1" parent="x4CWHcI_3ok25Xr3Ort--963" target="x4CWHcI_3ok25Xr3Ort--968">
          <mxGeometry width="50" height="50" relative="1" as="geometry">
            <mxPoint x="195" y="70" as="sourcePoint" />
            <mxPoint x="245" y="20" as="targetPoint" />
          </mxGeometry>
        </mxCell>
        <mxCell id="x4CWHcI_3ok25Xr3Ort--976" value="" style="endArrow=none;html=1;rounded=0;exitX=1;exitY=0.5;exitDx=0;exitDy=0;entryX=0;entryY=0.5;entryDx=0;entryDy=0;" edge="1" parent="x4CWHcI_3ok25Xr3Ort--963" source="x4CWHcI_3ok25Xr3Ort--964" target="x4CWHcI_3ok25Xr3Ort--966">
          <mxGeometry width="50" height="50" relative="1" as="geometry">
            <mxPoint x="130" y="160" as="sourcePoint" />
            <mxPoint x="180" y="110" as="targetPoint" />
          </mxGeometry>
        </mxCell>
        <mxCell id="x4CWHcI_3ok25Xr3Ort--977" value="&lt;b&gt;N&lt;/b&gt;" style="text;html=1;strokeColor=none;fillColor=none;align=center;verticalAlign=middle;whiteSpace=wrap;rounded=0;" vertex="1" parent="x4CWHcI_3ok25Xr3Ort--963">
          <mxGeometry x="150" y="100" width="60" height="30" as="geometry" />
        </mxCell>
        <mxCell id="x4CWHcI_3ok25Xr3Ort--978" value="" style="group" vertex="1" connectable="0" parent="x4CWHcI_3ok25Xr3Ort--958">
          <mxGeometry x="480" y="150" width="360" height="157.5" as="geometry" />
        </mxCell>
        <mxCell id="x4CWHcI_3ok25Xr3Ort--979" value="Arrival_time" style="ellipse;whiteSpace=wrap;html=1;" vertex="1" parent="x4CWHcI_3ok25Xr3Ort--978">
          <mxGeometry y="70" width="80" height="40" as="geometry" />
        </mxCell>
        <mxCell id="x4CWHcI_3ok25Xr3Ort--980" value="Departure_time_" style="ellipse;whiteSpace=wrap;html=1;" vertex="1" parent="x4CWHcI_3ok25Xr3Ort--978">
          <mxGeometry x="50" y="30" width="100" height="40" as="geometry" />
        </mxCell>
        <mxCell id="x4CWHcI_3ok25Xr3Ort--981" value="Route" style="ellipse;whiteSpace=wrap;html=1;" vertex="1" parent="x4CWHcI_3ok25Xr3Ort--978">
          <mxGeometry x="150" width="70" height="40" as="geometry" />
        </mxCell>
        <mxCell id="x4CWHcI_3ok25Xr3Ort--982" value="Type" style="ellipse;whiteSpace=wrap;html=1;" vertex="1" parent="x4CWHcI_3ok25Xr3Ort--978">
          <mxGeometry x="220" y="30" width="70" height="40" as="geometry" />
        </mxCell>
        <mxCell id="x4CWHcI_3ok25Xr3Ort--983" value="&lt;u&gt;Transport_ID&lt;/u&gt;" style="ellipse;whiteSpace=wrap;html=1;" vertex="1" parent="x4CWHcI_3ok25Xr3Ort--978">
          <mxGeometry x="280" y="117.5" width="80" height="40" as="geometry" />
        </mxCell>
        <mxCell id="x4CWHcI_3ok25Xr3Ort--984" value="Fare" style="ellipse;whiteSpace=wrap;html=1;" vertex="1" parent="x4CWHcI_3ok25Xr3Ort--978">
          <mxGeometry y="120" width="80" height="35" as="geometry" />
        </mxCell>
        <mxCell id="x4CWHcI_3ok25Xr3Ort--985" value="Capacity" style="ellipse;whiteSpace=wrap;html=1;" vertex="1" parent="x4CWHcI_3ok25Xr3Ort--978">
          <mxGeometry x="275" y="70" width="80" height="40" as="geometry" />
        </mxCell>
        <mxCell id="x4CWHcI_3ok25Xr3Ort--986" value="Uses" style="rhombus;whiteSpace=wrap;html=1;fillColor=#FFB366;" vertex="1" parent="x4CWHcI_3ok25Xr3Ort--958">
          <mxGeometry x="310" y="290" width="80" height="80" as="geometry" />
        </mxCell>
        <mxCell id="x4CWHcI_3ok25Xr3Ort--987" value="have" style="rhombus;whiteSpace=wrap;html=1;fillColor=#FFB366;" vertex="1" parent="x4CWHcI_3ok25Xr3Ort--958">
          <mxGeometry x="190" y="200" width="80" height="80" as="geometry" />
        </mxCell>
        <mxCell id="x4CWHcI_3ok25Xr3Ort--988" value="" style="endArrow=none;html=1;rounded=0;exitX=1;exitY=0.5;exitDx=0;exitDy=0;entryX=0;entryY=0.5;entryDx=0;entryDy=0;" edge="1" parent="x4CWHcI_3ok25Xr3Ort--958" source="x4CWHcI_3ok25Xr3Ort--986" target="x4CWHcI_3ok25Xr3Ort--959">
          <mxGeometry width="50" height="50" relative="1" as="geometry">
            <mxPoint x="310" y="260" as="sourcePoint" />
            <mxPoint x="360" y="210" as="targetPoint" />
          </mxGeometry>
        </mxCell>
        <mxCell id="x4CWHcI_3ok25Xr3Ort--989" value="History" style="ellipse;whiteSpace=wrap;html=1;" vertex="1" parent="x4CWHcI_3ok25Xr3Ort--958">
          <mxGeometry x="120" y="710" width="120" height="30" as="geometry" />
        </mxCell>
        <mxCell id="x4CWHcI_3ok25Xr3Ort--990" value="Estd_Date" style="ellipse;whiteSpace=wrap;html=1;" vertex="1" parent="x4CWHcI_3ok25Xr3Ort--958">
          <mxGeometry x="90" y="665" width="120" height="30" as="geometry" />
        </mxCell>
        <mxCell id="x4CWHcI_3ok25Xr3Ort--991" value="Rank" style="ellipse;whiteSpace=wrap;html=1;" vertex="1" parent="x4CWHcI_3ok25Xr3Ort--958">
          <mxGeometry x="60" y="630" width="120" height="30" as="geometry" />
        </mxCell>
        <mxCell id="x4CWHcI_3ok25Xr3Ort--992" value="ContactInfo" style="ellipse;whiteSpace=wrap;html=1;" vertex="1" parent="x4CWHcI_3ok25Xr3Ort--958">
          <mxGeometry x="-30" y="600" width="120" height="30" as="geometry" />
        </mxCell>
        <mxCell id="x4CWHcI_3ok25Xr3Ort--993" value="" style="group" vertex="1" connectable="0" parent="x4CWHcI_3ok25Xr3Ort--958">
          <mxGeometry x="70" y="50" width="390" height="100" as="geometry" />
        </mxCell>
        <mxCell id="x4CWHcI_3ok25Xr3Ort--994" value="Description" style="ellipse;whiteSpace=wrap;html=1;container=0;" vertex="1" parent="x4CWHcI_3ok25Xr3Ort--993">
          <mxGeometry x="290" y="70" width="100" height="30" as="geometry" />
        </mxCell>
        <mxCell id="x4CWHcI_3ok25Xr3Ort--995" value="name" style="ellipse;whiteSpace=wrap;html=1;container=0;" vertex="1" parent="x4CWHcI_3ok25Xr3Ort--993">
          <mxGeometry x="10" y="35" width="100" height="30" as="geometry" />
        </mxCell>
        <mxCell id="x4CWHcI_3ok25Xr3Ort--996" value="Address" style="ellipse;whiteSpace=wrap;html=1;container=0;" vertex="1" parent="x4CWHcI_3ok25Xr3Ort--993">
          <mxGeometry x="50" width="100" height="30" as="geometry" />
        </mxCell>
        <mxCell id="x4CWHcI_3ok25Xr3Ort--997" value="contactInfo" style="ellipse;whiteSpace=wrap;html=1;container=0;" vertex="1" parent="x4CWHcI_3ok25Xr3Ort--993">
          <mxGeometry x="170" width="100" height="30" as="geometry" />
        </mxCell>
        <mxCell id="x4CWHcI_3ok25Xr3Ort--998" value="Departments" style="rounded=0;whiteSpace=wrap;html=1;fillColor=#D4E1F5;container=0;" vertex="1" parent="x4CWHcI_3ok25Xr3Ort--993">
          <mxGeometry x="120" y="70" width="120" height="30" as="geometry" />
        </mxCell>
        <mxCell id="x4CWHcI_3ok25Xr3Ort--999" value="" style="endArrow=none;html=1;rounded=0;exitX=1;exitY=1;exitDx=0;exitDy=0;entryX=0;entryY=0;entryDx=0;entryDy=0;" edge="1" parent="x4CWHcI_3ok25Xr3Ort--993" source="x4CWHcI_3ok25Xr3Ort--995" target="x4CWHcI_3ok25Xr3Ort--998">
          <mxGeometry width="50" height="50" relative="1" as="geometry">
            <mxPoint x="60" y="60" as="sourcePoint" />
            <mxPoint x="110" y="10" as="targetPoint" />
          </mxGeometry>
        </mxCell>
        <mxCell id="x4CWHcI_3ok25Xr3Ort--1000" value="" style="endArrow=none;html=1;rounded=0;exitX=0.5;exitY=0;exitDx=0;exitDy=0;entryX=0.367;entryY=1.051;entryDx=0;entryDy=0;entryPerimeter=0;" edge="1" parent="x4CWHcI_3ok25Xr3Ort--993" source="x4CWHcI_3ok25Xr3Ort--998" target="x4CWHcI_3ok25Xr3Ort--997">
          <mxGeometry width="50" height="50" relative="1" as="geometry">
            <mxPoint x="60" y="60" as="sourcePoint" />
            <mxPoint x="110" y="10" as="targetPoint" />
          </mxGeometry>
        </mxCell>
        <mxCell id="x4CWHcI_3ok25Xr3Ort--1001" value="" style="endArrow=none;html=1;rounded=0;exitX=1;exitY=0.5;exitDx=0;exitDy=0;entryX=0;entryY=0.5;entryDx=0;entryDy=0;" edge="1" parent="x4CWHcI_3ok25Xr3Ort--993" source="x4CWHcI_3ok25Xr3Ort--998" target="x4CWHcI_3ok25Xr3Ort--994">
          <mxGeometry width="50" height="50" relative="1" as="geometry">
            <mxPoint x="60" y="60" as="sourcePoint" />
            <mxPoint x="110" y="10" as="targetPoint" />
          </mxGeometry>
        </mxCell>
        <mxCell id="x4CWHcI_3ok25Xr3Ort--1002" value="&lt;b&gt;1&lt;/b&gt;" style="text;html=1;strokeColor=none;fillColor=none;align=center;verticalAlign=middle;whiteSpace=wrap;rounded=0;" vertex="1" parent="x4CWHcI_3ok25Xr3Ort--993">
          <mxGeometry x="155" y="45" width="35" height="20" as="geometry" />
        </mxCell>
        <mxCell id="x4CWHcI_3ok25Xr3Ort--1003" value="&lt;b&gt;1&lt;/b&gt;" style="text;html=1;strokeColor=none;fillColor=none;align=center;verticalAlign=middle;whiteSpace=wrap;rounded=0;" vertex="1" parent="x4CWHcI_3ok25Xr3Ort--993">
          <mxGeometry x="120" y="50" width="35" height="20" as="geometry" />
        </mxCell>
        <mxCell id="x4CWHcI_3ok25Xr3Ort--1004" value="" style="endArrow=none;html=1;rounded=0;exitX=0.5;exitY=1;exitDx=0;exitDy=0;entryX=0.406;entryY=0.833;entryDx=0;entryDy=0;entryPerimeter=0;" edge="1" parent="x4CWHcI_3ok25Xr3Ort--993">
          <mxGeometry width="50" height="50" relative="1" as="geometry">
            <mxPoint x="152.23" y="70" as="sourcePoint" />
            <mxPoint x="152.21" y="-15.019999999999982" as="targetPoint" />
          </mxGeometry>
        </mxCell>
        <mxCell id="x4CWHcI_3ok25Xr3Ort--1005" value="&lt;b&gt;1&lt;/b&gt;" style="text;html=1;strokeColor=none;fillColor=none;align=center;verticalAlign=middle;whiteSpace=wrap;rounded=0;" vertex="1" parent="x4CWHcI_3ok25Xr3Ort--993">
          <mxGeometry y="80" width="35" height="20" as="geometry" />
        </mxCell>
        <mxCell id="x4CWHcI_3ok25Xr3Ort--1006" value="Works For" style="rhombus;whiteSpace=wrap;html=1;fillColor=#FFB366;" vertex="1" parent="x4CWHcI_3ok25Xr3Ort--958">
          <mxGeometry x="190" y="-20" width="80" height="60" as="geometry" />
        </mxCell>
        <mxCell id="x4CWHcI_3ok25Xr3Ort--1007" value="&lt;u&gt;Dept_Id&lt;/u&gt;" style="ellipse;whiteSpace=wrap;html=1;container=0;" vertex="1" parent="x4CWHcI_3ok25Xr3Ort--958">
          <mxGeometry x="80" y="150" width="100" height="30" as="geometry" />
        </mxCell>
        <mxCell id="x4CWHcI_3ok25Xr3Ort--1008" value="" style="group" vertex="1" connectable="0" parent="x4CWHcI_3ok25Xr3Ort--958">
          <mxGeometry x="540" y="660" width="350" height="120" as="geometry" />
        </mxCell>
        <mxCell id="x4CWHcI_3ok25Xr3Ort--1009" value="ContactInfo" style="ellipse;whiteSpace=wrap;html=1;" vertex="1" parent="x4CWHcI_3ok25Xr3Ort--1008">
          <mxGeometry x="240" y="90" width="80" height="30" as="geometry" />
        </mxCell>
        <mxCell id="x4CWHcI_3ok25Xr3Ort--1010" value="Address" style="ellipse;whiteSpace=wrap;html=1;" vertex="1" parent="x4CWHcI_3ok25Xr3Ort--1008">
          <mxGeometry x="270" y="50" width="80" height="30" as="geometry" />
        </mxCell>
        <mxCell id="x4CWHcI_3ok25Xr3Ort--1011" value="Description" style="ellipse;whiteSpace=wrap;html=1;" vertex="1" parent="x4CWHcI_3ok25Xr3Ort--1008">
          <mxGeometry x="210" y="10" width="80" height="30" as="geometry" />
        </mxCell>
        <mxCell id="x4CWHcI_3ok25Xr3Ort--1012" value="Inventory" style="ellipse;whiteSpace=wrap;html=1;" vertex="1" parent="x4CWHcI_3ok25Xr3Ort--1008">
          <mxGeometry x="120" width="80" height="30" as="geometry" />
        </mxCell>
        <mxCell id="x4CWHcI_3ok25Xr3Ort--1013" value="name" style="ellipse;whiteSpace=wrap;html=1;" vertex="1" parent="x4CWHcI_3ok25Xr3Ort--1008">
          <mxGeometry x="40" y="20" width="80" height="30" as="geometry" />
        </mxCell>
        <mxCell id="x4CWHcI_3ok25Xr3Ort--1014" value="&lt;u&gt;BookStore_ID&lt;/u&gt;" style="ellipse;whiteSpace=wrap;html=1;" vertex="1" parent="x4CWHcI_3ok25Xr3Ort--1008">
          <mxGeometry x="-30" y="60" width="110" height="30" as="geometry" />
        </mxCell>
        <mxCell id="x4CWHcI_3ok25Xr3Ort--1015" value="BookStore" style="rounded=0;whiteSpace=wrap;html=1;fillColor=#D4E1F5;" vertex="1" parent="x4CWHcI_3ok25Xr3Ort--1008">
          <mxGeometry x="100" y="90" width="120" height="30" as="geometry" />
        </mxCell>
        <mxCell id="x4CWHcI_3ok25Xr3Ort--1016" value="" style="endArrow=none;html=1;rounded=0;exitX=1;exitY=0.25;exitDx=0;exitDy=0;entryX=0;entryY=0.5;entryDx=0;entryDy=0;" edge="1" parent="x4CWHcI_3ok25Xr3Ort--1008" source="x4CWHcI_3ok25Xr3Ort--1015" target="x4CWHcI_3ok25Xr3Ort--1009">
          <mxGeometry width="50" height="50" relative="1" as="geometry">
            <mxPoint x="310" y="70" as="sourcePoint" />
            <mxPoint x="360" y="20" as="targetPoint" />
          </mxGeometry>
        </mxCell>
        <mxCell id="x4CWHcI_3ok25Xr3Ort--1017" value="" style="endArrow=none;html=1;rounded=0;exitX=0.5;exitY=0;exitDx=0;exitDy=0;entryX=0.322;entryY=0.913;entryDx=0;entryDy=0;entryPerimeter=0;" edge="1" parent="x4CWHcI_3ok25Xr3Ort--1008" source="x4CWHcI_3ok25Xr3Ort--1015" target="x4CWHcI_3ok25Xr3Ort--1011">
          <mxGeometry width="50" height="50" relative="1" as="geometry">
            <mxPoint x="310" y="70" as="sourcePoint" />
            <mxPoint x="360" y="20" as="targetPoint" />
          </mxGeometry>
        </mxCell>
        <mxCell id="x4CWHcI_3ok25Xr3Ort--1018" value="" style="endArrow=none;html=1;rounded=0;exitX=0.647;exitY=0.95;exitDx=0;exitDy=0;exitPerimeter=0;entryX=0;entryY=0;entryDx=0;entryDy=0;" edge="1" parent="x4CWHcI_3ok25Xr3Ort--1008" source="x4CWHcI_3ok25Xr3Ort--1014" target="x4CWHcI_3ok25Xr3Ort--1015">
          <mxGeometry width="50" height="50" relative="1" as="geometry">
            <mxPoint x="310" y="70" as="sourcePoint" />
            <mxPoint x="360" y="20" as="targetPoint" />
          </mxGeometry>
        </mxCell>
        <mxCell id="x4CWHcI_3ok25Xr3Ort--1019" value="has" style="rhombus;whiteSpace=wrap;html=1;fillColor=#FFB366;" vertex="1" parent="x4CWHcI_3ok25Xr3Ort--958">
          <mxGeometry x="470" y="750" width="80" height="80" as="geometry" />
        </mxCell>
        <mxCell id="x4CWHcI_3ok25Xr3Ort--1020" value="" style="endArrow=none;html=1;rounded=0;entryX=1;entryY=0.5;entryDx=0;entryDy=0;exitX=0.583;exitY=1;exitDx=0;exitDy=0;exitPerimeter=0;" edge="1" parent="x4CWHcI_3ok25Xr3Ort--958" source="x4CWHcI_3ok25Xr3Ort--1015" target="x4CWHcI_3ok25Xr3Ort--1019">
          <mxGeometry width="50" height="50" relative="1" as="geometry">
            <mxPoint x="710" y="790" as="sourcePoint" />
            <mxPoint x="470" y="850" as="targetPoint" />
            <Array as="points">
              <mxPoint x="710" y="790" />
            </Array>
          </mxGeometry>
        </mxCell>
        <mxCell id="x4CWHcI_3ok25Xr3Ort--1021" value="" style="group" vertex="1" connectable="0" parent="x4CWHcI_3ok25Xr3Ort--958">
          <mxGeometry x="10" y="800" width="420" height="150" as="geometry" />
        </mxCell>
        <mxCell id="x4CWHcI_3ok25Xr3Ort--1022" value="Academic_calendar" style="rounded=0;whiteSpace=wrap;html=1;fillColor=#D4E1F5;" vertex="1" parent="x4CWHcI_3ok25Xr3Ort--1021">
          <mxGeometry x="120" y="120" width="120" height="30" as="geometry" />
        </mxCell>
        <mxCell id="x4CWHcI_3ok25Xr3Ort--1023" value="End_Date" style="ellipse;whiteSpace=wrap;html=1;" vertex="1" parent="x4CWHcI_3ok25Xr3Ort--1021">
          <mxGeometry x="100" width="80" height="30" as="geometry" />
        </mxCell>
        <mxCell id="x4CWHcI_3ok25Xr3Ort--1024" value="Start_Date" style="ellipse;whiteSpace=wrap;html=1;" vertex="1" parent="x4CWHcI_3ok25Xr3Ort--1021">
          <mxGeometry x="30" y="20" width="80" height="30" as="geometry" />
        </mxCell>
        <mxCell id="x4CWHcI_3ok25Xr3Ort--1025" value="Academic_year" style="ellipse;whiteSpace=wrap;html=1;" vertex="1" parent="x4CWHcI_3ok25Xr3Ort--1021">
          <mxGeometry x="10" y="60" width="100" height="30" as="geometry" />
        </mxCell>
        <mxCell id="x4CWHcI_3ok25Xr3Ort--1026" value="&lt;u&gt;Calendar_ID&lt;/u&gt;" style="ellipse;whiteSpace=wrap;html=1;" vertex="1" parent="x4CWHcI_3ok25Xr3Ort--1021">
          <mxGeometry y="100" width="80" height="30" as="geometry" />
        </mxCell>
        <mxCell id="x4CWHcI_3ok25Xr3Ort--1027" value="Academic events" style="ellipse;whiteSpace=wrap;html=1;" vertex="1" parent="x4CWHcI_3ok25Xr3Ort--1021">
          <mxGeometry x="300" y="70" width="120" height="30" as="geometry" />
        </mxCell>
        <mxCell id="x4CWHcI_3ok25Xr3Ort--1028" value="Holidays" style="ellipse;whiteSpace=wrap;html=1;" vertex="1" parent="x4CWHcI_3ok25Xr3Ort--1021">
          <mxGeometry x="270" y="30" width="80" height="30" as="geometry" />
        </mxCell>
        <mxCell id="x4CWHcI_3ok25Xr3Ort--1029" value="Exam_Period" style="ellipse;whiteSpace=wrap;html=1;" vertex="1" parent="x4CWHcI_3ok25Xr3Ort--1021">
          <mxGeometry x="200" width="80" height="30" as="geometry" />
        </mxCell>
        <mxCell id="x4CWHcI_3ok25Xr3Ort--1030" value="Course_period" style="ellipse;whiteSpace=wrap;html=1;" vertex="1" parent="x4CWHcI_3ok25Xr3Ort--1021">
          <mxGeometry x="310" y="110" width="100" height="30" as="geometry" />
        </mxCell>
        <mxCell id="x4CWHcI_3ok25Xr3Ort--1031" value="" style="endArrow=none;html=1;rounded=0;exitX=0;exitY=0;exitDx=0;exitDy=0;entryX=0.74;entryY=1.061;entryDx=0;entryDy=0;entryPerimeter=0;" edge="1" parent="x4CWHcI_3ok25Xr3Ort--1021" source="x4CWHcI_3ok25Xr3Ort--1022" target="x4CWHcI_3ok25Xr3Ort--1025">
          <mxGeometry width="50" height="50" relative="1" as="geometry">
            <mxPoint x="40" y="140" as="sourcePoint" />
            <mxPoint x="90" y="90" as="targetPoint" />
          </mxGeometry>
        </mxCell>
        <mxCell id="x4CWHcI_3ok25Xr3Ort--1032" value="" style="endArrow=none;html=1;rounded=0;exitX=0.25;exitY=0;exitDx=0;exitDy=0;entryX=1;entryY=1;entryDx=0;entryDy=0;" edge="1" parent="x4CWHcI_3ok25Xr3Ort--1021" source="x4CWHcI_3ok25Xr3Ort--1022" target="x4CWHcI_3ok25Xr3Ort--1024">
          <mxGeometry width="50" height="50" relative="1" as="geometry">
            <mxPoint x="40" y="140" as="sourcePoint" />
            <mxPoint x="90" y="90" as="targetPoint" />
          </mxGeometry>
        </mxCell>
        <mxCell id="x4CWHcI_3ok25Xr3Ort--1033" value="" style="endArrow=none;html=1;rounded=0;exitX=0.5;exitY=0;exitDx=0;exitDy=0;entryX=1;entryY=1;entryDx=0;entryDy=0;" edge="1" parent="x4CWHcI_3ok25Xr3Ort--1021" source="x4CWHcI_3ok25Xr3Ort--1022" target="x4CWHcI_3ok25Xr3Ort--1023">
          <mxGeometry width="50" height="50" relative="1" as="geometry">
            <mxPoint x="40" y="140" as="sourcePoint" />
            <mxPoint x="90" y="90" as="targetPoint" />
          </mxGeometry>
        </mxCell>
        <mxCell id="x4CWHcI_3ok25Xr3Ort--1034" value="" style="endArrow=none;html=1;rounded=0;exitX=0.75;exitY=0;exitDx=0;exitDy=0;entryX=0.5;entryY=1;entryDx=0;entryDy=0;" edge="1" parent="x4CWHcI_3ok25Xr3Ort--1021" source="x4CWHcI_3ok25Xr3Ort--1022" target="x4CWHcI_3ok25Xr3Ort--1029">
          <mxGeometry width="50" height="50" relative="1" as="geometry">
            <mxPoint x="40" y="140" as="sourcePoint" />
            <mxPoint x="90" y="90" as="targetPoint" />
          </mxGeometry>
        </mxCell>
        <mxCell id="x4CWHcI_3ok25Xr3Ort--1035" value="" style="endArrow=none;html=1;rounded=0;exitX=1;exitY=0;exitDx=0;exitDy=0;entryX=0.283;entryY=0.909;entryDx=0;entryDy=0;entryPerimeter=0;" edge="1" parent="x4CWHcI_3ok25Xr3Ort--1021" source="x4CWHcI_3ok25Xr3Ort--1022" target="x4CWHcI_3ok25Xr3Ort--1028">
          <mxGeometry width="50" height="50" relative="1" as="geometry">
            <mxPoint x="40" y="140" as="sourcePoint" />
            <mxPoint x="90" y="90" as="targetPoint" />
          </mxGeometry>
        </mxCell>
        <mxCell id="x4CWHcI_3ok25Xr3Ort--1036" value="" style="endArrow=none;html=1;rounded=0;exitX=0;exitY=1;exitDx=0;exitDy=0;entryX=1;entryY=0.25;entryDx=0;entryDy=0;" edge="1" parent="x4CWHcI_3ok25Xr3Ort--1021" source="x4CWHcI_3ok25Xr3Ort--1027" target="x4CWHcI_3ok25Xr3Ort--1022">
          <mxGeometry width="50" height="50" relative="1" as="geometry">
            <mxPoint x="40" y="140" as="sourcePoint" />
            <mxPoint x="90" y="90" as="targetPoint" />
          </mxGeometry>
        </mxCell>
        <mxCell id="x4CWHcI_3ok25Xr3Ort--1037" value="" style="endArrow=none;html=1;rounded=0;exitX=0;exitY=0.5;exitDx=0;exitDy=0;entryX=1;entryY=0.5;entryDx=0;entryDy=0;" edge="1" parent="x4CWHcI_3ok25Xr3Ort--1021" source="x4CWHcI_3ok25Xr3Ort--1030" target="x4CWHcI_3ok25Xr3Ort--1022">
          <mxGeometry width="50" height="50" relative="1" as="geometry">
            <mxPoint x="40" y="140" as="sourcePoint" />
            <mxPoint x="90" y="90" as="targetPoint" />
          </mxGeometry>
        </mxCell>
        <mxCell id="x4CWHcI_3ok25Xr3Ort--1038" value="" style="endArrow=none;html=1;rounded=0;entryX=1;entryY=0.5;entryDx=0;entryDy=0;exitX=0.103;exitY=-0.001;exitDx=0;exitDy=0;exitPerimeter=0;" edge="1" parent="x4CWHcI_3ok25Xr3Ort--958" source="x4CWHcI_3ok25Xr3Ort--959" target="x4CWHcI_3ok25Xr3Ort--984">
          <mxGeometry width="50" height="50" relative="1" as="geometry">
            <mxPoint x="610" y="310" as="sourcePoint" />
            <mxPoint x="560" y="240" as="targetPoint" />
          </mxGeometry>
        </mxCell>
        <mxCell id="x4CWHcI_3ok25Xr3Ort--1039" value="" style="endArrow=none;html=1;rounded=0;entryX=0.765;entryY=0.943;entryDx=0;entryDy=0;entryPerimeter=0;exitX=0.351;exitY=0.017;exitDx=0;exitDy=0;exitPerimeter=0;" edge="1" parent="x4CWHcI_3ok25Xr3Ort--958" source="x4CWHcI_3ok25Xr3Ort--959" target="x4CWHcI_3ok25Xr3Ort--980">
          <mxGeometry width="50" height="50" relative="1" as="geometry">
            <mxPoint x="650" y="310" as="sourcePoint" />
            <mxPoint x="560" y="240" as="targetPoint" />
          </mxGeometry>
        </mxCell>
        <mxCell id="x4CWHcI_3ok25Xr3Ort--1040" value="" style="endArrow=none;html=1;rounded=0;exitX=0.5;exitY=0;exitDx=0;exitDy=0;entryX=0.5;entryY=1;entryDx=0;entryDy=0;" edge="1" parent="x4CWHcI_3ok25Xr3Ort--958" source="x4CWHcI_3ok25Xr3Ort--959" target="x4CWHcI_3ok25Xr3Ort--981">
          <mxGeometry width="50" height="50" relative="1" as="geometry">
            <mxPoint x="510" y="290" as="sourcePoint" />
            <mxPoint x="560" y="240" as="targetPoint" />
          </mxGeometry>
        </mxCell>
        <mxCell id="x4CWHcI_3ok25Xr3Ort--1041" value="" style="endArrow=none;html=1;rounded=0;exitX=0.413;exitY=0.981;exitDx=0;exitDy=0;exitPerimeter=0;entryX=0.573;entryY=0.017;entryDx=0;entryDy=0;entryPerimeter=0;" edge="1" parent="x4CWHcI_3ok25Xr3Ort--958" source="x4CWHcI_3ok25Xr3Ort--982" target="x4CWHcI_3ok25Xr3Ort--959">
          <mxGeometry width="50" height="50" relative="1" as="geometry">
            <mxPoint x="510" y="290" as="sourcePoint" />
            <mxPoint x="680" y="310" as="targetPoint" />
          </mxGeometry>
        </mxCell>
        <mxCell id="x4CWHcI_3ok25Xr3Ort--1042" value="" style="endArrow=none;html=1;rounded=0;exitX=0.85;exitY=-0.035;exitDx=0;exitDy=0;exitPerimeter=0;entryX=0.077;entryY=0.787;entryDx=0;entryDy=0;entryPerimeter=0;" edge="1" parent="x4CWHcI_3ok25Xr3Ort--958" source="x4CWHcI_3ok25Xr3Ort--959" target="x4CWHcI_3ok25Xr3Ort--985">
          <mxGeometry width="50" height="50" relative="1" as="geometry">
            <mxPoint x="620" y="340" as="sourcePoint" />
            <mxPoint x="670" y="290" as="targetPoint" />
          </mxGeometry>
        </mxCell>
        <mxCell id="x4CWHcI_3ok25Xr3Ort--1043" value="" style="endArrow=none;html=1;rounded=0;exitX=0.939;exitY=-0.001;exitDx=0;exitDy=0;exitPerimeter=0;entryX=0;entryY=0.5;entryDx=0;entryDy=0;" edge="1" parent="x4CWHcI_3ok25Xr3Ort--958" source="x4CWHcI_3ok25Xr3Ort--959" target="x4CWHcI_3ok25Xr3Ort--983">
          <mxGeometry width="50" height="50" relative="1" as="geometry">
            <mxPoint x="620" y="340" as="sourcePoint" />
            <mxPoint x="670" y="290" as="targetPoint" />
          </mxGeometry>
        </mxCell>
        <mxCell id="x4CWHcI_3ok25Xr3Ort--1044" value="" style="endArrow=none;html=1;rounded=0;exitX=1;exitY=0;exitDx=0;exitDy=0;entryX=0;entryY=1;entryDx=0;entryDy=0;" edge="1" parent="x4CWHcI_3ok25Xr3Ort--958" source="x4CWHcI_3ok25Xr3Ort--1007" target="x4CWHcI_3ok25Xr3Ort--998">
          <mxGeometry width="50" height="50" relative="1" as="geometry">
            <mxPoint y="40" as="sourcePoint" />
            <mxPoint x="50" y="-10" as="targetPoint" />
          </mxGeometry>
        </mxCell>
        <mxCell id="x4CWHcI_3ok25Xr3Ort--1045" value="&lt;b&gt;1&lt;/b&gt;" style="text;html=1;strokeColor=none;fillColor=none;align=center;verticalAlign=middle;whiteSpace=wrap;rounded=0;" vertex="1" parent="x4CWHcI_3ok25Xr3Ort--958">
          <mxGeometry x="25" y="480" width="35" height="20" as="geometry" />
        </mxCell>
        <mxCell id="x4CWHcI_3ok25Xr3Ort--1046" value="&lt;b&gt;N&lt;/b&gt;" style="text;html=1;strokeColor=none;fillColor=none;align=center;verticalAlign=middle;whiteSpace=wrap;rounded=0;" vertex="1" parent="x4CWHcI_3ok25Xr3Ort--958">
          <mxGeometry x="700" y="780" width="60" height="30" as="geometry" />
        </mxCell>
        <mxCell id="x4CWHcI_3ok25Xr3Ort--1047" value="&lt;b&gt;1&lt;/b&gt;" style="text;html=1;strokeColor=none;fillColor=none;align=center;verticalAlign=middle;whiteSpace=wrap;rounded=0;" vertex="1" parent="x4CWHcI_3ok25Xr3Ort--958">
          <mxGeometry x="102.5" y="950" width="35" height="20" as="geometry" />
        </mxCell>
        <mxCell id="x4CWHcI_3ok25Xr3Ort--1048" value="&lt;b&gt;N&lt;/b&gt;" style="text;html=1;strokeColor=none;fillColor=none;align=center;verticalAlign=middle;whiteSpace=wrap;rounded=0;" vertex="1" parent="x4CWHcI_3ok25Xr3Ort--958">
          <mxGeometry x="215" y="150" width="60" height="30" as="geometry" />
        </mxCell>
        <mxCell id="x4CWHcI_3ok25Xr3Ort--1049" value="&lt;b&gt;N&lt;/b&gt;" style="text;html=1;strokeColor=none;fillColor=none;align=center;verticalAlign=middle;whiteSpace=wrap;rounded=0;" vertex="1" parent="x4CWHcI_3ok25Xr3Ort--958">
          <mxGeometry x="570" y="330" width="60" height="30" as="geometry" />
        </mxCell>
        <mxCell id="x4CWHcI_3ok25Xr3Ort--1050" value="" style="endArrow=none;html=1;rounded=0;exitX=1;exitY=0.75;exitDx=0;exitDy=0;entryX=0;entryY=0.5;entryDx=0;entryDy=0;" edge="1" parent="1" source="x4CWHcI_3ok25Xr3Ort--916" target="x4CWHcI_3ok25Xr3Ort--961">
          <mxGeometry width="50" height="50" relative="1" as="geometry">
            <mxPoint x="700" y="340" as="sourcePoint" />
            <mxPoint x="750" y="290" as="targetPoint" />
          </mxGeometry>
        </mxCell>
        <mxCell id="x4CWHcI_3ok25Xr3Ort--1051" value="" style="endArrow=none;html=1;rounded=0;exitX=1;exitY=0.5;exitDx=0;exitDy=0;" edge="1" parent="1" source="x4CWHcI_3ok25Xr3Ort--961">
          <mxGeometry width="50" height="50" relative="1" as="geometry">
            <mxPoint x="800" y="340" as="sourcePoint" />
            <mxPoint x="1050" y="350" as="targetPoint" />
            <Array as="points">
              <mxPoint x="1050" y="370" />
            </Array>
          </mxGeometry>
        </mxCell>
        <mxCell id="x4CWHcI_3ok25Xr3Ort--1052" value="" style="group" vertex="1" connectable="0" parent="1">
          <mxGeometry x="190" y="60" width="400" height="177.5" as="geometry" />
        </mxCell>
        <mxCell id="x4CWHcI_3ok25Xr3Ort--1053" value="End_time" style="ellipse;whiteSpace=wrap;html=1;rounded=0;movable=1;resizable=1;rotatable=1;deletable=1;editable=1;locked=0;connectable=1;" vertex="1" parent="x4CWHcI_3ok25Xr3Ort--1052">
          <mxGeometry x="280" y="152.5" width="80" height="25" as="geometry" />
        </mxCell>
        <mxCell id="x4CWHcI_3ok25Xr3Ort--1054" value="" style="group;movable=1;resizable=1;rotatable=1;deletable=1;editable=1;locked=0;connectable=1;" vertex="1" connectable="0" parent="x4CWHcI_3ok25Xr3Ort--1052">
          <mxGeometry width="400" height="145" as="geometry" />
        </mxCell>
        <mxCell id="x4CWHcI_3ok25Xr3Ort--1055" value="Athletics_and_rec" style="rounded=0;whiteSpace=wrap;html=1;fillColor=#D4E1F5;movable=1;resizable=1;rotatable=1;deletable=1;editable=1;locked=0;connectable=1;" vertex="1" parent="x4CWHcI_3ok25Xr3Ort--1054">
          <mxGeometry x="150" y="88.03571428571429" width="120" height="31.071428571428573" as="geometry" />
        </mxCell>
        <mxCell id="x4CWHcI_3ok25Xr3Ort--1056" value="&lt;u&gt;Ath_Id&lt;/u&gt;" style="ellipse;whiteSpace=wrap;html=1;rounded=0;movable=1;resizable=1;rotatable=1;deletable=1;editable=1;locked=0;connectable=1;" vertex="1" parent="x4CWHcI_3ok25Xr3Ort--1054">
          <mxGeometry x="10" y="67.32142857142858" width="80" height="25.892857142857146" as="geometry" />
        </mxCell>
        <mxCell id="x4CWHcI_3ok25Xr3Ort--1057" value="name" style="ellipse;whiteSpace=wrap;html=1;rounded=0;movable=1;resizable=1;rotatable=1;deletable=1;editable=1;locked=0;connectable=1;" vertex="1" parent="x4CWHcI_3ok25Xr3Ort--1054">
          <mxGeometry x="60" y="25.892857142857146" width="80" height="25.892857142857146" as="geometry" />
        </mxCell>
        <mxCell id="x4CWHcI_3ok25Xr3Ort--1058" value="Start_time" style="ellipse;whiteSpace=wrap;html=1;rounded=0;movable=1;resizable=1;rotatable=1;deletable=1;editable=1;locked=0;connectable=1;" vertex="1" parent="x4CWHcI_3ok25Xr3Ort--1054">
          <mxGeometry x="320" y="119.10714285714286" width="80" height="25.892857142857146" as="geometry" />
        </mxCell>
        <mxCell id="x4CWHcI_3ok25Xr3Ort--1059" value="Days" style="ellipse;whiteSpace=wrap;html=1;rounded=0;movable=1;resizable=1;rotatable=1;deletable=1;editable=1;locked=0;connectable=1;" vertex="1" parent="x4CWHcI_3ok25Xr3Ort--1054">
          <mxGeometry y="111.33928571428572" width="80" height="25.892857142857146" as="geometry" />
        </mxCell>
        <mxCell id="x4CWHcI_3ok25Xr3Ort--1060" value="Game_name" style="ellipse;whiteSpace=wrap;html=1;rounded=0;movable=1;resizable=1;rotatable=1;deletable=1;editable=1;locked=0;connectable=1;" vertex="1" parent="x4CWHcI_3ok25Xr3Ort--1054">
          <mxGeometry x="120" width="80" height="25.892857142857146" as="geometry" />
        </mxCell>
        <mxCell id="x4CWHcI_3ok25Xr3Ort--1061" value="Size" style="ellipse;whiteSpace=wrap;html=1;rounded=0;movable=1;resizable=1;rotatable=1;deletable=1;editable=1;locked=0;connectable=1;" vertex="1" parent="x4CWHcI_3ok25Xr3Ort--1054">
          <mxGeometry x="230" y="10.357142857142858" width="80" height="25.892857142857146" as="geometry" />
        </mxCell>
        <mxCell id="x4CWHcI_3ok25Xr3Ort--1062" value="ContactInfo" style="ellipse;whiteSpace=wrap;html=1;rounded=0;movable=1;resizable=1;rotatable=1;deletable=1;editable=1;locked=0;connectable=1;" vertex="1" parent="x4CWHcI_3ok25Xr3Ort--1054">
          <mxGeometry x="290" y="36.25" width="80" height="25.892857142857146" as="geometry" />
        </mxCell>
        <mxCell id="x4CWHcI_3ok25Xr3Ort--1063" value="Address" style="ellipse;whiteSpace=wrap;html=1;rounded=0;movable=1;resizable=1;rotatable=1;deletable=1;editable=1;locked=0;connectable=1;" vertex="1" parent="x4CWHcI_3ok25Xr3Ort--1054">
          <mxGeometry x="320" y="77.67857142857143" width="80" height="25.892857142857146" as="geometry" />
        </mxCell>
        <mxCell id="x4CWHcI_3ok25Xr3Ort--1064" value="" style="endArrow=none;html=1;rounded=0;exitX=1;exitY=0.5;exitDx=0;exitDy=0;entryX=0;entryY=0.5;entryDx=0;entryDy=0;" edge="1" parent="x4CWHcI_3ok25Xr3Ort--1054" source="x4CWHcI_3ok25Xr3Ort--1059" target="x4CWHcI_3ok25Xr3Ort--1055">
          <mxGeometry width="50" height="50" relative="1" as="geometry">
            <mxPoint x="110" y="150" as="sourcePoint" />
            <mxPoint x="160" y="100" as="targetPoint" />
          </mxGeometry>
        </mxCell>
        <mxCell id="x4CWHcI_3ok25Xr3Ort--1065" value="" style="endArrow=none;html=1;rounded=0;exitX=1;exitY=0.5;exitDx=0;exitDy=0;entryX=0;entryY=0;entryDx=0;entryDy=0;" edge="1" parent="x4CWHcI_3ok25Xr3Ort--1054" source="x4CWHcI_3ok25Xr3Ort--1056" target="x4CWHcI_3ok25Xr3Ort--1055">
          <mxGeometry width="50" height="50" relative="1" as="geometry">
            <mxPoint x="110" y="150" as="sourcePoint" />
            <mxPoint x="160" y="100" as="targetPoint" />
          </mxGeometry>
        </mxCell>
        <mxCell id="x4CWHcI_3ok25Xr3Ort--1066" value="" style="endArrow=none;html=1;rounded=0;exitX=1;exitY=1;exitDx=0;exitDy=0;entryX=0.127;entryY=0.064;entryDx=0;entryDy=0;entryPerimeter=0;" edge="1" parent="x4CWHcI_3ok25Xr3Ort--1054" source="x4CWHcI_3ok25Xr3Ort--1057" target="x4CWHcI_3ok25Xr3Ort--1055">
          <mxGeometry width="50" height="50" relative="1" as="geometry">
            <mxPoint x="110" y="150" as="sourcePoint" />
            <mxPoint x="160" y="100" as="targetPoint" />
          </mxGeometry>
        </mxCell>
        <mxCell id="x4CWHcI_3ok25Xr3Ort--1067" value="" style="endArrow=none;html=1;rounded=0;exitX=0.603;exitY=1.073;exitDx=0;exitDy=0;exitPerimeter=0;entryX=0.25;entryY=0;entryDx=0;entryDy=0;" edge="1" parent="x4CWHcI_3ok25Xr3Ort--1054" source="x4CWHcI_3ok25Xr3Ort--1060" target="x4CWHcI_3ok25Xr3Ort--1055">
          <mxGeometry width="50" height="50" relative="1" as="geometry">
            <mxPoint x="110" y="150" as="sourcePoint" />
            <mxPoint x="160" y="100" as="targetPoint" />
          </mxGeometry>
        </mxCell>
        <mxCell id="x4CWHcI_3ok25Xr3Ort--1068" value="" style="endArrow=none;html=1;rounded=0;exitX=0.333;exitY=0.943;exitDx=0;exitDy=0;exitPerimeter=0;entryX=0.375;entryY=-0.029;entryDx=0;entryDy=0;entryPerimeter=0;" edge="1" parent="x4CWHcI_3ok25Xr3Ort--1054" source="x4CWHcI_3ok25Xr3Ort--1061" target="x4CWHcI_3ok25Xr3Ort--1055">
          <mxGeometry width="50" height="50" relative="1" as="geometry">
            <mxPoint x="110" y="150" as="sourcePoint" />
            <mxPoint x="160" y="100" as="targetPoint" />
          </mxGeometry>
        </mxCell>
        <mxCell id="x4CWHcI_3ok25Xr3Ort--1069" value="" style="endArrow=none;html=1;rounded=0;exitX=0.75;exitY=0;exitDx=0;exitDy=0;entryX=0.321;entryY=1.018;entryDx=0;entryDy=0;entryPerimeter=0;" edge="1" parent="x4CWHcI_3ok25Xr3Ort--1054" source="x4CWHcI_3ok25Xr3Ort--1055" target="x4CWHcI_3ok25Xr3Ort--1062">
          <mxGeometry width="50" height="50" relative="1" as="geometry">
            <mxPoint x="310" y="60" as="sourcePoint" />
            <mxPoint x="360" y="10" as="targetPoint" />
          </mxGeometry>
        </mxCell>
        <mxCell id="x4CWHcI_3ok25Xr3Ort--1070" value="" style="endArrow=none;html=1;rounded=0;exitX=1;exitY=0.25;exitDx=0;exitDy=0;entryX=0;entryY=0.5;entryDx=0;entryDy=0;" edge="1" parent="x4CWHcI_3ok25Xr3Ort--1054" source="x4CWHcI_3ok25Xr3Ort--1055" target="x4CWHcI_3ok25Xr3Ort--1063">
          <mxGeometry width="50" height="50" relative="1" as="geometry">
            <mxPoint x="310" y="60" as="sourcePoint" />
            <mxPoint x="360" y="10" as="targetPoint" />
          </mxGeometry>
        </mxCell>
        <mxCell id="x4CWHcI_3ok25Xr3Ort--1071" value="" style="endArrow=none;html=1;rounded=0;exitX=1;exitY=0.75;exitDx=0;exitDy=0;entryX=0;entryY=0.5;entryDx=0;entryDy=0;" edge="1" parent="x4CWHcI_3ok25Xr3Ort--1054" source="x4CWHcI_3ok25Xr3Ort--1055" target="x4CWHcI_3ok25Xr3Ort--1058">
          <mxGeometry width="50" height="50" relative="1" as="geometry">
            <mxPoint x="310" y="60" as="sourcePoint" />
            <mxPoint x="360" y="10" as="targetPoint" />
          </mxGeometry>
        </mxCell>
        <mxCell id="x4CWHcI_3ok25Xr3Ort--1072" value="&lt;b&gt;1&lt;/b&gt;" style="text;html=1;strokeColor=none;fillColor=none;align=center;verticalAlign=middle;whiteSpace=wrap;rounded=0;" vertex="1" parent="x4CWHcI_3ok25Xr3Ort--1054">
          <mxGeometry x="195" y="122.05000000000001" width="35" height="20" as="geometry" />
        </mxCell>
        <mxCell id="x4CWHcI_3ok25Xr3Ort--1073" value="" style="endArrow=none;html=1;rounded=0;exitX=0.949;exitY=1.006;exitDx=0;exitDy=0;exitPerimeter=0;entryX=0.294;entryY=0.037;entryDx=0;entryDy=0;entryPerimeter=0;" edge="1" parent="x4CWHcI_3ok25Xr3Ort--1052" source="x4CWHcI_3ok25Xr3Ort--1055" target="x4CWHcI_3ok25Xr3Ort--1053">
          <mxGeometry width="50" height="50" relative="1" as="geometry">
            <mxPoint x="310" y="60" as="sourcePoint" />
            <mxPoint x="300" y="150" as="targetPoint" />
          </mxGeometry>
        </mxCell>
        <mxCell id="x4CWHcI_3ok25Xr3Ort--1074" value="have" style="rhombus;whiteSpace=wrap;html=1;fillColor=#FFB366;" vertex="1" parent="1">
          <mxGeometry x="350" y="230" width="80" height="42.5" as="geometry" />
        </mxCell>
        <mxCell id="x4CWHcI_3ok25Xr3Ort--1075" value="" style="endArrow=none;html=1;rounded=0;exitX=0.5;exitY=0;exitDx=0;exitDy=0;entryX=0.5;entryY=1;entryDx=0;entryDy=0;" edge="1" parent="1" source="x4CWHcI_3ok25Xr3Ort--916" target="x4CWHcI_3ok25Xr3Ort--1074">
          <mxGeometry width="50" height="50" relative="1" as="geometry">
            <mxPoint x="480" y="380" as="sourcePoint" />
            <mxPoint x="530" y="330" as="targetPoint" />
          </mxGeometry>
        </mxCell>
        <mxCell id="x4CWHcI_3ok25Xr3Ort--1076" value="" style="endArrow=none;html=1;rounded=0;entryX=0.5;entryY=0;entryDx=0;entryDy=0;" edge="1" parent="1" target="x4CWHcI_3ok25Xr3Ort--1074">
          <mxGeometry width="50" height="50" relative="1" as="geometry">
            <mxPoint x="390" y="180" as="sourcePoint" />
            <mxPoint x="530" y="330" as="targetPoint" />
          </mxGeometry>
        </mxCell>
        <mxCell id="x4CWHcI_3ok25Xr3Ort--1077" value="" style="group" vertex="1" connectable="0" parent="1">
          <mxGeometry x="-270" y="205" width="410" height="117.5" as="geometry" />
        </mxCell>
        <mxCell id="x4CWHcI_3ok25Xr3Ort--1078" value="Dining" style="rounded=0;whiteSpace=wrap;html=1;fillColor=#D4E1F5;" vertex="1" parent="x4CWHcI_3ok25Xr3Ort--1077">
          <mxGeometry x="120" y="87.5" width="120" height="30" as="geometry" />
        </mxCell>
        <mxCell id="x4CWHcI_3ok25Xr3Ort--1079" value="Operating_hours" style="ellipse;whiteSpace=wrap;html=1;" vertex="1" parent="x4CWHcI_3ok25Xr3Ort--1077">
          <mxGeometry x="300" y="92.5" width="110" height="25" as="geometry" />
        </mxCell>
        <mxCell id="x4CWHcI_3ok25Xr3Ort--1080" value="Capacity" style="ellipse;whiteSpace=wrap;html=1;" vertex="1" parent="x4CWHcI_3ok25Xr3Ort--1077">
          <mxGeometry x="300" y="42.5" width="80" height="30" as="geometry" />
        </mxCell>
        <mxCell id="x4CWHcI_3ok25Xr3Ort--1081" value="Cuisine_type" style="ellipse;whiteSpace=wrap;html=1;" vertex="1" parent="x4CWHcI_3ok25Xr3Ort--1077">
          <mxGeometry x="150" width="80" height="30" as="geometry" />
        </mxCell>
        <mxCell id="x4CWHcI_3ok25Xr3Ort--1082" value="name" style="ellipse;whiteSpace=wrap;html=1;" vertex="1" parent="x4CWHcI_3ok25Xr3Ort--1077">
          <mxGeometry x="60" y="7.5" width="80" height="30" as="geometry" />
        </mxCell>
        <mxCell id="x4CWHcI_3ok25Xr3Ort--1083" value="Type" style="ellipse;whiteSpace=wrap;html=1;" vertex="1" parent="x4CWHcI_3ok25Xr3Ort--1077">
          <mxGeometry x="20" y="42.5" width="80" height="30" as="geometry" />
        </mxCell>
        <mxCell id="x4CWHcI_3ok25Xr3Ort--1084" value="&lt;u&gt;Dining_ID&lt;/u&gt;" style="ellipse;whiteSpace=wrap;html=1;" vertex="1" parent="x4CWHcI_3ok25Xr3Ort--1077">
          <mxGeometry y="87.5" width="80" height="30" as="geometry" />
        </mxCell>
        <mxCell id="x4CWHcI_3ok25Xr3Ort--1085" value="Address" style="ellipse;whiteSpace=wrap;html=1;" vertex="1" parent="x4CWHcI_3ok25Xr3Ort--1077">
          <mxGeometry x="240" y="12.5" width="80" height="30" as="geometry" />
        </mxCell>
        <mxCell id="x4CWHcI_3ok25Xr3Ort--1086" value="" style="endArrow=none;html=1;rounded=0;entryX=1;entryY=0.5;entryDx=0;entryDy=0;exitX=0;exitY=0.5;exitDx=0;exitDy=0;" edge="1" parent="x4CWHcI_3ok25Xr3Ort--1077" source="x4CWHcI_3ok25Xr3Ort--1078" target="x4CWHcI_3ok25Xr3Ort--1084">
          <mxGeometry width="50" height="50" relative="1" as="geometry">
            <mxPoint x="120" y="115" as="sourcePoint" />
            <mxPoint x="20" y="255" as="targetPoint" />
          </mxGeometry>
        </mxCell>
        <mxCell id="x4CWHcI_3ok25Xr3Ort--1087" value="" style="endArrow=none;html=1;rounded=0;exitX=1;exitY=1;exitDx=0;exitDy=0;entryX=0;entryY=0;entryDx=0;entryDy=0;" edge="1" parent="x4CWHcI_3ok25Xr3Ort--1077" source="x4CWHcI_3ok25Xr3Ort--1083" target="x4CWHcI_3ok25Xr3Ort--1078">
          <mxGeometry width="50" height="50" relative="1" as="geometry">
            <mxPoint x="-30" y="305" as="sourcePoint" />
            <mxPoint x="20" y="255" as="targetPoint" />
          </mxGeometry>
        </mxCell>
        <mxCell id="x4CWHcI_3ok25Xr3Ort--1088" value="" style="endArrow=none;html=1;rounded=0;entryX=1;entryY=1;entryDx=0;entryDy=0;exitX=0.136;exitY=-0.02;exitDx=0;exitDy=0;exitPerimeter=0;" edge="1" parent="x4CWHcI_3ok25Xr3Ort--1077" source="x4CWHcI_3ok25Xr3Ort--1078" target="x4CWHcI_3ok25Xr3Ort--1082">
          <mxGeometry width="50" height="50" relative="1" as="geometry">
            <mxPoint x="140" y="85" as="sourcePoint" />
            <mxPoint x="20" y="255" as="targetPoint" />
          </mxGeometry>
        </mxCell>
        <mxCell id="x4CWHcI_3ok25Xr3Ort--1089" value="" style="endArrow=none;html=1;rounded=0;exitX=0.5;exitY=1;exitDx=0;exitDy=0;entryX=0.25;entryY=0;entryDx=0;entryDy=0;" edge="1" parent="x4CWHcI_3ok25Xr3Ort--1077" source="x4CWHcI_3ok25Xr3Ort--1081" target="x4CWHcI_3ok25Xr3Ort--1078">
          <mxGeometry width="50" height="50" relative="1" as="geometry">
            <mxPoint x="-30" y="305" as="sourcePoint" />
            <mxPoint x="20" y="255" as="targetPoint" />
          </mxGeometry>
        </mxCell>
        <mxCell id="x4CWHcI_3ok25Xr3Ort--1090" value="" style="endArrow=none;html=1;rounded=0;exitX=0.293;exitY=0.944;exitDx=0;exitDy=0;exitPerimeter=0;entryX=0.584;entryY=-0.049;entryDx=0;entryDy=0;entryPerimeter=0;" edge="1" parent="x4CWHcI_3ok25Xr3Ort--1077" source="x4CWHcI_3ok25Xr3Ort--1085" target="x4CWHcI_3ok25Xr3Ort--1078">
          <mxGeometry width="50" height="50" relative="1" as="geometry">
            <mxPoint x="-30" y="305" as="sourcePoint" />
            <mxPoint x="20" y="255" as="targetPoint" />
          </mxGeometry>
        </mxCell>
        <mxCell id="x4CWHcI_3ok25Xr3Ort--1091" value="" style="endArrow=none;html=1;rounded=0;exitX=0;exitY=0.5;exitDx=0;exitDy=0;" edge="1" parent="x4CWHcI_3ok25Xr3Ort--1077" source="x4CWHcI_3ok25Xr3Ort--1080" target="x4CWHcI_3ok25Xr3Ort--1078">
          <mxGeometry width="50" height="50" relative="1" as="geometry">
            <mxPoint x="-30" y="305" as="sourcePoint" />
            <mxPoint x="20" y="255" as="targetPoint" />
          </mxGeometry>
        </mxCell>
        <mxCell id="x4CWHcI_3ok25Xr3Ort--1092" value="" style="endArrow=none;html=1;rounded=0;exitX=0;exitY=0.5;exitDx=0;exitDy=0;entryX=1;entryY=0.5;entryDx=0;entryDy=0;" edge="1" parent="x4CWHcI_3ok25Xr3Ort--1077" source="x4CWHcI_3ok25Xr3Ort--1079" target="x4CWHcI_3ok25Xr3Ort--1078">
          <mxGeometry width="50" height="50" relative="1" as="geometry">
            <mxPoint x="-30" y="305" as="sourcePoint" />
            <mxPoint x="20" y="255" as="targetPoint" />
          </mxGeometry>
        </mxCell>
        <mxCell id="x4CWHcI_3ok25Xr3Ort--1093" value="have" style="rhombus;whiteSpace=wrap;html=1;fillColor=#FFB366;" vertex="1" parent="1">
          <mxGeometry x="-130" y="345" width="80" height="40" as="geometry" />
        </mxCell>
        <mxCell id="x4CWHcI_3ok25Xr3Ort--1094" value="" style="endArrow=none;html=1;rounded=0;exitX=1;exitY=0.5;exitDx=0;exitDy=0;entryX=0;entryY=0.5;entryDx=0;entryDy=0;" edge="1" parent="1" source="x4CWHcI_3ok25Xr3Ort--1093" target="x4CWHcI_3ok25Xr3Ort--916">
          <mxGeometry width="50" height="50" relative="1" as="geometry">
            <mxPoint x="130" y="410" as="sourcePoint" />
            <mxPoint x="180" y="360" as="targetPoint" />
          </mxGeometry>
        </mxCell>
        <mxCell id="x4CWHcI_3ok25Xr3Ort--1095" value="" style="endArrow=none;html=1;rounded=0;exitX=0.5;exitY=0;exitDx=0;exitDy=0;entryX=0.5;entryY=1;entryDx=0;entryDy=0;" edge="1" parent="1" source="x4CWHcI_3ok25Xr3Ort--1093" target="x4CWHcI_3ok25Xr3Ort--1078">
          <mxGeometry width="50" height="50" relative="1" as="geometry">
            <mxPoint x="130" y="410" as="sourcePoint" />
            <mxPoint x="180" y="360" as="targetPoint" />
          </mxGeometry>
        </mxCell>
        <mxCell id="x4CWHcI_3ok25Xr3Ort--1096" value="" style="group" vertex="1" connectable="0" parent="1">
          <mxGeometry x="-600" y="311.25" width="320" height="100" as="geometry" />
        </mxCell>
        <mxCell id="x4CWHcI_3ok25Xr3Ort--1097" value="Parking" style="rounded=0;whiteSpace=wrap;html=1;fillColor=#D4E1F5;" vertex="1" parent="x4CWHcI_3ok25Xr3Ort--1096">
          <mxGeometry x="100" y="70" width="120" height="30" as="geometry" />
        </mxCell>
        <mxCell id="x4CWHcI_3ok25Xr3Ort--1098" value="Fees" style="ellipse;whiteSpace=wrap;html=1;" vertex="1" parent="x4CWHcI_3ok25Xr3Ort--1096">
          <mxGeometry x="230" y="30" width="80" height="30" as="geometry" />
        </mxCell>
        <mxCell id="x4CWHcI_3ok25Xr3Ort--1099" value="Availability" style="ellipse;whiteSpace=wrap;html=1;" vertex="1" parent="x4CWHcI_3ok25Xr3Ort--1096">
          <mxGeometry x="240" y="70" width="80" height="30" as="geometry" />
        </mxCell>
        <mxCell id="x4CWHcI_3ok25Xr3Ort--1100" value="Type" style="ellipse;whiteSpace=wrap;html=1;" vertex="1" parent="x4CWHcI_3ok25Xr3Ort--1096">
          <mxGeometry x="80" width="80" height="30" as="geometry" />
        </mxCell>
        <mxCell id="x4CWHcI_3ok25Xr3Ort--1101" value="Capacity" style="ellipse;whiteSpace=wrap;html=1;" vertex="1" parent="x4CWHcI_3ok25Xr3Ort--1096">
          <mxGeometry x="30" y="30" width="80" height="30" as="geometry" />
        </mxCell>
        <mxCell id="x4CWHcI_3ok25Xr3Ort--1102" value="&lt;u&gt;Parking_ID&lt;/u&gt;" style="ellipse;whiteSpace=wrap;html=1;" vertex="1" parent="x4CWHcI_3ok25Xr3Ort--1096">
          <mxGeometry y="70" width="80" height="30" as="geometry" />
        </mxCell>
        <mxCell id="x4CWHcI_3ok25Xr3Ort--1103" value="Location" style="ellipse;whiteSpace=wrap;html=1;" vertex="1" parent="x4CWHcI_3ok25Xr3Ort--1096">
          <mxGeometry x="170" width="80" height="30" as="geometry" />
        </mxCell>
        <mxCell id="x4CWHcI_3ok25Xr3Ort--1104" value="" style="endArrow=none;html=1;rounded=0;exitX=1;exitY=1;exitDx=0;exitDy=0;entryX=0;entryY=0;entryDx=0;entryDy=0;" edge="1" parent="x4CWHcI_3ok25Xr3Ort--1096" source="x4CWHcI_3ok25Xr3Ort--1101" target="x4CWHcI_3ok25Xr3Ort--1097">
          <mxGeometry width="50" height="50" relative="1" as="geometry">
            <mxPoint x="280" y="198.75" as="sourcePoint" />
            <mxPoint x="330" y="148.75" as="targetPoint" />
          </mxGeometry>
        </mxCell>
        <mxCell id="x4CWHcI_3ok25Xr3Ort--1105" value="" style="endArrow=none;html=1;rounded=0;exitX=0.5;exitY=1;exitDx=0;exitDy=0;entryX=0.25;entryY=0;entryDx=0;entryDy=0;" edge="1" parent="x4CWHcI_3ok25Xr3Ort--1096" source="x4CWHcI_3ok25Xr3Ort--1100" target="x4CWHcI_3ok25Xr3Ort--1097">
          <mxGeometry width="50" height="50" relative="1" as="geometry">
            <mxPoint x="280" y="198.75" as="sourcePoint" />
            <mxPoint x="330" y="148.75" as="targetPoint" />
          </mxGeometry>
        </mxCell>
        <mxCell id="x4CWHcI_3ok25Xr3Ort--1106" value="" style="endArrow=none;html=1;rounded=0;exitX=0;exitY=1;exitDx=0;exitDy=0;entryX=0.5;entryY=0;entryDx=0;entryDy=0;" edge="1" parent="x4CWHcI_3ok25Xr3Ort--1096" source="x4CWHcI_3ok25Xr3Ort--1103" target="x4CWHcI_3ok25Xr3Ort--1097">
          <mxGeometry width="50" height="50" relative="1" as="geometry">
            <mxPoint x="280" y="198.75" as="sourcePoint" />
            <mxPoint x="330" y="148.75" as="targetPoint" />
          </mxGeometry>
        </mxCell>
        <mxCell id="x4CWHcI_3ok25Xr3Ort--1107" value="" style="endArrow=none;html=1;rounded=0;exitX=0;exitY=0.5;exitDx=0;exitDy=0;entryX=0.75;entryY=0;entryDx=0;entryDy=0;" edge="1" parent="x4CWHcI_3ok25Xr3Ort--1096" source="x4CWHcI_3ok25Xr3Ort--1098" target="x4CWHcI_3ok25Xr3Ort--1097">
          <mxGeometry width="50" height="50" relative="1" as="geometry">
            <mxPoint x="280" y="198.75" as="sourcePoint" />
            <mxPoint x="330" y="148.75" as="targetPoint" />
          </mxGeometry>
        </mxCell>
        <mxCell id="x4CWHcI_3ok25Xr3Ort--1108" value="" style="endArrow=none;html=1;rounded=0;exitX=0;exitY=0.5;exitDx=0;exitDy=0;entryX=1;entryY=0.5;entryDx=0;entryDy=0;" edge="1" parent="x4CWHcI_3ok25Xr3Ort--1096" source="x4CWHcI_3ok25Xr3Ort--1099" target="x4CWHcI_3ok25Xr3Ort--1097">
          <mxGeometry width="50" height="50" relative="1" as="geometry">
            <mxPoint x="280" y="198.75" as="sourcePoint" />
            <mxPoint x="330" y="148.75" as="targetPoint" />
          </mxGeometry>
        </mxCell>
        <mxCell id="x4CWHcI_3ok25Xr3Ort--1109" value="has" style="rhombus;whiteSpace=wrap;html=1;fillColor=#FFB366;" vertex="1" parent="1">
          <mxGeometry x="-480" y="430" width="80" height="60" as="geometry" />
        </mxCell>
        <mxCell id="x4CWHcI_3ok25Xr3Ort--1110" value="" style="endArrow=none;html=1;rounded=0;exitX=1;exitY=0.5;exitDx=0;exitDy=0;entryX=0;entryY=1;entryDx=0;entryDy=0;" edge="1" parent="1" source="x4CWHcI_3ok25Xr3Ort--1109" target="x4CWHcI_3ok25Xr3Ort--916">
          <mxGeometry width="50" height="50" relative="1" as="geometry">
            <mxPoint x="-100" y="390" as="sourcePoint" />
            <mxPoint x="-50" y="340" as="targetPoint" />
          </mxGeometry>
        </mxCell>
        <mxCell id="x4CWHcI_3ok25Xr3Ort--1111" value="" style="endArrow=none;html=1;rounded=0;exitX=1;exitY=1;exitDx=0;exitDy=0;" edge="1" parent="1" source="x4CWHcI_3ok25Xr3Ort--916">
          <mxGeometry width="50" height="50" relative="1" as="geometry">
            <mxPoint x="780" y="560" as="sourcePoint" />
            <mxPoint x="880" y="470" as="targetPoint" />
          </mxGeometry>
        </mxCell>
        <mxCell id="x4CWHcI_3ok25Xr3Ort--1112" value="" style="endArrow=none;html=1;rounded=0;exitX=1;exitY=0.5;exitDx=0;exitDy=0;entryX=0;entryY=0.75;entryDx=0;entryDy=0;" edge="1" parent="1" source="x4CWHcI_3ok25Xr3Ort--962" target="x4CWHcI_3ok25Xr3Ort--1123">
          <mxGeometry width="50" height="50" relative="1" as="geometry">
            <mxPoint x="970" y="480" as="sourcePoint" />
            <mxPoint x="1060" y="510" as="targetPoint" />
          </mxGeometry>
        </mxCell>
        <mxCell id="x4CWHcI_3ok25Xr3Ort--1113" value="" style="endArrow=none;html=1;rounded=0;exitX=1;exitY=0.25;exitDx=0;exitDy=0;entryX=0.5;entryY=1;entryDx=0;entryDy=0;" edge="1" parent="1" source="x4CWHcI_3ok25Xr3Ort--916" target="x4CWHcI_3ok25Xr3Ort--987">
          <mxGeometry width="50" height="50" relative="1" as="geometry">
            <mxPoint x="810" y="130" as="sourcePoint" />
            <mxPoint x="860" y="80" as="targetPoint" />
          </mxGeometry>
        </mxCell>
        <mxCell id="x4CWHcI_3ok25Xr3Ort--1114" value="" style="endArrow=none;html=1;rounded=0;exitX=1;exitY=0.5;exitDx=0;exitDy=0;entryX=0;entryY=0.5;entryDx=0;entryDy=0;" edge="1" parent="1" source="x4CWHcI_3ok25Xr3Ort--916" target="x4CWHcI_3ok25Xr3Ort--986">
          <mxGeometry width="50" height="50" relative="1" as="geometry">
            <mxPoint x="740" y="130" as="sourcePoint" />
            <mxPoint x="790" y="80" as="targetPoint" />
          </mxGeometry>
        </mxCell>
        <mxCell id="x4CWHcI_3ok25Xr3Ort--1115" value="" style="group" vertex="1" connectable="0" parent="1">
          <mxGeometry x="1240" y="257.5" width="560" height="222.5" as="geometry" />
        </mxCell>
        <mxCell id="x4CWHcI_3ok25Xr3Ort--1116" value="&lt;u&gt;Residence_ID&lt;/u&gt;" style="ellipse;whiteSpace=wrap;html=1;" vertex="1" parent="x4CWHcI_3ok25Xr3Ort--1115">
          <mxGeometry x="-20" y="170" width="100" height="32.5" as="geometry" />
        </mxCell>
        <mxCell id="x4CWHcI_3ok25Xr3Ort--1117" value="Address" style="ellipse;whiteSpace=wrap;html=1;" vertex="1" parent="x4CWHcI_3ok25Xr3Ort--1115">
          <mxGeometry x="30" y="90" width="100" height="30" as="geometry" />
        </mxCell>
        <mxCell id="x4CWHcI_3ok25Xr3Ort--1118" value="Name" style="ellipse;whiteSpace=wrap;html=1;" vertex="1" parent="x4CWHcI_3ok25Xr3Ort--1115">
          <mxGeometry x="10" y="135" width="80" height="30" as="geometry" />
        </mxCell>
        <mxCell id="x4CWHcI_3ok25Xr3Ort--1119" value="Amenities" style="ellipse;whiteSpace=wrap;html=1;" vertex="1" parent="x4CWHcI_3ok25Xr3Ort--1115">
          <mxGeometry x="365" y="85" width="120" height="35" as="geometry" />
        </mxCell>
        <mxCell id="x4CWHcI_3ok25Xr3Ort--1120" value="Utilities" style="ellipse;whiteSpace=wrap;html=1;" vertex="1" parent="x4CWHcI_3ok25Xr3Ort--1115">
          <mxGeometry x="420" y="130" width="120" height="35" as="geometry" />
        </mxCell>
        <mxCell id="x4CWHcI_3ok25Xr3Ort--1121" value="Rent" style="ellipse;whiteSpace=wrap;html=1;" vertex="1" parent="x4CWHcI_3ok25Xr3Ort--1115">
          <mxGeometry x="440" y="187.5" width="120" height="35" as="geometry" />
        </mxCell>
        <mxCell id="x4CWHcI_3ok25Xr3Ort--1122" value="Deposits" style="ellipse;whiteSpace=wrap;html=1;" vertex="1" parent="x4CWHcI_3ok25Xr3Ort--1115">
          <mxGeometry x="340" y="35" width="120" height="35" as="geometry" />
        </mxCell>
        <mxCell id="x4CWHcI_3ok25Xr3Ort--1123" value="Residence_and_housing" style="rounded=0;whiteSpace=wrap;html=1;fillColor=#D4E1F5;" vertex="1" parent="x4CWHcI_3ok25Xr3Ort--1115">
          <mxGeometry x="205" y="190" width="160" height="30" as="geometry" />
        </mxCell>
        <mxCell id="x4CWHcI_3ok25Xr3Ort--1124" value="Room_Type" style="ellipse;whiteSpace=wrap;html=1;" vertex="1" parent="x4CWHcI_3ok25Xr3Ort--1115">
          <mxGeometry x="75" y="50" width="120" height="35" as="geometry" />
        </mxCell>
        <mxCell id="x4CWHcI_3ok25Xr3Ort--1125" value="Type" style="ellipse;whiteSpace=wrap;html=1;" vertex="1" parent="x4CWHcI_3ok25Xr3Ort--1115">
          <mxGeometry x="130" y="12.5" width="120" height="30" as="geometry" />
        </mxCell>
        <mxCell id="x4CWHcI_3ok25Xr3Ort--1126" value="Capacity" style="ellipse;whiteSpace=wrap;html=1;" vertex="1" parent="x4CWHcI_3ok25Xr3Ort--1115">
          <mxGeometry x="260" width="120" height="35" as="geometry" />
        </mxCell>
        <mxCell id="x4CWHcI_3ok25Xr3Ort--1127" value="" style="endArrow=none;html=1;rounded=0;exitX=1;exitY=1;exitDx=0;exitDy=0;entryX=0;entryY=0.25;entryDx=0;entryDy=0;" edge="1" parent="x4CWHcI_3ok25Xr3Ort--1115" source="x4CWHcI_3ok25Xr3Ort--1116" target="x4CWHcI_3ok25Xr3Ort--1123">
          <mxGeometry width="50" height="50" relative="1" as="geometry">
            <mxPoint x="180" y="232.5" as="sourcePoint" />
            <mxPoint x="230" y="182.5" as="targetPoint" />
          </mxGeometry>
        </mxCell>
        <mxCell id="x4CWHcI_3ok25Xr3Ort--1128" value="" style="endArrow=none;html=1;rounded=0;exitX=1;exitY=0.5;exitDx=0;exitDy=0;entryX=0.096;entryY=0.018;entryDx=0;entryDy=0;entryPerimeter=0;" edge="1" parent="x4CWHcI_3ok25Xr3Ort--1115" source="x4CWHcI_3ok25Xr3Ort--1118" target="x4CWHcI_3ok25Xr3Ort--1123">
          <mxGeometry width="50" height="50" relative="1" as="geometry">
            <mxPoint x="180" y="232.5" as="sourcePoint" />
            <mxPoint x="230" y="182.5" as="targetPoint" />
          </mxGeometry>
        </mxCell>
        <mxCell id="x4CWHcI_3ok25Xr3Ort--1129" value="" style="endArrow=none;html=1;rounded=0;exitX=1;exitY=1;exitDx=0;exitDy=0;entryX=0.156;entryY=0.083;entryDx=0;entryDy=0;entryPerimeter=0;" edge="1" parent="x4CWHcI_3ok25Xr3Ort--1115" source="x4CWHcI_3ok25Xr3Ort--1117" target="x4CWHcI_3ok25Xr3Ort--1123">
          <mxGeometry width="50" height="50" relative="1" as="geometry">
            <mxPoint x="180" y="232.5" as="sourcePoint" />
            <mxPoint x="230" y="182.5" as="targetPoint" />
          </mxGeometry>
        </mxCell>
        <mxCell id="x4CWHcI_3ok25Xr3Ort--1130" value="" style="endArrow=none;html=1;rounded=0;exitX=0.5;exitY=1;exitDx=0;exitDy=0;entryX=0.352;entryY=-0.01;entryDx=0;entryDy=0;entryPerimeter=0;" edge="1" parent="x4CWHcI_3ok25Xr3Ort--1115" source="x4CWHcI_3ok25Xr3Ort--1126" target="x4CWHcI_3ok25Xr3Ort--1123">
          <mxGeometry width="50" height="50" relative="1" as="geometry">
            <mxPoint x="300" y="42.5" as="sourcePoint" />
            <mxPoint x="260" y="182.5" as="targetPoint" />
          </mxGeometry>
        </mxCell>
        <mxCell id="x4CWHcI_3ok25Xr3Ort--1131" value="" style="endArrow=none;html=1;rounded=0;exitX=0.247;exitY=0.934;exitDx=0;exitDy=0;exitPerimeter=0;entryX=0.437;entryY=0.075;entryDx=0;entryDy=0;entryPerimeter=0;" edge="1" parent="x4CWHcI_3ok25Xr3Ort--1115" source="x4CWHcI_3ok25Xr3Ort--1122" target="x4CWHcI_3ok25Xr3Ort--1123">
          <mxGeometry width="50" height="50" relative="1" as="geometry">
            <mxPoint x="180" y="232.5" as="sourcePoint" />
            <mxPoint x="230" y="182.5" as="targetPoint" />
          </mxGeometry>
        </mxCell>
        <mxCell id="x4CWHcI_3ok25Xr3Ort--1132" value="" style="endArrow=none;html=1;rounded=0;exitX=0.667;exitY=0.104;exitDx=0;exitDy=0;exitPerimeter=0;entryX=0;entryY=1;entryDx=0;entryDy=0;" edge="1" parent="x4CWHcI_3ok25Xr3Ort--1115" source="x4CWHcI_3ok25Xr3Ort--1123" target="x4CWHcI_3ok25Xr3Ort--1119">
          <mxGeometry width="50" height="50" relative="1" as="geometry">
            <mxPoint x="180" y="232.5" as="sourcePoint" />
            <mxPoint x="230" y="182.5" as="targetPoint" />
          </mxGeometry>
        </mxCell>
        <mxCell id="x4CWHcI_3ok25Xr3Ort--1133" value="" style="endArrow=none;html=1;rounded=0;exitX=0.891;exitY=-0.038;exitDx=0;exitDy=0;exitPerimeter=0;entryX=0;entryY=0.5;entryDx=0;entryDy=0;" edge="1" parent="x4CWHcI_3ok25Xr3Ort--1115" source="x4CWHcI_3ok25Xr3Ort--1123" target="x4CWHcI_3ok25Xr3Ort--1120">
          <mxGeometry width="50" height="50" relative="1" as="geometry">
            <mxPoint x="180" y="232.5" as="sourcePoint" />
            <mxPoint x="230" y="182.5" as="targetPoint" />
          </mxGeometry>
        </mxCell>
        <mxCell id="x4CWHcI_3ok25Xr3Ort--1134" value="" style="group" vertex="1" connectable="0" parent="1">
          <mxGeometry x="930" y="-350" width="390" height="172.5" as="geometry" />
        </mxCell>
        <mxCell id="x4CWHcI_3ok25Xr3Ort--1135" value="Courses" style="rounded=0;whiteSpace=wrap;html=1;fillColor=#D4E1F5;" vertex="1" parent="x4CWHcI_3ok25Xr3Ort--1134">
          <mxGeometry x="130" y="112.5" width="120" height="30" as="geometry" />
        </mxCell>
        <mxCell id="x4CWHcI_3ok25Xr3Ort--1136" value="Description" style="ellipse;whiteSpace=wrap;html=1;" vertex="1" parent="x4CWHcI_3ok25Xr3Ort--1134">
          <mxGeometry x="210" width="80" height="30" as="geometry" />
        </mxCell>
        <mxCell id="x4CWHcI_3ok25Xr3Ort--1137" value="Duration" style="ellipse;whiteSpace=wrap;html=1;" vertex="1" parent="x4CWHcI_3ok25Xr3Ort--1134">
          <mxGeometry x="100" y="-10" width="80" height="30" as="geometry" />
        </mxCell>
        <mxCell id="x4CWHcI_3ok25Xr3Ort--1138" value="Credits" style="ellipse;whiteSpace=wrap;html=1;" vertex="1" parent="x4CWHcI_3ok25Xr3Ort--1134">
          <mxGeometry x="60" y="30" width="80" height="30" as="geometry" />
        </mxCell>
        <mxCell id="x4CWHcI_3ok25Xr3Ort--1139" value="name" style="ellipse;whiteSpace=wrap;html=1;" vertex="1" parent="x4CWHcI_3ok25Xr3Ort--1134">
          <mxGeometry x="40" y="72.5" width="80" height="30" as="geometry" />
        </mxCell>
        <mxCell id="x4CWHcI_3ok25Xr3Ort--1140" value="&lt;u&gt;Course_ID&lt;/u&gt;" style="ellipse;whiteSpace=wrap;html=1;" vertex="1" parent="x4CWHcI_3ok25Xr3Ort--1134">
          <mxGeometry x="20" y="112.5" width="80" height="30" as="geometry" />
        </mxCell>
        <mxCell id="x4CWHcI_3ok25Xr3Ort--1141" value="Material" style="ellipse;whiteSpace=wrap;html=1;" vertex="1" parent="x4CWHcI_3ok25Xr3Ort--1134">
          <mxGeometry x="265" y="30" width="80" height="30" as="geometry" />
        </mxCell>
        <mxCell id="x4CWHcI_3ok25Xr3Ort--1142" value="Syllabus" style="ellipse;whiteSpace=wrap;html=1;" vertex="1" parent="x4CWHcI_3ok25Xr3Ort--1134">
          <mxGeometry x="305" y="117.5" width="80" height="30" as="geometry" />
        </mxCell>
        <mxCell id="x4CWHcI_3ok25Xr3Ort--1143" value="Enrollment_capacity" style="ellipse;whiteSpace=wrap;html=1;" vertex="1" parent="x4CWHcI_3ok25Xr3Ort--1134">
          <mxGeometry x="280" y="72.5" width="120" height="30" as="geometry" />
        </mxCell>
        <mxCell id="x4CWHcI_3ok25Xr3Ort--1144" value="" style="endArrow=none;html=1;rounded=0;exitX=1;exitY=0.5;exitDx=0;exitDy=0;entryX=0;entryY=0.5;entryDx=0;entryDy=0;" edge="1" parent="x4CWHcI_3ok25Xr3Ort--1134" source="x4CWHcI_3ok25Xr3Ort--1140" target="x4CWHcI_3ok25Xr3Ort--1135">
          <mxGeometry width="50" height="50" relative="1" as="geometry">
            <mxPoint x="230" y="120" as="sourcePoint" />
            <mxPoint x="280" y="70" as="targetPoint" />
          </mxGeometry>
        </mxCell>
        <mxCell id="x4CWHcI_3ok25Xr3Ort--1145" value="" style="endArrow=none;html=1;rounded=0;exitX=1;exitY=1;exitDx=0;exitDy=0;entryX=0;entryY=0;entryDx=0;entryDy=0;" edge="1" parent="x4CWHcI_3ok25Xr3Ort--1134" source="x4CWHcI_3ok25Xr3Ort--1139" target="x4CWHcI_3ok25Xr3Ort--1135">
          <mxGeometry width="50" height="50" relative="1" as="geometry">
            <mxPoint x="230" y="120" as="sourcePoint" />
            <mxPoint x="280" y="70" as="targetPoint" />
          </mxGeometry>
        </mxCell>
        <mxCell id="x4CWHcI_3ok25Xr3Ort--1146" value="" style="endArrow=none;html=1;rounded=0;exitX=1;exitY=1;exitDx=0;exitDy=0;entryX=0.25;entryY=0;entryDx=0;entryDy=0;" edge="1" parent="x4CWHcI_3ok25Xr3Ort--1134" source="x4CWHcI_3ok25Xr3Ort--1138" target="x4CWHcI_3ok25Xr3Ort--1135">
          <mxGeometry width="50" height="50" relative="1" as="geometry">
            <mxPoint x="230" y="120" as="sourcePoint" />
            <mxPoint x="280" y="70" as="targetPoint" />
          </mxGeometry>
        </mxCell>
        <mxCell id="x4CWHcI_3ok25Xr3Ort--1147" value="" style="endArrow=none;html=1;rounded=0;exitX=1;exitY=0;exitDx=0;exitDy=0;entryX=0;entryY=0.5;entryDx=0;entryDy=0;" edge="1" parent="x4CWHcI_3ok25Xr3Ort--1134" source="x4CWHcI_3ok25Xr3Ort--1135" target="x4CWHcI_3ok25Xr3Ort--1143">
          <mxGeometry width="50" height="50" relative="1" as="geometry">
            <mxPoint x="230" y="120" as="sourcePoint" />
            <mxPoint x="280" y="70" as="targetPoint" />
          </mxGeometry>
        </mxCell>
        <mxCell id="x4CWHcI_3ok25Xr3Ort--1148" value="" style="endArrow=none;html=1;rounded=0;exitX=1;exitY=0.5;exitDx=0;exitDy=0;entryX=0;entryY=0.5;entryDx=0;entryDy=0;" edge="1" parent="x4CWHcI_3ok25Xr3Ort--1134" source="x4CWHcI_3ok25Xr3Ort--1135" target="x4CWHcI_3ok25Xr3Ort--1142">
          <mxGeometry width="50" height="50" relative="1" as="geometry">
            <mxPoint x="230" y="120" as="sourcePoint" />
            <mxPoint x="280" y="70" as="targetPoint" />
          </mxGeometry>
        </mxCell>
        <mxCell id="x4CWHcI_3ok25Xr3Ort--1149" value="&lt;b&gt;N&lt;/b&gt;" style="text;html=1;strokeColor=none;fillColor=none;align=center;verticalAlign=middle;whiteSpace=wrap;rounded=0;" vertex="1" parent="x4CWHcI_3ok25Xr3Ort--1134">
          <mxGeometry x="190" y="142.5" width="60" height="30" as="geometry" />
        </mxCell>
        <mxCell id="x4CWHcI_3ok25Xr3Ort--1150" value="&lt;b&gt;1&lt;/b&gt;" style="text;html=1;strokeColor=none;fillColor=none;align=center;verticalAlign=middle;whiteSpace=wrap;rounded=0;" vertex="1" parent="x4CWHcI_3ok25Xr3Ort--1134">
          <mxGeometry x="190" y="82.5" width="35" height="20" as="geometry" />
        </mxCell>
        <mxCell id="x4CWHcI_3ok25Xr3Ort--1151" value="" style="endArrow=none;html=1;rounded=0;entryX=0.5;entryY=0;entryDx=0;entryDy=0;" edge="1" parent="1" target="x4CWHcI_3ok25Xr3Ort--1109">
          <mxGeometry width="50" height="50" relative="1" as="geometry">
            <mxPoint x="-440" y="410" as="sourcePoint" />
            <mxPoint x="-340" y="560" as="targetPoint" />
          </mxGeometry>
        </mxCell>
        <mxCell id="x4CWHcI_3ok25Xr3Ort--1152" value="" style="group" vertex="1" connectable="0" parent="1">
          <mxGeometry x="385" y="-430" width="570" height="200" as="geometry" />
        </mxCell>
        <mxCell id="x4CWHcI_3ok25Xr3Ort--1153" value="Joining_Date" style="ellipse;whiteSpace=wrap;html=1;" vertex="1" parent="x4CWHcI_3ok25Xr3Ort--1152">
          <mxGeometry x="40" y="130" width="100" height="30" as="geometry" />
        </mxCell>
        <mxCell id="x4CWHcI_3ok25Xr3Ort--1154" value="DOB" style="ellipse;whiteSpace=wrap;html=1;" vertex="1" parent="x4CWHcI_3ok25Xr3Ort--1152">
          <mxGeometry x="385" y="70" width="100" height="30" as="geometry" />
        </mxCell>
        <mxCell id="x4CWHcI_3ok25Xr3Ort--1155" value="name" style="ellipse;whiteSpace=wrap;html=1;" vertex="1" parent="x4CWHcI_3ok25Xr3Ort--1152">
          <mxGeometry x="55" y="85" width="100" height="30" as="geometry" />
        </mxCell>
        <mxCell id="x4CWHcI_3ok25Xr3Ort--1156" value="Address" style="ellipse;whiteSpace=wrap;html=1;" vertex="1" parent="x4CWHcI_3ok25Xr3Ort--1152">
          <mxGeometry x="175" y="20" width="100" height="30" as="geometry" />
        </mxCell>
        <mxCell id="x4CWHcI_3ok25Xr3Ort--1157" value="ContactInfo" style="ellipse;whiteSpace=wrap;html=1;" vertex="1" parent="x4CWHcI_3ok25Xr3Ort--1152">
          <mxGeometry x="100" y="50" width="100" height="30" as="geometry" />
        </mxCell>
        <mxCell id="x4CWHcI_3ok25Xr3Ort--1158" value="&lt;u&gt;Staff_ID&lt;/u&gt;" style="ellipse;whiteSpace=wrap;html=1;" vertex="1" parent="x4CWHcI_3ok25Xr3Ort--1152">
          <mxGeometry x="40" y="170" width="100" height="30" as="geometry" />
        </mxCell>
        <mxCell id="x4CWHcI_3ok25Xr3Ort--1159" value="Empl_Status" style="ellipse;whiteSpace=wrap;html=1;" vertex="1" parent="x4CWHcI_3ok25Xr3Ort--1152">
          <mxGeometry x="395" y="110" width="100" height="30" as="geometry" />
        </mxCell>
        <mxCell id="x4CWHcI_3ok25Xr3Ort--1160" value="Salary" style="ellipse;whiteSpace=wrap;html=1;" vertex="1" parent="x4CWHcI_3ok25Xr3Ort--1152">
          <mxGeometry x="275" y="10" width="100" height="30" as="geometry" />
        </mxCell>
        <mxCell id="x4CWHcI_3ok25Xr3Ort--1161" value="Qualification" style="ellipse;whiteSpace=wrap;html=1;" vertex="1" parent="x4CWHcI_3ok25Xr3Ort--1152">
          <mxGeometry x="405" y="150" width="100" height="30" as="geometry" />
        </mxCell>
        <mxCell id="x4CWHcI_3ok25Xr3Ort--1162" value="Staff" style="rounded=0;whiteSpace=wrap;html=1;fillColor=#D4E1F5;" vertex="1" parent="x4CWHcI_3ok25Xr3Ort--1152">
          <mxGeometry x="215" y="170" width="120" height="30" as="geometry" />
        </mxCell>
        <mxCell id="x4CWHcI_3ok25Xr3Ort--1163" value="" style="endArrow=none;html=1;rounded=0;entryX=0;entryY=0.5;entryDx=0;entryDy=0;exitX=1;exitY=0.5;exitDx=0;exitDy=0;" edge="1" parent="x4CWHcI_3ok25Xr3Ort--1152" source="x4CWHcI_3ok25Xr3Ort--1158" target="x4CWHcI_3ok25Xr3Ort--1162">
          <mxGeometry width="50" height="50" relative="1" as="geometry">
            <mxPoint x="35" y="260" as="sourcePoint" />
            <mxPoint x="85" y="210" as="targetPoint" />
          </mxGeometry>
        </mxCell>
        <mxCell id="x4CWHcI_3ok25Xr3Ort--1164" value="" style="endArrow=none;html=1;rounded=0;entryX=0;entryY=0;entryDx=0;entryDy=0;exitX=1;exitY=0.5;exitDx=0;exitDy=0;" edge="1" parent="x4CWHcI_3ok25Xr3Ort--1152" source="x4CWHcI_3ok25Xr3Ort--1153" target="x4CWHcI_3ok25Xr3Ort--1162">
          <mxGeometry width="50" height="50" relative="1" as="geometry">
            <mxPoint x="35" y="260" as="sourcePoint" />
            <mxPoint x="85" y="210" as="targetPoint" />
          </mxGeometry>
        </mxCell>
        <mxCell id="x4CWHcI_3ok25Xr3Ort--1165" value="" style="endArrow=none;html=1;rounded=0;entryX=0.25;entryY=0;entryDx=0;entryDy=0;exitX=1;exitY=1;exitDx=0;exitDy=0;" edge="1" parent="x4CWHcI_3ok25Xr3Ort--1152" source="x4CWHcI_3ok25Xr3Ort--1157" target="x4CWHcI_3ok25Xr3Ort--1162">
          <mxGeometry width="50" height="50" relative="1" as="geometry">
            <mxPoint x="35" y="260" as="sourcePoint" />
            <mxPoint x="85" y="210" as="targetPoint" />
          </mxGeometry>
        </mxCell>
        <mxCell id="x4CWHcI_3ok25Xr3Ort--1166" value="" style="endArrow=none;html=1;rounded=0;exitX=0.5;exitY=1;exitDx=0;exitDy=0;" edge="1" parent="x4CWHcI_3ok25Xr3Ort--1152" source="x4CWHcI_3ok25Xr3Ort--1156" target="x4CWHcI_3ok25Xr3Ort--1162">
          <mxGeometry width="50" height="50" relative="1" as="geometry">
            <mxPoint x="35" y="260" as="sourcePoint" />
            <mxPoint x="85" y="210" as="targetPoint" />
          </mxGeometry>
        </mxCell>
        <mxCell id="x4CWHcI_3ok25Xr3Ort--1167" value="" style="endArrow=none;html=1;rounded=0;exitX=0.5;exitY=1;exitDx=0;exitDy=0;entryX=0.5;entryY=0;entryDx=0;entryDy=0;" edge="1" parent="x4CWHcI_3ok25Xr3Ort--1152" source="x4CWHcI_3ok25Xr3Ort--1160" target="x4CWHcI_3ok25Xr3Ort--1162">
          <mxGeometry width="50" height="50" relative="1" as="geometry">
            <mxPoint x="35" y="260" as="sourcePoint" />
            <mxPoint x="85" y="210" as="targetPoint" />
          </mxGeometry>
        </mxCell>
        <mxCell id="x4CWHcI_3ok25Xr3Ort--1168" value="" style="endArrow=none;html=1;rounded=0;exitX=0.272;exitY=1.022;exitDx=0;exitDy=0;exitPerimeter=0;entryX=0.68;entryY=0.048;entryDx=0;entryDy=0;entryPerimeter=0;" edge="1" parent="x4CWHcI_3ok25Xr3Ort--1152" source="x4CWHcI_3ok25Xr3Ort--1154" target="x4CWHcI_3ok25Xr3Ort--1162">
          <mxGeometry width="50" height="50" relative="1" as="geometry">
            <mxPoint x="35" y="260" as="sourcePoint" />
            <mxPoint x="85" y="210" as="targetPoint" />
          </mxGeometry>
        </mxCell>
        <mxCell id="x4CWHcI_3ok25Xr3Ort--1169" value="" style="endArrow=none;html=1;rounded=0;exitX=0;exitY=1;exitDx=0;exitDy=0;" edge="1" parent="x4CWHcI_3ok25Xr3Ort--1152" source="x4CWHcI_3ok25Xr3Ort--1159" target="x4CWHcI_3ok25Xr3Ort--1162">
          <mxGeometry width="50" height="50" relative="1" as="geometry">
            <mxPoint x="35" y="260" as="sourcePoint" />
            <mxPoint x="85" y="210" as="targetPoint" />
          </mxGeometry>
        </mxCell>
        <mxCell id="x4CWHcI_3ok25Xr3Ort--1170" value="Age" style="ellipse;whiteSpace=wrap;html=1;dashed=1;dashPattern=8 8;" vertex="1" parent="x4CWHcI_3ok25Xr3Ort--1152">
          <mxGeometry x="390" y="20" width="75" height="30" as="geometry" />
        </mxCell>
        <mxCell id="x4CWHcI_3ok25Xr3Ort--1171" value="Unit" style="ellipse;whiteSpace=wrap;html=1;" vertex="1" parent="x4CWHcI_3ok25Xr3Ort--1152">
          <mxGeometry x="122.5" y="-20" width="55" height="40" as="geometry" />
        </mxCell>
        <mxCell id="x4CWHcI_3ok25Xr3Ort--1172" value="" style="endArrow=none;html=1;rounded=0;exitX=0;exitY=0;exitDx=0;exitDy=0;entryX=1;entryY=1;entryDx=0;entryDy=0;" edge="1" parent="x4CWHcI_3ok25Xr3Ort--1152" source="x4CWHcI_3ok25Xr3Ort--1156" target="x4CWHcI_3ok25Xr3Ort--1171">
          <mxGeometry width="50" height="50" relative="1" as="geometry">
            <mxPoint x="55" y="190" as="sourcePoint" />
            <mxPoint x="105" y="140" as="targetPoint" />
          </mxGeometry>
        </mxCell>
        <mxCell id="x4CWHcI_3ok25Xr3Ort--1173" value="" style="endArrow=none;html=1;rounded=0;entryX=0.5;entryY=0;entryDx=0;entryDy=0;" edge="1" parent="1" target="x4CWHcI_3ok25Xr3Ort--1006">
          <mxGeometry width="50" height="50" relative="1" as="geometry">
            <mxPoint x="660" y="-230" as="sourcePoint" />
            <mxPoint x="700" y="-190" as="targetPoint" />
          </mxGeometry>
        </mxCell>
        <mxCell id="x4CWHcI_3ok25Xr3Ort--1174" value="" style="endArrow=none;html=1;rounded=0;exitX=0.5;exitY=1;exitDx=0;exitDy=0;" edge="1" parent="1" source="x4CWHcI_3ok25Xr3Ort--1006">
          <mxGeometry width="50" height="50" relative="1" as="geometry">
            <mxPoint x="650" y="-140" as="sourcePoint" />
            <mxPoint x="660" y="-10" as="targetPoint" />
          </mxGeometry>
        </mxCell>
        <mxCell id="x4CWHcI_3ok25Xr3Ort--1175" value="" style="endArrow=none;html=1;rounded=0;exitX=0.5;exitY=0;exitDx=0;exitDy=0;" edge="1" parent="1" source="x4CWHcI_3ok25Xr3Ort--987">
          <mxGeometry width="50" height="50" relative="1" as="geometry">
            <mxPoint x="630" y="80" as="sourcePoint" />
            <mxPoint x="660" y="20" as="targetPoint" />
          </mxGeometry>
        </mxCell>
        <mxCell id="x4CWHcI_3ok25Xr3Ort--1176" value="Teaches" style="rhombus;whiteSpace=wrap;html=1;fillColor=#FFB366;" vertex="1" parent="1">
          <mxGeometry x="1080" y="-185" width="80" height="50" as="geometry" />
        </mxCell>
        <mxCell id="x4CWHcI_3ok25Xr3Ort--1177" value="" style="endArrow=none;html=1;rounded=0;entryX=0.5;entryY=1;entryDx=0;entryDy=0;exitX=1;exitY=0;exitDx=0;exitDy=0;" edge="1" parent="1" target="x4CWHcI_3ok25Xr3Ort--1176" source="x4CWHcI_3ok25Xr3Ort--1359">
          <mxGeometry width="50" height="50" relative="1" as="geometry">
            <mxPoint x="680" y="-160" as="sourcePoint" />
            <mxPoint x="990" y="-180" as="targetPoint" />
            <Array as="points">
              <mxPoint x="710" y="-180" />
              <mxPoint x="710" y="-140" />
            </Array>
          </mxGeometry>
        </mxCell>
        <mxCell id="x4CWHcI_3ok25Xr3Ort--1178" value="" style="endArrow=none;html=1;rounded=0;exitX=0.5;exitY=0;exitDx=0;exitDy=0;" edge="1" parent="1" source="x4CWHcI_3ok25Xr3Ort--1176">
          <mxGeometry width="50" height="50" relative="1" as="geometry">
            <mxPoint x="940" y="-130" as="sourcePoint" />
            <mxPoint x="1120" y="-210" as="targetPoint" />
          </mxGeometry>
        </mxCell>
        <mxCell id="x4CWHcI_3ok25Xr3Ort--1179" value="" style="group" vertex="1" connectable="0" parent="1">
          <mxGeometry x="1340" y="-330" width="490" height="220" as="geometry" />
        </mxCell>
        <mxCell id="x4CWHcI_3ok25Xr3Ort--1180" value="News and events" style="rounded=0;whiteSpace=wrap;html=1;fillColor=#D4E1F5;" vertex="1" parent="x4CWHcI_3ok25Xr3Ort--1179">
          <mxGeometry x="190" y="160" width="120" height="30" as="geometry" />
        </mxCell>
        <mxCell id="x4CWHcI_3ok25Xr3Ort--1181" value="ContactInfo" style="ellipse;whiteSpace=wrap;html=1;" vertex="1" parent="x4CWHcI_3ok25Xr3Ort--1179">
          <mxGeometry x="120" width="80" height="30" as="geometry" />
        </mxCell>
        <mxCell id="x4CWHcI_3ok25Xr3Ort--1182" value="Schedule" style="ellipse;whiteSpace=wrap;html=1;" vertex="1" parent="x4CWHcI_3ok25Xr3Ort--1179">
          <mxGeometry x="60" y="40" width="80" height="30" as="geometry" />
        </mxCell>
        <mxCell id="x4CWHcI_3ok25Xr3Ort--1183" value="Description" style="ellipse;whiteSpace=wrap;html=1;" vertex="1" parent="x4CWHcI_3ok25Xr3Ort--1179">
          <mxGeometry x="20" y="80" width="80" height="30" as="geometry" />
        </mxCell>
        <mxCell id="x4CWHcI_3ok25Xr3Ort--1184" value="Title" style="ellipse;whiteSpace=wrap;html=1;" vertex="1" parent="x4CWHcI_3ok25Xr3Ort--1179">
          <mxGeometry x="10" y="120" width="80" height="30" as="geometry" />
        </mxCell>
        <mxCell id="x4CWHcI_3ok25Xr3Ort--1185" value="&lt;u&gt;News_ID&lt;/u&gt;" style="ellipse;whiteSpace=wrap;html=1;" vertex="1" parent="x4CWHcI_3ok25Xr3Ort--1179">
          <mxGeometry y="160" width="80" height="30" as="geometry" />
        </mxCell>
        <mxCell id="x4CWHcI_3ok25Xr3Ort--1186" value="Category" style="ellipse;whiteSpace=wrap;html=1;" vertex="1" parent="x4CWHcI_3ok25Xr3Ort--1179">
          <mxGeometry x="370" y="40" width="80" height="30" as="geometry" />
        </mxCell>
        <mxCell id="x4CWHcI_3ok25Xr3Ort--1187" value="Organizer" style="ellipse;whiteSpace=wrap;html=1;" vertex="1" parent="x4CWHcI_3ok25Xr3Ort--1179">
          <mxGeometry x="300" y="10" width="80" height="30" as="geometry" />
        </mxCell>
        <mxCell id="x4CWHcI_3ok25Xr3Ort--1188" value="Address" style="ellipse;whiteSpace=wrap;html=1;" vertex="1" parent="x4CWHcI_3ok25Xr3Ort--1179">
          <mxGeometry x="210" width="80" height="30" as="geometry" />
        </mxCell>
        <mxCell id="x4CWHcI_3ok25Xr3Ort--1189" value="Images" style="ellipse;whiteSpace=wrap;html=1;" vertex="1" parent="x4CWHcI_3ok25Xr3Ort--1179">
          <mxGeometry x="400" y="80" width="80" height="30" as="geometry" />
        </mxCell>
        <mxCell id="x4CWHcI_3ok25Xr3Ort--1190" value="Status" style="ellipse;whiteSpace=wrap;html=1;" vertex="1" parent="x4CWHcI_3ok25Xr3Ort--1179">
          <mxGeometry x="410" y="130" width="80" height="30" as="geometry" />
        </mxCell>
        <mxCell id="x4CWHcI_3ok25Xr3Ort--1191" value="Link" style="ellipse;whiteSpace=wrap;html=1;" vertex="1" parent="x4CWHcI_3ok25Xr3Ort--1179">
          <mxGeometry x="410" y="170" width="80" height="30" as="geometry" />
        </mxCell>
        <mxCell id="x4CWHcI_3ok25Xr3Ort--1192" value="" style="endArrow=none;html=1;rounded=0;entryX=0;entryY=0.5;entryDx=0;entryDy=0;exitX=1;exitY=0.5;exitDx=0;exitDy=0;" edge="1" parent="x4CWHcI_3ok25Xr3Ort--1179" source="x4CWHcI_3ok25Xr3Ort--1185" target="x4CWHcI_3ok25Xr3Ort--1180">
          <mxGeometry width="50" height="50" relative="1" as="geometry">
            <mxPoint x="-10" y="280" as="sourcePoint" />
            <mxPoint x="40" y="230" as="targetPoint" />
          </mxGeometry>
        </mxCell>
        <mxCell id="x4CWHcI_3ok25Xr3Ort--1193" value="" style="endArrow=none;html=1;rounded=0;exitX=0;exitY=0.25;exitDx=0;exitDy=0;entryX=0.951;entryY=0.671;entryDx=0;entryDy=0;entryPerimeter=0;" edge="1" parent="x4CWHcI_3ok25Xr3Ort--1179" source="x4CWHcI_3ok25Xr3Ort--1180" target="x4CWHcI_3ok25Xr3Ort--1184">
          <mxGeometry width="50" height="50" relative="1" as="geometry">
            <mxPoint x="180" y="160" as="sourcePoint" />
            <mxPoint x="100" y="110" as="targetPoint" />
          </mxGeometry>
        </mxCell>
        <mxCell id="x4CWHcI_3ok25Xr3Ort--1194" value="" style="endArrow=none;html=1;rounded=0;exitX=0.873;exitY=0.006;exitDx=0;exitDy=0;exitPerimeter=0;entryX=0;entryY=1;entryDx=0;entryDy=0;" edge="1" parent="x4CWHcI_3ok25Xr3Ort--1179" source="x4CWHcI_3ok25Xr3Ort--1180" target="x4CWHcI_3ok25Xr3Ort--1189">
          <mxGeometry width="50" height="50" relative="1" as="geometry">
            <mxPoint x="170" y="120" as="sourcePoint" />
            <mxPoint x="220" y="70" as="targetPoint" />
          </mxGeometry>
        </mxCell>
        <mxCell id="x4CWHcI_3ok25Xr3Ort--1195" value="" style="endArrow=none;html=1;rounded=0;exitX=1;exitY=0;exitDx=0;exitDy=0;" edge="1" parent="x4CWHcI_3ok25Xr3Ort--1179" source="x4CWHcI_3ok25Xr3Ort--1180" target="x4CWHcI_3ok25Xr3Ort--1190">
          <mxGeometry width="50" height="50" relative="1" as="geometry">
            <mxPoint x="350" y="160" as="sourcePoint" />
            <mxPoint x="400" y="110" as="targetPoint" />
          </mxGeometry>
        </mxCell>
        <mxCell id="x4CWHcI_3ok25Xr3Ort--1196" value="" style="endArrow=none;html=1;rounded=0;exitX=1;exitY=0.5;exitDx=0;exitDy=0;entryX=0;entryY=0.5;entryDx=0;entryDy=0;" edge="1" parent="x4CWHcI_3ok25Xr3Ort--1179" source="x4CWHcI_3ok25Xr3Ort--1180" target="x4CWHcI_3ok25Xr3Ort--1191">
          <mxGeometry width="50" height="50" relative="1" as="geometry">
            <mxPoint x="350" y="160" as="sourcePoint" />
            <mxPoint x="400" y="110" as="targetPoint" />
          </mxGeometry>
        </mxCell>
        <mxCell id="x4CWHcI_3ok25Xr3Ort--1197" value="&lt;b&gt;N&lt;/b&gt;" style="text;html=1;strokeColor=none;fillColor=none;align=center;verticalAlign=middle;whiteSpace=wrap;rounded=0;" vertex="1" parent="x4CWHcI_3ok25Xr3Ort--1179">
          <mxGeometry x="200" y="190" width="60" height="30" as="geometry" />
        </mxCell>
        <mxCell id="x4CWHcI_3ok25Xr3Ort--1198" value="Announces" style="rhombus;whiteSpace=wrap;html=1;fillColor=#FFB366;" vertex="1" parent="1">
          <mxGeometry x="1275" y="-130" width="105" height="60" as="geometry" />
        </mxCell>
        <mxCell id="x4CWHcI_3ok25Xr3Ort--1199" value="" style="endArrow=none;html=1;rounded=0;exitX=1;exitY=0;exitDx=0;exitDy=0;" edge="1" parent="1" source="x4CWHcI_3ok25Xr3Ort--998">
          <mxGeometry width="50" height="50" relative="1" as="geometry">
            <mxPoint x="1100" y="-130" as="sourcePoint" />
            <mxPoint x="1280" y="-100" as="targetPoint" />
          </mxGeometry>
        </mxCell>
        <mxCell id="x4CWHcI_3ok25Xr3Ort--1200" value="" style="endArrow=none;html=1;rounded=0;exitX=1;exitY=0.5;exitDx=0;exitDy=0;entryX=0.5;entryY=1;entryDx=0;entryDy=0;" edge="1" parent="1" source="x4CWHcI_3ok25Xr3Ort--1198" target="x4CWHcI_3ok25Xr3Ort--1180">
          <mxGeometry width="50" height="50" relative="1" as="geometry">
            <mxPoint x="1390" y="-160" as="sourcePoint" />
            <mxPoint x="1440" y="-210" as="targetPoint" />
            <Array as="points">
              <mxPoint x="1590" y="-100" />
            </Array>
          </mxGeometry>
        </mxCell>
        <mxCell id="x4CWHcI_3ok25Xr3Ort--1201" value="" style="group" vertex="1" connectable="0" parent="1">
          <mxGeometry y="-350" width="390" height="130" as="geometry" />
        </mxCell>
        <mxCell id="x4CWHcI_3ok25Xr3Ort--1202" value="Scholarships" style="rounded=0;whiteSpace=wrap;html=1;fillColor=#D4E1F5;" vertex="1" parent="x4CWHcI_3ok25Xr3Ort--1201">
          <mxGeometry x="140" y="100" width="120" height="30" as="geometry" />
        </mxCell>
        <mxCell id="x4CWHcI_3ok25Xr3Ort--1203" value="Name" style="ellipse;whiteSpace=wrap;html=1;" vertex="1" parent="x4CWHcI_3ok25Xr3Ort--1201">
          <mxGeometry x="30" y="50" width="80" height="30" as="geometry" />
        </mxCell>
        <mxCell id="x4CWHcI_3ok25Xr3Ort--1204" value="&lt;u&gt;Scholarship_ID&lt;/u&gt;" style="ellipse;whiteSpace=wrap;html=1;" vertex="1" parent="x4CWHcI_3ok25Xr3Ort--1201">
          <mxGeometry x="-10" y="110" width="110" height="40" as="geometry" />
        </mxCell>
        <mxCell id="x4CWHcI_3ok25Xr3Ort--1205" value="Description" style="ellipse;whiteSpace=wrap;html=1;" vertex="1" parent="x4CWHcI_3ok25Xr3Ort--1201">
          <mxGeometry x="60" y="10" width="80" height="30" as="geometry" />
        </mxCell>
        <mxCell id="x4CWHcI_3ok25Xr3Ort--1206" value="Provider" style="ellipse;whiteSpace=wrap;html=1;" vertex="1" parent="x4CWHcI_3ok25Xr3Ort--1201">
          <mxGeometry x="310" y="100" width="80" height="30" as="geometry" />
        </mxCell>
        <mxCell id="x4CWHcI_3ok25Xr3Ort--1207" value="Amount" style="ellipse;whiteSpace=wrap;html=1;" vertex="1" parent="x4CWHcI_3ok25Xr3Ort--1201">
          <mxGeometry x="130" y="-10" width="80" height="30" as="geometry" />
        </mxCell>
        <mxCell id="x4CWHcI_3ok25Xr3Ort--1208" value="Deadline" style="ellipse;whiteSpace=wrap;html=1;" vertex="1" parent="x4CWHcI_3ok25Xr3Ort--1201">
          <mxGeometry x="210" width="80" height="30" as="geometry" />
        </mxCell>
        <mxCell id="x4CWHcI_3ok25Xr3Ort--1209" value="Duration" style="ellipse;whiteSpace=wrap;html=1;" vertex="1" parent="x4CWHcI_3ok25Xr3Ort--1201">
          <mxGeometry x="270" y="30" width="80" height="30" as="geometry" />
        </mxCell>
        <mxCell id="x4CWHcI_3ok25Xr3Ort--1210" value="URL" style="ellipse;whiteSpace=wrap;html=1;" vertex="1" parent="x4CWHcI_3ok25Xr3Ort--1201">
          <mxGeometry x="310" y="60" width="80" height="30" as="geometry" />
        </mxCell>
        <mxCell id="x4CWHcI_3ok25Xr3Ort--1211" value="" style="endArrow=none;html=1;rounded=0;exitX=1;exitY=0.5;exitDx=0;exitDy=0;entryX=0;entryY=0.5;entryDx=0;entryDy=0;" edge="1" parent="x4CWHcI_3ok25Xr3Ort--1201" source="x4CWHcI_3ok25Xr3Ort--1204" target="x4CWHcI_3ok25Xr3Ort--1202">
          <mxGeometry width="50" height="50" relative="1" as="geometry">
            <mxPoint x="170" y="140" as="sourcePoint" />
            <mxPoint x="220" y="90" as="targetPoint" />
          </mxGeometry>
        </mxCell>
        <mxCell id="x4CWHcI_3ok25Xr3Ort--1212" value="" style="endArrow=none;html=1;rounded=0;exitX=1;exitY=1;exitDx=0;exitDy=0;entryX=0;entryY=0;entryDx=0;entryDy=0;" edge="1" parent="x4CWHcI_3ok25Xr3Ort--1201" source="x4CWHcI_3ok25Xr3Ort--1203" target="x4CWHcI_3ok25Xr3Ort--1202">
          <mxGeometry width="50" height="50" relative="1" as="geometry">
            <mxPoint x="170" y="140" as="sourcePoint" />
            <mxPoint x="220" y="90" as="targetPoint" />
          </mxGeometry>
        </mxCell>
        <mxCell id="x4CWHcI_3ok25Xr3Ort--1213" value="" style="endArrow=none;html=1;rounded=0;exitX=1;exitY=1;exitDx=0;exitDy=0;entryX=0.117;entryY=0.03;entryDx=0;entryDy=0;entryPerimeter=0;" edge="1" parent="x4CWHcI_3ok25Xr3Ort--1201" source="x4CWHcI_3ok25Xr3Ort--1205" target="x4CWHcI_3ok25Xr3Ort--1202">
          <mxGeometry width="50" height="50" relative="1" as="geometry">
            <mxPoint x="170" y="140" as="sourcePoint" />
            <mxPoint x="220" y="90" as="targetPoint" />
          </mxGeometry>
        </mxCell>
        <mxCell id="x4CWHcI_3ok25Xr3Ort--1214" value="" style="endArrow=none;html=1;rounded=0;exitX=0.055;exitY=0.832;exitDx=0;exitDy=0;exitPerimeter=0;entryX=0.5;entryY=0;entryDx=0;entryDy=0;" edge="1" parent="x4CWHcI_3ok25Xr3Ort--1201" source="x4CWHcI_3ok25Xr3Ort--1209" target="x4CWHcI_3ok25Xr3Ort--1202">
          <mxGeometry width="50" height="50" relative="1" as="geometry">
            <mxPoint x="170" y="140" as="sourcePoint" />
            <mxPoint x="220" y="90" as="targetPoint" />
          </mxGeometry>
        </mxCell>
        <mxCell id="x4CWHcI_3ok25Xr3Ort--1215" value="" style="endArrow=none;html=1;rounded=0;exitX=0;exitY=0.5;exitDx=0;exitDy=0;entryX=0.626;entryY=-0.028;entryDx=0;entryDy=0;entryPerimeter=0;" edge="1" parent="x4CWHcI_3ok25Xr3Ort--1201" source="x4CWHcI_3ok25Xr3Ort--1210" target="x4CWHcI_3ok25Xr3Ort--1202">
          <mxGeometry width="50" height="50" relative="1" as="geometry">
            <mxPoint x="170" y="140" as="sourcePoint" />
            <mxPoint x="220" y="90" as="targetPoint" />
          </mxGeometry>
        </mxCell>
        <mxCell id="x4CWHcI_3ok25Xr3Ort--1216" value="Provides&amp;nbsp;" style="rhombus;whiteSpace=wrap;html=1;fillColor=#FFB366;" vertex="1" parent="1">
          <mxGeometry x="160" y="-180" width="100" height="80" as="geometry" />
        </mxCell>
        <mxCell id="x4CWHcI_3ok25Xr3Ort--1217" value="" style="endArrow=none;html=1;rounded=0;exitX=1;exitY=0.5;exitDx=0;exitDy=0;" edge="1" parent="1" source="x4CWHcI_3ok25Xr3Ort--1216">
          <mxGeometry width="50" height="50" relative="1" as="geometry">
            <mxPoint x="330" y="-90" as="sourcePoint" />
            <mxPoint x="600" y="-230" as="targetPoint" />
          </mxGeometry>
        </mxCell>
        <mxCell id="x4CWHcI_3ok25Xr3Ort--1218" value="" style="endArrow=none;html=1;rounded=0;entryX=0.5;entryY=0;entryDx=0;entryDy=0;" edge="1" parent="1" target="x4CWHcI_3ok25Xr3Ort--1216">
          <mxGeometry width="50" height="50" relative="1" as="geometry">
            <mxPoint x="210" y="-220" as="sourcePoint" />
            <mxPoint x="380" y="-140" as="targetPoint" />
          </mxGeometry>
        </mxCell>
        <mxCell id="x4CWHcI_3ok25Xr3Ort--1219" value="" style="group" vertex="1" connectable="0" parent="1">
          <mxGeometry x="-400" y="-490" width="470" height="160" as="geometry" />
        </mxCell>
        <mxCell id="x4CWHcI_3ok25Xr3Ort--1220" value="Admissions" style="rounded=0;whiteSpace=wrap;html=1;fillColor=#D4E1F5;" vertex="1" parent="x4CWHcI_3ok25Xr3Ort--1219">
          <mxGeometry x="180" y="120" width="120" height="30" as="geometry" />
        </mxCell>
        <mxCell id="x4CWHcI_3ok25Xr3Ort--1221" value="&lt;u&gt;Admission_ID&lt;/u&gt;" style="ellipse;whiteSpace=wrap;html=1;" vertex="1" parent="x4CWHcI_3ok25Xr3Ort--1219">
          <mxGeometry x="10" y="120" width="90" height="40" as="geometry" />
        </mxCell>
        <mxCell id="x4CWHcI_3ok25Xr3Ort--1222" value="LOR" style="ellipse;whiteSpace=wrap;html=1;" vertex="1" parent="x4CWHcI_3ok25Xr3Ort--1219">
          <mxGeometry x="320" y="5" width="80" height="30" as="geometry" />
        </mxCell>
        <mxCell id="x4CWHcI_3ok25Xr3Ort--1223" value="Application_fees" style="ellipse;whiteSpace=wrap;html=1;" vertex="1" parent="x4CWHcI_3ok25Xr3Ort--1219">
          <mxGeometry x="370" y="125" width="100" height="30" as="geometry" />
        </mxCell>
        <mxCell id="x4CWHcI_3ok25Xr3Ort--1224" value="Portfolio" style="ellipse;whiteSpace=wrap;html=1;" vertex="1" parent="x4CWHcI_3ok25Xr3Ort--1219">
          <mxGeometry x="380" y="85" width="80" height="30" as="geometry" />
        </mxCell>
        <mxCell id="x4CWHcI_3ok25Xr3Ort--1225" value="Resume" style="ellipse;whiteSpace=wrap;html=1;" vertex="1" parent="x4CWHcI_3ok25Xr3Ort--1219">
          <mxGeometry x="355" y="45" width="80" height="30" as="geometry" />
        </mxCell>
        <mxCell id="x4CWHcI_3ok25Xr3Ort--1226" value="Application_type" style="ellipse;whiteSpace=wrap;html=1;" vertex="1" parent="x4CWHcI_3ok25Xr3Ort--1219">
          <mxGeometry x="200" width="110" height="40" as="geometry" />
        </mxCell>
        <mxCell id="x4CWHcI_3ok25Xr3Ort--1227" value="Status" style="ellipse;whiteSpace=wrap;html=1;" vertex="1" parent="x4CWHcI_3ok25Xr3Ort--1219">
          <mxGeometry x="110" y="5" width="80" height="30" as="geometry" />
        </mxCell>
        <mxCell id="x4CWHcI_3ok25Xr3Ort--1228" value="Date" style="ellipse;whiteSpace=wrap;html=1;" vertex="1" parent="x4CWHcI_3ok25Xr3Ort--1219">
          <mxGeometry x="50" y="35" width="80" height="30" as="geometry" />
        </mxCell>
        <mxCell id="x4CWHcI_3ok25Xr3Ort--1229" value="Name_of_applicant" style="ellipse;whiteSpace=wrap;html=1;" vertex="1" parent="x4CWHcI_3ok25Xr3Ort--1219">
          <mxGeometry y="75" width="130" height="30" as="geometry" />
        </mxCell>
        <mxCell id="x4CWHcI_3ok25Xr3Ort--1230" value="" style="endArrow=none;html=1;rounded=0;exitX=1;exitY=0.5;exitDx=0;exitDy=0;entryX=0;entryY=0.25;entryDx=0;entryDy=0;" edge="1" parent="x4CWHcI_3ok25Xr3Ort--1219" source="x4CWHcI_3ok25Xr3Ort--1229" target="x4CWHcI_3ok25Xr3Ort--1220">
          <mxGeometry width="50" height="50" relative="1" as="geometry">
            <mxPoint x="410" y="310" as="sourcePoint" />
            <mxPoint x="460" y="260" as="targetPoint" />
          </mxGeometry>
        </mxCell>
        <mxCell id="x4CWHcI_3ok25Xr3Ort--1231" value="" style="endArrow=none;html=1;rounded=0;exitX=1;exitY=1;exitDx=0;exitDy=0;entryX=0;entryY=0;entryDx=0;entryDy=0;" edge="1" parent="x4CWHcI_3ok25Xr3Ort--1219" source="x4CWHcI_3ok25Xr3Ort--1228" target="x4CWHcI_3ok25Xr3Ort--1220">
          <mxGeometry width="50" height="50" relative="1" as="geometry">
            <mxPoint x="410" y="310" as="sourcePoint" />
            <mxPoint x="460" y="260" as="targetPoint" />
          </mxGeometry>
        </mxCell>
        <mxCell id="x4CWHcI_3ok25Xr3Ort--1232" value="" style="endArrow=none;html=1;rounded=0;exitX=0.695;exitY=0.98;exitDx=0;exitDy=0;exitPerimeter=0;entryX=0.25;entryY=0;entryDx=0;entryDy=0;" edge="1" parent="x4CWHcI_3ok25Xr3Ort--1219" source="x4CWHcI_3ok25Xr3Ort--1227" target="x4CWHcI_3ok25Xr3Ort--1220">
          <mxGeometry width="50" height="50" relative="1" as="geometry">
            <mxPoint x="410" y="310" as="sourcePoint" />
            <mxPoint x="460" y="260" as="targetPoint" />
          </mxGeometry>
        </mxCell>
        <mxCell id="x4CWHcI_3ok25Xr3Ort--1233" value="" style="endArrow=none;html=1;rounded=0;exitX=0.356;exitY=0.94;exitDx=0;exitDy=0;exitPerimeter=0;entryX=0.5;entryY=0;entryDx=0;entryDy=0;" edge="1" parent="x4CWHcI_3ok25Xr3Ort--1219" source="x4CWHcI_3ok25Xr3Ort--1226" target="x4CWHcI_3ok25Xr3Ort--1220">
          <mxGeometry width="50" height="50" relative="1" as="geometry">
            <mxPoint x="410" y="310" as="sourcePoint" />
            <mxPoint x="460" y="260" as="targetPoint" />
          </mxGeometry>
        </mxCell>
        <mxCell id="x4CWHcI_3ok25Xr3Ort--1234" value="" style="endArrow=none;html=1;rounded=0;exitX=0;exitY=1;exitDx=0;exitDy=0;entryX=0.75;entryY=0;entryDx=0;entryDy=0;" edge="1" parent="x4CWHcI_3ok25Xr3Ort--1219" source="x4CWHcI_3ok25Xr3Ort--1222" target="x4CWHcI_3ok25Xr3Ort--1220">
          <mxGeometry width="50" height="50" relative="1" as="geometry">
            <mxPoint x="410" y="310" as="sourcePoint" />
            <mxPoint x="460" y="260" as="targetPoint" />
          </mxGeometry>
        </mxCell>
        <mxCell id="x4CWHcI_3ok25Xr3Ort--1235" value="" style="endArrow=none;html=1;rounded=0;exitX=0;exitY=1;exitDx=0;exitDy=0;entryX=0.893;entryY=0.027;entryDx=0;entryDy=0;entryPerimeter=0;" edge="1" parent="x4CWHcI_3ok25Xr3Ort--1219" source="x4CWHcI_3ok25Xr3Ort--1225" target="x4CWHcI_3ok25Xr3Ort--1220">
          <mxGeometry width="50" height="50" relative="1" as="geometry">
            <mxPoint x="410" y="310" as="sourcePoint" />
            <mxPoint x="460" y="260" as="targetPoint" />
          </mxGeometry>
        </mxCell>
        <mxCell id="x4CWHcI_3ok25Xr3Ort--1236" value="" style="endArrow=none;html=1;rounded=0;exitX=0;exitY=1;exitDx=0;exitDy=0;entryX=1;entryY=0.25;entryDx=0;entryDy=0;" edge="1" parent="x4CWHcI_3ok25Xr3Ort--1219" source="x4CWHcI_3ok25Xr3Ort--1224" target="x4CWHcI_3ok25Xr3Ort--1220">
          <mxGeometry width="50" height="50" relative="1" as="geometry">
            <mxPoint x="410" y="310" as="sourcePoint" />
            <mxPoint x="460" y="260" as="targetPoint" />
          </mxGeometry>
        </mxCell>
        <mxCell id="x4CWHcI_3ok25Xr3Ort--1237" value="" style="endArrow=none;html=1;rounded=0;exitX=1;exitY=0.5;exitDx=0;exitDy=0;entryX=0;entryY=0.5;entryDx=0;entryDy=0;" edge="1" parent="x4CWHcI_3ok25Xr3Ort--1219" source="x4CWHcI_3ok25Xr3Ort--1220" target="x4CWHcI_3ok25Xr3Ort--1223">
          <mxGeometry width="50" height="50" relative="1" as="geometry">
            <mxPoint x="410" y="310" as="sourcePoint" />
            <mxPoint x="460" y="260" as="targetPoint" />
          </mxGeometry>
        </mxCell>
        <mxCell id="x4CWHcI_3ok25Xr3Ort--1238" value="" style="endArrow=none;html=1;rounded=0;entryX=0;entryY=0.5;entryDx=0;entryDy=0;exitX=1;exitY=0.5;exitDx=0;exitDy=0;" edge="1" parent="1" source="x4CWHcI_3ok25Xr3Ort--1239" target="x4CWHcI_3ok25Xr3Ort--998">
          <mxGeometry width="50" height="50" relative="1" as="geometry">
            <mxPoint x="-100" y="5" as="sourcePoint" />
            <mxPoint x="420" y="40" as="targetPoint" />
          </mxGeometry>
        </mxCell>
        <mxCell id="x4CWHcI_3ok25Xr3Ort--1239" value="Belongs to" style="rhombus;whiteSpace=wrap;html=1;fillColor=#FFB366;" vertex="1" parent="1">
          <mxGeometry x="-200" y="-35" width="80" height="80" as="geometry" />
        </mxCell>
        <mxCell id="x4CWHcI_3ok25Xr3Ort--1240" value="" style="endArrow=none;html=1;rounded=0;entryX=0.5;entryY=0;entryDx=0;entryDy=0;" edge="1" parent="1" target="x4CWHcI_3ok25Xr3Ort--1239">
          <mxGeometry width="50" height="50" relative="1" as="geometry">
            <mxPoint x="-160" y="-100" as="sourcePoint" />
            <mxPoint x="90" y="40" as="targetPoint" />
          </mxGeometry>
        </mxCell>
        <mxCell id="x4CWHcI_3ok25Xr3Ort--1241" value="" style="endArrow=none;html=1;rounded=0;exitX=0.75;exitY=1;exitDx=0;exitDy=0;" edge="1" parent="1" source="x4CWHcI_3ok25Xr3Ort--916">
          <mxGeometry width="50" height="50" relative="1" as="geometry">
            <mxPoint x="850" y="770" as="sourcePoint" />
            <mxPoint x="904.8148148148148" y="665.1851851851852" as="targetPoint" />
          </mxGeometry>
        </mxCell>
        <mxCell id="x4CWHcI_3ok25Xr3Ort--1242" value="" style="endArrow=none;html=1;rounded=0;entryX=0.5;entryY=0;entryDx=0;entryDy=0;exitX=0.5;exitY=1;exitDx=0;exitDy=0;" edge="1" parent="1" source="x4CWHcI_3ok25Xr3Ort--1247" target="x4CWHcI_3ok25Xr3Ort--1135">
          <mxGeometry width="50" height="50" relative="1" as="geometry">
            <mxPoint x="1200" y="-410" as="sourcePoint" />
            <mxPoint x="930" y="-80" as="targetPoint" />
          </mxGeometry>
        </mxCell>
        <mxCell id="x4CWHcI_3ok25Xr3Ort--1243" value="has" style="rhombus;whiteSpace=wrap;html=1;fillColor=#FFB366;" vertex="1" parent="1">
          <mxGeometry x="350" y="770" width="80" height="80" as="geometry" />
        </mxCell>
        <mxCell id="x4CWHcI_3ok25Xr3Ort--1244" value="" style="endArrow=none;html=1;rounded=0;exitX=0.5;exitY=0;exitDx=0;exitDy=0;entryX=0.5;entryY=1;entryDx=0;entryDy=0;" edge="1" parent="1" source="x4CWHcI_3ok25Xr3Ort--1243" target="x4CWHcI_3ok25Xr3Ort--915">
          <mxGeometry width="50" height="50" relative="1" as="geometry">
            <mxPoint x="360" y="720" as="sourcePoint" />
            <mxPoint x="410" y="670" as="targetPoint" />
          </mxGeometry>
        </mxCell>
        <mxCell id="x4CWHcI_3ok25Xr3Ort--1245" value="" style="endArrow=none;html=1;rounded=0;exitX=0;exitY=0.75;exitDx=0;exitDy=0;" edge="1" parent="1" source="x4CWHcI_3ok25Xr3Ort--1022">
          <mxGeometry width="50" height="50" relative="1" as="geometry">
            <mxPoint x="360" y="720" as="sourcePoint" />
            <mxPoint x="430" y="810" as="targetPoint" />
          </mxGeometry>
        </mxCell>
        <mxCell id="x4CWHcI_3ok25Xr3Ort--1246" value="" style="group" vertex="1" connectable="0" parent="1">
          <mxGeometry x="915" y="-620" width="405" height="220" as="geometry" />
        </mxCell>
        <mxCell id="x4CWHcI_3ok25Xr3Ort--1247" value="has" style="rhombus;whiteSpace=wrap;html=1;fillColor=#FFB366;strokeColor=#d79b00;" vertex="1" parent="x4CWHcI_3ok25Xr3Ort--1246">
          <mxGeometry x="162.5" y="160" width="80" height="60" as="geometry" />
        </mxCell>
        <mxCell id="x4CWHcI_3ok25Xr3Ort--1248" value="" style="group" vertex="1" connectable="0" parent="x4CWHcI_3ok25Xr3Ort--1246">
          <mxGeometry width="405" height="130" as="geometry" />
        </mxCell>
        <mxCell id="x4CWHcI_3ok25Xr3Ort--1249" value="Fees" style="rounded=0;whiteSpace=wrap;html=1;fillColor=#D4E1F5;" vertex="1" parent="x4CWHcI_3ok25Xr3Ort--1248">
          <mxGeometry x="145" y="100" width="120" height="30" as="geometry" />
        </mxCell>
        <mxCell id="x4CWHcI_3ok25Xr3Ort--1250" value="Late_fee_penalty" style="ellipse;whiteSpace=wrap;html=1;" vertex="1" parent="x4CWHcI_3ok25Xr3Ort--1248">
          <mxGeometry x="265" y="20" width="120" height="30" as="geometry" />
        </mxCell>
        <mxCell id="x4CWHcI_3ok25Xr3Ort--1251" value="Currency" style="ellipse;whiteSpace=wrap;html=1;" vertex="1" parent="x4CWHcI_3ok25Xr3Ort--1248">
          <mxGeometry x="185" width="80" height="30" as="geometry" />
        </mxCell>
        <mxCell id="x4CWHcI_3ok25Xr3Ort--1252" value="Amount" style="ellipse;whiteSpace=wrap;html=1;" vertex="1" parent="x4CWHcI_3ok25Xr3Ort--1248">
          <mxGeometry x="95" width="80" height="30" as="geometry" />
        </mxCell>
        <mxCell id="x4CWHcI_3ok25Xr3Ort--1253" value="Desc" style="ellipse;whiteSpace=wrap;html=1;" vertex="1" parent="x4CWHcI_3ok25Xr3Ort--1248">
          <mxGeometry x="25" y="40" width="80" height="30" as="geometry" />
        </mxCell>
        <mxCell id="x4CWHcI_3ok25Xr3Ort--1254" value="&lt;u&gt;Fees_ID&lt;/u&gt;" style="ellipse;whiteSpace=wrap;html=1;" vertex="1" parent="x4CWHcI_3ok25Xr3Ort--1248">
          <mxGeometry y="90" width="80" height="30" as="geometry" />
        </mxCell>
        <mxCell id="x4CWHcI_3ok25Xr3Ort--1255" value="T&amp;amp;C" style="ellipse;whiteSpace=wrap;html=1;" vertex="1" parent="x4CWHcI_3ok25Xr3Ort--1248">
          <mxGeometry x="325" y="100" width="80" height="30" as="geometry" />
        </mxCell>
        <mxCell id="x4CWHcI_3ok25Xr3Ort--1256" value="Fees_status" style="ellipse;whiteSpace=wrap;html=1;" vertex="1" parent="x4CWHcI_3ok25Xr3Ort--1248">
          <mxGeometry x="315" y="60" width="80" height="30" as="geometry" />
        </mxCell>
        <mxCell id="x4CWHcI_3ok25Xr3Ort--1257" value="" style="endArrow=none;html=1;rounded=0;entryX=0;entryY=0.5;entryDx=0;entryDy=0;exitX=1;exitY=0.5;exitDx=0;exitDy=0;" edge="1" parent="x4CWHcI_3ok25Xr3Ort--1248" source="x4CWHcI_3ok25Xr3Ort--1254" target="x4CWHcI_3ok25Xr3Ort--1249">
          <mxGeometry width="50" height="50" relative="1" as="geometry">
            <mxPoint x="-5" y="250" as="sourcePoint" />
            <mxPoint x="45" y="200" as="targetPoint" />
          </mxGeometry>
        </mxCell>
        <mxCell id="x4CWHcI_3ok25Xr3Ort--1258" value="" style="endArrow=none;html=1;rounded=0;entryX=0.265;entryY=0.9;entryDx=0;entryDy=0;entryPerimeter=0;exitX=0.325;exitY=0.059;exitDx=0;exitDy=0;exitPerimeter=0;" edge="1" parent="x4CWHcI_3ok25Xr3Ort--1248" source="x4CWHcI_3ok25Xr3Ort--1249" target="x4CWHcI_3ok25Xr3Ort--1251">
          <mxGeometry width="50" height="50" relative="1" as="geometry">
            <mxPoint x="195" y="90" as="sourcePoint" />
            <mxPoint x="195" y="30" as="targetPoint" />
          </mxGeometry>
        </mxCell>
        <mxCell id="x4CWHcI_3ok25Xr3Ort--1259" value="" style="endArrow=none;html=1;rounded=0;exitX=0.5;exitY=0;exitDx=0;exitDy=0;entryX=0;entryY=1;entryDx=0;entryDy=0;" edge="1" parent="x4CWHcI_3ok25Xr3Ort--1248" source="x4CWHcI_3ok25Xr3Ort--1249" target="x4CWHcI_3ok25Xr3Ort--1250">
          <mxGeometry width="50" height="50" relative="1" as="geometry">
            <mxPoint x="145" y="80" as="sourcePoint" />
            <mxPoint x="195" y="30" as="targetPoint" />
          </mxGeometry>
        </mxCell>
        <mxCell id="x4CWHcI_3ok25Xr3Ort--1260" value="" style="endArrow=none;html=1;rounded=0;exitX=0.83;exitY=0.014;exitDx=0;exitDy=0;exitPerimeter=0;entryX=0;entryY=0.5;entryDx=0;entryDy=0;" edge="1" parent="x4CWHcI_3ok25Xr3Ort--1248" source="x4CWHcI_3ok25Xr3Ort--1249" target="x4CWHcI_3ok25Xr3Ort--1256">
          <mxGeometry width="50" height="50" relative="1" as="geometry">
            <mxPoint x="145" y="80" as="sourcePoint" />
            <mxPoint x="195" y="30" as="targetPoint" />
          </mxGeometry>
        </mxCell>
        <mxCell id="x4CWHcI_3ok25Xr3Ort--1261" value="" style="endArrow=none;html=1;rounded=0;exitX=1;exitY=0.5;exitDx=0;exitDy=0;entryX=0;entryY=0.5;entryDx=0;entryDy=0;" edge="1" parent="x4CWHcI_3ok25Xr3Ort--1248" source="x4CWHcI_3ok25Xr3Ort--1249" target="x4CWHcI_3ok25Xr3Ort--1255">
          <mxGeometry width="50" height="50" relative="1" as="geometry">
            <mxPoint x="145" y="80" as="sourcePoint" />
            <mxPoint x="315" y="110" as="targetPoint" />
          </mxGeometry>
        </mxCell>
        <mxCell id="x4CWHcI_3ok25Xr3Ort--1262" value="" style="endArrow=none;html=1;rounded=0;exitX=0.5;exitY=0;exitDx=0;exitDy=0;" edge="1" parent="x4CWHcI_3ok25Xr3Ort--1246" source="x4CWHcI_3ok25Xr3Ort--1247">
          <mxGeometry width="50" height="50" relative="1" as="geometry">
            <mxPoint x="12.5" y="220" as="sourcePoint" />
            <mxPoint x="203" y="130" as="targetPoint" />
          </mxGeometry>
        </mxCell>
        <mxCell id="x4CWHcI_3ok25Xr3Ort--1263" value="&lt;b&gt;1&lt;/b&gt;" style="text;html=1;strokeColor=none;fillColor=none;align=center;verticalAlign=middle;whiteSpace=wrap;rounded=0;" vertex="1" parent="x4CWHcI_3ok25Xr3Ort--1246">
          <mxGeometry x="205" y="130" width="35" height="20" as="geometry" />
        </mxCell>
        <mxCell id="x4CWHcI_3ok25Xr3Ort--1264" value="" style="group" vertex="1" connectable="0" parent="1">
          <mxGeometry x="-17.5" y="605" width="375" height="200" as="geometry" />
        </mxCell>
        <mxCell id="x4CWHcI_3ok25Xr3Ort--1265" value="" style="group" vertex="1" connectable="0" parent="x4CWHcI_3ok25Xr3Ort--1264">
          <mxGeometry width="375" height="147.5" as="geometry" />
        </mxCell>
        <mxCell id="x4CWHcI_3ok25Xr3Ort--1266" value="Research_centre" style="rounded=0;whiteSpace=wrap;html=1;fillColor=#D4E1F5;" vertex="1" parent="x4CWHcI_3ok25Xr3Ort--1265">
          <mxGeometry x="105" y="87.5" width="120" height="30" as="geometry" />
        </mxCell>
        <mxCell id="x4CWHcI_3ok25Xr3Ort--1267" value="Timeline" style="ellipse;whiteSpace=wrap;html=1;" vertex="1" parent="x4CWHcI_3ok25Xr3Ort--1265">
          <mxGeometry x="245" y="20" width="80" height="30" as="geometry" />
        </mxCell>
        <mxCell id="x4CWHcI_3ok25Xr3Ort--1268" value="Objective" style="ellipse;whiteSpace=wrap;html=1;" vertex="1" parent="x4CWHcI_3ok25Xr3Ort--1265">
          <mxGeometry x="165" width="80" height="30" as="geometry" />
        </mxCell>
        <mxCell id="x4CWHcI_3ok25Xr3Ort--1269" value="Research_area" style="ellipse;whiteSpace=wrap;html=1;" vertex="1" parent="x4CWHcI_3ok25Xr3Ort--1265">
          <mxGeometry x="65" y="10" width="100" height="30" as="geometry" />
        </mxCell>
        <mxCell id="x4CWHcI_3ok25Xr3Ort--1270" value="Title" style="ellipse;whiteSpace=wrap;html=1;" vertex="1" parent="x4CWHcI_3ok25Xr3Ort--1265">
          <mxGeometry x="15" y="50" width="80" height="30" as="geometry" />
        </mxCell>
        <mxCell id="x4CWHcI_3ok25Xr3Ort--1271" value="&lt;u&gt;Res_ID&lt;/u&gt;" style="ellipse;whiteSpace=wrap;html=1;" vertex="1" parent="x4CWHcI_3ok25Xr3Ort--1265">
          <mxGeometry y="87.5" width="80" height="30" as="geometry" />
        </mxCell>
        <mxCell id="x4CWHcI_3ok25Xr3Ort--1272" value="Outcome" style="ellipse;whiteSpace=wrap;html=1;" vertex="1" parent="x4CWHcI_3ok25Xr3Ort--1265">
          <mxGeometry x="295" y="50" width="80" height="30" as="geometry" />
        </mxCell>
        <mxCell id="x4CWHcI_3ok25Xr3Ort--1273" value="Budget" style="ellipse;whiteSpace=wrap;html=1;" vertex="1" parent="x4CWHcI_3ok25Xr3Ort--1265">
          <mxGeometry x="285" y="87.5" width="80" height="30" as="geometry" />
        </mxCell>
        <mxCell id="x4CWHcI_3ok25Xr3Ort--1274" value="" style="endArrow=none;html=1;rounded=0;exitX=1;exitY=0.5;exitDx=0;exitDy=0;entryX=0;entryY=0.5;entryDx=0;entryDy=0;" edge="1" parent="x4CWHcI_3ok25Xr3Ort--1265" source="x4CWHcI_3ok25Xr3Ort--1271" target="x4CWHcI_3ok25Xr3Ort--1266">
          <mxGeometry width="50" height="50" relative="1" as="geometry">
            <mxPoint x="397.5" y="65" as="sourcePoint" />
            <mxPoint x="447.5" y="15" as="targetPoint" />
          </mxGeometry>
        </mxCell>
        <mxCell id="x4CWHcI_3ok25Xr3Ort--1275" value="" style="endArrow=none;html=1;rounded=0;exitX=1;exitY=1;exitDx=0;exitDy=0;entryX=0;entryY=0;entryDx=0;entryDy=0;" edge="1" parent="x4CWHcI_3ok25Xr3Ort--1265" source="x4CWHcI_3ok25Xr3Ort--1270" target="x4CWHcI_3ok25Xr3Ort--1266">
          <mxGeometry width="50" height="50" relative="1" as="geometry">
            <mxPoint x="247.5" y="95" as="sourcePoint" />
            <mxPoint x="107.5" y="85" as="targetPoint" />
          </mxGeometry>
        </mxCell>
        <mxCell id="x4CWHcI_3ok25Xr3Ort--1276" value="" style="endArrow=none;html=1;rounded=0;exitX=0.5;exitY=1;exitDx=0;exitDy=0;entryX=0.181;entryY=0.029;entryDx=0;entryDy=0;entryPerimeter=0;" edge="1" parent="x4CWHcI_3ok25Xr3Ort--1265" source="x4CWHcI_3ok25Xr3Ort--1269" target="x4CWHcI_3ok25Xr3Ort--1266">
          <mxGeometry width="50" height="50" relative="1" as="geometry">
            <mxPoint x="247.5" y="95" as="sourcePoint" />
            <mxPoint x="297.5" y="45" as="targetPoint" />
          </mxGeometry>
        </mxCell>
        <mxCell id="x4CWHcI_3ok25Xr3Ort--1277" value="" style="endArrow=none;html=1;rounded=0;exitX=0.384;exitY=0.007;exitDx=0;exitDy=0;exitPerimeter=0;entryX=0.5;entryY=1;entryDx=0;entryDy=0;" edge="1" parent="x4CWHcI_3ok25Xr3Ort--1265" source="x4CWHcI_3ok25Xr3Ort--1266" target="x4CWHcI_3ok25Xr3Ort--1268">
          <mxGeometry width="50" height="50" relative="1" as="geometry">
            <mxPoint x="247.5" y="95" as="sourcePoint" />
            <mxPoint x="297.5" y="45" as="targetPoint" />
          </mxGeometry>
        </mxCell>
        <mxCell id="x4CWHcI_3ok25Xr3Ort--1278" value="" style="endArrow=none;html=1;rounded=0;entryX=0;entryY=0.5;entryDx=0;entryDy=0;exitX=0.875;exitY=0.093;exitDx=0;exitDy=0;exitPerimeter=0;" edge="1" parent="x4CWHcI_3ok25Xr3Ort--1265" source="x4CWHcI_3ok25Xr3Ort--1266" target="x4CWHcI_3ok25Xr3Ort--1272">
          <mxGeometry width="50" height="50" relative="1" as="geometry">
            <mxPoint x="217.5" y="85" as="sourcePoint" />
            <mxPoint x="297.5" y="45" as="targetPoint" />
          </mxGeometry>
        </mxCell>
        <mxCell id="x4CWHcI_3ok25Xr3Ort--1279" value="" style="endArrow=none;html=1;rounded=0;entryX=0;entryY=1;entryDx=0;entryDy=0;exitX=0.656;exitY=0.071;exitDx=0;exitDy=0;exitPerimeter=0;" edge="1" parent="x4CWHcI_3ok25Xr3Ort--1265" source="x4CWHcI_3ok25Xr3Ort--1266" target="x4CWHcI_3ok25Xr3Ort--1267">
          <mxGeometry width="50" height="50" relative="1" as="geometry">
            <mxPoint x="187.5" y="85" as="sourcePoint" />
            <mxPoint x="297.5" y="45" as="targetPoint" />
          </mxGeometry>
        </mxCell>
        <mxCell id="x4CWHcI_3ok25Xr3Ort--1280" value="" style="endArrow=none;html=1;rounded=0;exitX=1;exitY=0.5;exitDx=0;exitDy=0;entryX=0;entryY=0.5;entryDx=0;entryDy=0;" edge="1" parent="x4CWHcI_3ok25Xr3Ort--1265" source="x4CWHcI_3ok25Xr3Ort--1266" target="x4CWHcI_3ok25Xr3Ort--1273">
          <mxGeometry width="50" height="50" relative="1" as="geometry">
            <mxPoint x="247.5" y="95" as="sourcePoint" />
            <mxPoint x="297.5" y="45" as="targetPoint" />
          </mxGeometry>
        </mxCell>
        <mxCell id="x4CWHcI_3ok25Xr3Ort--1281" value="&lt;b&gt;N&lt;/b&gt;" style="text;html=1;strokeColor=none;fillColor=none;align=center;verticalAlign=middle;whiteSpace=wrap;rounded=0;" vertex="1" parent="x4CWHcI_3ok25Xr3Ort--1265">
          <mxGeometry x="117.5" y="117.5" width="60" height="30" as="geometry" />
        </mxCell>
        <mxCell id="x4CWHcI_3ok25Xr3Ort--1282" value="" style="endArrow=none;html=1;rounded=0;entryX=0.118;entryY=0.98;entryDx=0;entryDy=0;entryPerimeter=0;" edge="1" parent="1" target="x4CWHcI_3ok25Xr3Ort--916">
          <mxGeometry width="50" height="50" relative="1" as="geometry">
            <mxPoint x="-200" y="770" as="sourcePoint" />
            <mxPoint x="120" y="610" as="targetPoint" />
          </mxGeometry>
        </mxCell>
        <mxCell id="x4CWHcI_3ok25Xr3Ort--1283" value="have" style="rhombus;whiteSpace=wrap;html=1;fillColor=#FFB366;" vertex="1" parent="1">
          <mxGeometry x="-200" y="740" width="80" height="60" as="geometry" />
        </mxCell>
        <mxCell id="x4CWHcI_3ok25Xr3Ort--1284" value="" style="endArrow=none;html=1;rounded=0;exitX=1;exitY=0.5;exitDx=0;exitDy=0;" edge="1" parent="1" source="x4CWHcI_3ok25Xr3Ort--1283">
          <mxGeometry width="50" height="50" relative="1" as="geometry">
            <mxPoint x="160" y="660" as="sourcePoint" />
            <mxPoint x="150" y="720" as="targetPoint" />
            <Array as="points">
              <mxPoint x="150" y="770" />
            </Array>
          </mxGeometry>
        </mxCell>
        <mxCell id="x4CWHcI_3ok25Xr3Ort--1285" value="" style="group" vertex="1" connectable="0" parent="1">
          <mxGeometry x="-590" y="540" width="380" height="130" as="geometry" />
        </mxCell>
        <mxCell id="x4CWHcI_3ok25Xr3Ort--1286" value="Library" style="rounded=0;whiteSpace=wrap;html=1;fillColor=#D4E1F5;" vertex="1" parent="x4CWHcI_3ok25Xr3Ort--1285">
          <mxGeometry x="130" y="100" width="120" height="30" as="geometry" />
        </mxCell>
        <mxCell id="x4CWHcI_3ok25Xr3Ort--1287" value="Address" style="ellipse;whiteSpace=wrap;html=1;" vertex="1" parent="x4CWHcI_3ok25Xr3Ort--1285">
          <mxGeometry x="170" width="80" height="30" as="geometry" />
        </mxCell>
        <mxCell id="x4CWHcI_3ok25Xr3Ort--1288" value="ContactInfo" style="ellipse;whiteSpace=wrap;html=1;" vertex="1" parent="x4CWHcI_3ok25Xr3Ort--1285">
          <mxGeometry x="80" y="10" width="80" height="30" as="geometry" />
        </mxCell>
        <mxCell id="x4CWHcI_3ok25Xr3Ort--1289" value="name" style="ellipse;whiteSpace=wrap;html=1;" vertex="1" parent="x4CWHcI_3ok25Xr3Ort--1285">
          <mxGeometry x="10" y="40" width="80" height="30" as="geometry" />
        </mxCell>
        <mxCell id="x4CWHcI_3ok25Xr3Ort--1290" value="&lt;u&gt;Lib_ID&lt;/u&gt;" style="ellipse;whiteSpace=wrap;html=1;" vertex="1" parent="x4CWHcI_3ok25Xr3Ort--1285">
          <mxGeometry y="90" width="80" height="30" as="geometry" />
        </mxCell>
        <mxCell id="x4CWHcI_3ok25Xr3Ort--1291" value="Collections" style="ellipse;whiteSpace=wrap;html=1;" vertex="1" parent="x4CWHcI_3ok25Xr3Ort--1285">
          <mxGeometry x="300" y="60" width="80" height="30" as="geometry" />
        </mxCell>
        <mxCell id="x4CWHcI_3ok25Xr3Ort--1292" value="Facilities" style="ellipse;whiteSpace=wrap;html=1;" vertex="1" parent="x4CWHcI_3ok25Xr3Ort--1285">
          <mxGeometry x="255" y="10" width="80" height="30" as="geometry" />
        </mxCell>
        <mxCell id="x4CWHcI_3ok25Xr3Ort--1293" value="Capacity" style="ellipse;whiteSpace=wrap;html=1;" vertex="1" parent="x4CWHcI_3ok25Xr3Ort--1285">
          <mxGeometry x="290" y="100" width="80" height="30" as="geometry" />
        </mxCell>
        <mxCell id="x4CWHcI_3ok25Xr3Ort--1294" value="" style="endArrow=none;html=1;rounded=0;exitX=1;exitY=1;exitDx=0;exitDy=0;entryX=0;entryY=0.5;entryDx=0;entryDy=0;" edge="1" parent="x4CWHcI_3ok25Xr3Ort--1285" source="x4CWHcI_3ok25Xr3Ort--1290" target="x4CWHcI_3ok25Xr3Ort--1286">
          <mxGeometry width="50" height="50" relative="1" as="geometry">
            <mxPoint x="270" y="170" as="sourcePoint" />
            <mxPoint x="320" y="120" as="targetPoint" />
          </mxGeometry>
        </mxCell>
        <mxCell id="x4CWHcI_3ok25Xr3Ort--1295" value="" style="endArrow=none;html=1;rounded=0;exitX=1;exitY=1;exitDx=0;exitDy=0;entryX=0;entryY=0;entryDx=0;entryDy=0;" edge="1" parent="x4CWHcI_3ok25Xr3Ort--1285" source="x4CWHcI_3ok25Xr3Ort--1289" target="x4CWHcI_3ok25Xr3Ort--1286">
          <mxGeometry width="50" height="50" relative="1" as="geometry">
            <mxPoint x="270" y="170" as="sourcePoint" />
            <mxPoint x="320" y="120" as="targetPoint" />
          </mxGeometry>
        </mxCell>
        <mxCell id="x4CWHcI_3ok25Xr3Ort--1296" value="" style="endArrow=none;html=1;rounded=0;exitX=0.5;exitY=1;exitDx=0;exitDy=0;entryX=0.25;entryY=0;entryDx=0;entryDy=0;" edge="1" parent="x4CWHcI_3ok25Xr3Ort--1285" source="x4CWHcI_3ok25Xr3Ort--1288" target="x4CWHcI_3ok25Xr3Ort--1286">
          <mxGeometry width="50" height="50" relative="1" as="geometry">
            <mxPoint x="270" y="170" as="sourcePoint" />
            <mxPoint x="320" y="120" as="targetPoint" />
          </mxGeometry>
        </mxCell>
        <mxCell id="x4CWHcI_3ok25Xr3Ort--1297" value="" style="endArrow=none;html=1;rounded=0;exitX=0.75;exitY=0;exitDx=0;exitDy=0;entryX=0;entryY=1;entryDx=0;entryDy=0;" edge="1" parent="x4CWHcI_3ok25Xr3Ort--1285" source="x4CWHcI_3ok25Xr3Ort--1286" target="x4CWHcI_3ok25Xr3Ort--1292">
          <mxGeometry width="50" height="50" relative="1" as="geometry">
            <mxPoint x="270" y="170" as="sourcePoint" />
            <mxPoint x="320" y="120" as="targetPoint" />
          </mxGeometry>
        </mxCell>
        <mxCell id="x4CWHcI_3ok25Xr3Ort--1298" value="" style="endArrow=none;html=1;rounded=0;exitX=1;exitY=0;exitDx=0;exitDy=0;entryX=0;entryY=1;entryDx=0;entryDy=0;" edge="1" parent="x4CWHcI_3ok25Xr3Ort--1285" source="x4CWHcI_3ok25Xr3Ort--1286" target="x4CWHcI_3ok25Xr3Ort--1291">
          <mxGeometry width="50" height="50" relative="1" as="geometry">
            <mxPoint x="270" y="170" as="sourcePoint" />
            <mxPoint x="320" y="120" as="targetPoint" />
          </mxGeometry>
        </mxCell>
        <mxCell id="x4CWHcI_3ok25Xr3Ort--1299" value="&lt;b&gt;N&lt;/b&gt;" style="text;html=1;strokeColor=none;fillColor=none;align=center;verticalAlign=middle;whiteSpace=wrap;rounded=0;" vertex="1" parent="x4CWHcI_3ok25Xr3Ort--1285">
          <mxGeometry x="180" y="70" width="60" height="30" as="geometry" />
        </mxCell>
        <mxCell id="x4CWHcI_3ok25Xr3Ort--1300" value="has" style="rhombus;whiteSpace=wrap;html=1;fillColor=#FFB366;" vertex="1" parent="1">
          <mxGeometry x="-120" y="450" width="80" height="70" as="geometry" />
        </mxCell>
        <mxCell id="x4CWHcI_3ok25Xr3Ort--1301" value="" style="endArrow=none;html=1;rounded=0;exitX=0.883;exitY=-0.007;exitDx=0;exitDy=0;exitPerimeter=0;entryX=0;entryY=0.5;entryDx=0;entryDy=0;" edge="1" parent="1" source="x4CWHcI_3ok25Xr3Ort--1286" target="x4CWHcI_3ok25Xr3Ort--1300">
          <mxGeometry width="50" height="50" relative="1" as="geometry">
            <mxPoint x="-170" y="530" as="sourcePoint" />
            <mxPoint x="-120" y="480" as="targetPoint" />
          </mxGeometry>
        </mxCell>
        <mxCell id="x4CWHcI_3ok25Xr3Ort--1302" value="" style="endArrow=none;html=1;rounded=0;entryX=1;entryY=0.5;entryDx=0;entryDy=0;exitX=0;exitY=1;exitDx=0;exitDy=0;" edge="1" parent="1" source="x4CWHcI_3ok25Xr3Ort--916" target="x4CWHcI_3ok25Xr3Ort--1300">
          <mxGeometry width="50" height="50" relative="1" as="geometry">
            <mxPoint x="-100" y="510" as="sourcePoint" />
            <mxPoint x="-50" y="460" as="targetPoint" />
          </mxGeometry>
        </mxCell>
        <mxCell id="x4CWHcI_3ok25Xr3Ort--1303" value="" style="endArrow=none;html=1;rounded=0;" edge="1" parent="1" target="x4CWHcI_3ok25Xr3Ort--1304">
          <mxGeometry width="50" height="50" relative="1" as="geometry">
            <mxPoint x="-160" y="-130" as="sourcePoint" />
            <mxPoint x="-160" y="-250" as="targetPoint" />
          </mxGeometry>
        </mxCell>
        <mxCell id="x4CWHcI_3ok25Xr3Ort--1304" value="Apply for" style="rhombus;whiteSpace=wrap;html=1;fillColor=#FFB366;" vertex="1" parent="1">
          <mxGeometry x="-200" y="-300" width="80" height="70" as="geometry" />
        </mxCell>
        <mxCell id="x4CWHcI_3ok25Xr3Ort--1305" value="" style="endArrow=none;html=1;rounded=0;entryX=0.5;entryY=0;entryDx=0;entryDy=0;" edge="1" parent="1" target="x4CWHcI_3ok25Xr3Ort--1304">
          <mxGeometry width="50" height="50" relative="1" as="geometry">
            <mxPoint x="-160" y="-340" as="sourcePoint" />
            <mxPoint x="-30" y="-260" as="targetPoint" />
          </mxGeometry>
        </mxCell>
        <mxCell id="x4CWHcI_3ok25Xr3Ort--1306" value="Earns" style="rhombus;whiteSpace=wrap;html=1;fillColor=#FFB366;" vertex="1" parent="1">
          <mxGeometry x="-400" y="-30" width="80" height="60" as="geometry" />
        </mxCell>
        <mxCell id="x4CWHcI_3ok25Xr3Ort--1307" value="" style="endArrow=none;html=1;rounded=0;exitX=1;exitY=0.5;exitDx=0;exitDy=0;" edge="1" parent="1" source="x4CWHcI_3ok25Xr3Ort--1306">
          <mxGeometry width="50" height="50" relative="1" as="geometry">
            <mxPoint x="-500" y="-10" as="sourcePoint" />
            <mxPoint x="-190" y="-100" as="targetPoint" />
          </mxGeometry>
        </mxCell>
        <mxCell id="x4CWHcI_3ok25Xr3Ort--1308" value="" style="endArrow=none;html=1;rounded=0;entryX=0;entryY=0.5;entryDx=0;entryDy=0;exitX=0.5;exitY=0;exitDx=0;exitDy=0;" edge="1" parent="1" source="x4CWHcI_3ok25Xr3Ort--926" target="x4CWHcI_3ok25Xr3Ort--1306">
          <mxGeometry width="50" height="50" relative="1" as="geometry">
            <mxPoint x="-400" y="140" as="sourcePoint" />
            <mxPoint x="-450" y="-60" as="targetPoint" />
          </mxGeometry>
        </mxCell>
        <mxCell id="x4CWHcI_3ok25Xr3Ort--1309" value="" style="endArrow=none;html=1;rounded=0;exitX=0;exitY=0;exitDx=0;exitDy=0;entryX=0.798;entryY=0.919;entryDx=0;entryDy=0;entryPerimeter=0;" edge="1" parent="1" source="x4CWHcI_3ok25Xr3Ort--916" target="x4CWHcI_3ok25Xr3Ort--924">
          <mxGeometry width="50" height="50" relative="1" as="geometry">
            <mxPoint x="400" y="440" as="sourcePoint" />
            <mxPoint x="450" y="390" as="targetPoint" />
          </mxGeometry>
        </mxCell>
        <mxCell id="x4CWHcI_3ok25Xr3Ort--1310" value="" style="endArrow=none;html=1;rounded=0;exitX=0.182;exitY=-0.017;exitDx=0;exitDy=0;exitPerimeter=0;entryX=0.5;entryY=1;entryDx=0;entryDy=0;" edge="1" parent="1" source="x4CWHcI_3ok25Xr3Ort--916" target="x4CWHcI_3ok25Xr3Ort--923">
          <mxGeometry width="50" height="50" relative="1" as="geometry">
            <mxPoint x="400" y="440" as="sourcePoint" />
            <mxPoint x="450" y="390" as="targetPoint" />
          </mxGeometry>
        </mxCell>
        <mxCell id="x4CWHcI_3ok25Xr3Ort--1311" value="" style="endArrow=none;html=1;rounded=0;exitX=0.75;exitY=0;exitDx=0;exitDy=0;entryX=0.5;entryY=1;entryDx=0;entryDy=0;" edge="1" parent="1" source="x4CWHcI_3ok25Xr3Ort--916" target="x4CWHcI_3ok25Xr3Ort--960">
          <mxGeometry width="50" height="50" relative="1" as="geometry">
            <mxPoint x="400" y="440" as="sourcePoint" />
            <mxPoint x="450" y="390" as="targetPoint" />
          </mxGeometry>
        </mxCell>
        <mxCell id="x4CWHcI_3ok25Xr3Ort--1312" value="" style="endArrow=none;html=1;rounded=0;exitX=0.777;exitY=0.968;exitDx=0;exitDy=0;exitPerimeter=0;" edge="1" parent="1" source="x4CWHcI_3ok25Xr3Ort--1124">
          <mxGeometry width="50" height="50" relative="1" as="geometry">
            <mxPoint x="1420" y="490" as="sourcePoint" />
            <mxPoint x="1480" y="450" as="targetPoint" />
          </mxGeometry>
        </mxCell>
        <mxCell id="x4CWHcI_3ok25Xr3Ort--1313" value="" style="endArrow=none;html=1;rounded=0;entryX=0.25;entryY=0;entryDx=0;entryDy=0;" edge="1" parent="1" target="x4CWHcI_3ok25Xr3Ort--1123">
          <mxGeometry width="50" height="50" relative="1" as="geometry">
            <mxPoint x="1450" y="300" as="sourcePoint" />
            <mxPoint x="1470" y="440" as="targetPoint" />
          </mxGeometry>
        </mxCell>
        <mxCell id="x4CWHcI_3ok25Xr3Ort--1314" value="" style="endArrow=none;html=1;rounded=0;entryX=1;entryY=0.5;entryDx=0;entryDy=0;" edge="1" parent="1" target="x4CWHcI_3ok25Xr3Ort--1123">
          <mxGeometry width="50" height="50" relative="1" as="geometry">
            <mxPoint x="1680" y="460" as="sourcePoint" />
            <mxPoint x="1470" y="440" as="targetPoint" />
          </mxGeometry>
        </mxCell>
        <mxCell id="x4CWHcI_3ok25Xr3Ort--1315" value="" style="endArrow=none;html=1;rounded=0;entryX=0;entryY=0.5;entryDx=0;entryDy=0;" edge="1" parent="1" target="x4CWHcI_3ok25Xr3Ort--1010">
          <mxGeometry width="50" height="50" relative="1" as="geometry">
            <mxPoint x="1170" y="620" as="sourcePoint" />
            <mxPoint x="1330" y="550" as="targetPoint" />
          </mxGeometry>
        </mxCell>
        <mxCell id="x4CWHcI_3ok25Xr3Ort--1316" value="" style="endArrow=none;html=1;rounded=0;exitX=0.409;exitY=1.03;exitDx=0;exitDy=0;exitPerimeter=0;" edge="1" parent="1" source="x4CWHcI_3ok25Xr3Ort--1012">
          <mxGeometry width="50" height="50" relative="1" as="geometry">
            <mxPoint x="1280" y="600" as="sourcePoint" />
            <mxPoint x="1123" y="620" as="targetPoint" />
          </mxGeometry>
        </mxCell>
        <mxCell id="x4CWHcI_3ok25Xr3Ort--1317" value="" style="endArrow=none;html=1;rounded=0;exitX=0.5;exitY=1;exitDx=0;exitDy=0;" edge="1" parent="1" source="x4CWHcI_3ok25Xr3Ort--1013">
          <mxGeometry width="50" height="50" relative="1" as="geometry">
            <mxPoint x="1280" y="600" as="sourcePoint" />
            <mxPoint x="1100" y="620" as="targetPoint" />
          </mxGeometry>
        </mxCell>
        <mxCell id="x4CWHcI_3ok25Xr3Ort--1318" value="" style="endArrow=none;html=1;rounded=0;exitX=0.25;exitY=0;exitDx=0;exitDy=0;" edge="1" parent="1" source="x4CWHcI_3ok25Xr3Ort--959">
          <mxGeometry width="50" height="50" relative="1" as="geometry">
            <mxPoint x="940" y="160" as="sourcePoint" />
            <mxPoint x="990" y="110" as="targetPoint" />
          </mxGeometry>
        </mxCell>
        <mxCell id="x4CWHcI_3ok25Xr3Ort--1319" value="" style="endArrow=none;html=1;rounded=0;entryX=1;entryY=1;entryDx=0;entryDy=0;" edge="1" parent="1" target="x4CWHcI_3ok25Xr3Ort--1183">
          <mxGeometry width="50" height="50" relative="1" as="geometry">
            <mxPoint x="1530" y="-170" as="sourcePoint" />
            <mxPoint x="1440" y="-220" as="targetPoint" />
          </mxGeometry>
        </mxCell>
        <mxCell id="x4CWHcI_3ok25Xr3Ort--1320" value="" style="endArrow=none;html=1;rounded=0;exitX=0.689;exitY=1.005;exitDx=0;exitDy=0;exitPerimeter=0;" edge="1" parent="1" source="x4CWHcI_3ok25Xr3Ort--1182">
          <mxGeometry width="50" height="50" relative="1" as="geometry">
            <mxPoint x="1390" y="-170" as="sourcePoint" />
            <mxPoint x="1550" y="-170" as="targetPoint" />
          </mxGeometry>
        </mxCell>
        <mxCell id="x4CWHcI_3ok25Xr3Ort--1321" value="" style="endArrow=none;html=1;rounded=0;" edge="1" parent="1">
          <mxGeometry width="50" height="50" relative="1" as="geometry">
            <mxPoint x="1560" y="-170" as="sourcePoint" />
            <mxPoint x="1510" y="-300" as="targetPoint" />
          </mxGeometry>
        </mxCell>
        <mxCell id="x4CWHcI_3ok25Xr3Ort--1322" value="" style="endArrow=none;html=1;rounded=0;entryX=0.5;entryY=1;entryDx=0;entryDy=0;" edge="1" parent="1" target="x4CWHcI_3ok25Xr3Ort--1188">
          <mxGeometry width="50" height="50" relative="1" as="geometry">
            <mxPoint x="1580" y="-170" as="sourcePoint" />
            <mxPoint x="1560" y="-260" as="targetPoint" />
          </mxGeometry>
        </mxCell>
        <mxCell id="x4CWHcI_3ok25Xr3Ort--1323" value="" style="endArrow=none;html=1;rounded=0;" edge="1" parent="1">
          <mxGeometry width="50" height="50" relative="1" as="geometry">
            <mxPoint x="1610" y="-170" as="sourcePoint" />
            <mxPoint x="1660" y="-290" as="targetPoint" />
          </mxGeometry>
        </mxCell>
        <mxCell id="x4CWHcI_3ok25Xr3Ort--1324" value="" style="endArrow=none;html=1;rounded=0;entryX=0.233;entryY=0.948;entryDx=0;entryDy=0;entryPerimeter=0;" edge="1" parent="1" target="x4CWHcI_3ok25Xr3Ort--1186">
          <mxGeometry width="50" height="50" relative="1" as="geometry">
            <mxPoint x="1620" y="-170" as="sourcePoint" />
            <mxPoint x="1560" y="-260" as="targetPoint" />
          </mxGeometry>
        </mxCell>
        <mxCell id="x4CWHcI_3ok25Xr3Ort--1325" value="" style="endArrow=none;html=1;rounded=0;" edge="1" parent="1">
          <mxGeometry width="50" height="50" relative="1" as="geometry">
            <mxPoint x="1080" y="-330" as="sourcePoint" />
            <mxPoint x="1110" y="-240" as="targetPoint" />
          </mxGeometry>
        </mxCell>
        <mxCell id="x4CWHcI_3ok25Xr3Ort--1326" value="" style="endArrow=none;html=1;rounded=0;" edge="1" parent="1">
          <mxGeometry width="50" height="50" relative="1" as="geometry">
            <mxPoint x="1140" y="-240" as="sourcePoint" />
            <mxPoint x="1170" y="-320" as="targetPoint" />
          </mxGeometry>
        </mxCell>
        <mxCell id="x4CWHcI_3ok25Xr3Ort--1327" value="" style="endArrow=none;html=1;rounded=0;entryX=0.282;entryY=0.918;entryDx=0;entryDy=0;entryPerimeter=0;" edge="1" parent="1" target="x4CWHcI_3ok25Xr3Ort--1141">
          <mxGeometry width="50" height="50" relative="1" as="geometry">
            <mxPoint x="1160" y="-240" as="sourcePoint" />
            <mxPoint x="1210" y="-280" as="targetPoint" />
          </mxGeometry>
        </mxCell>
        <mxCell id="x4CWHcI_3ok25Xr3Ort--1328" value="" style="endArrow=none;html=1;rounded=0;entryX=1;entryY=1;entryDx=0;entryDy=0;" edge="1" parent="1" target="x4CWHcI_3ok25Xr3Ort--1253">
          <mxGeometry width="50" height="50" relative="1" as="geometry">
            <mxPoint x="1060" y="-520" as="sourcePoint" />
            <mxPoint x="1110" y="-590" as="targetPoint" />
          </mxGeometry>
        </mxCell>
        <mxCell id="x4CWHcI_3ok25Xr3Ort--1329" value="" style="endArrow=none;html=1;rounded=0;entryX=0.64;entryY=0.967;entryDx=0;entryDy=0;entryPerimeter=0;" edge="1" parent="1" target="x4CWHcI_3ok25Xr3Ort--1252">
          <mxGeometry width="50" height="50" relative="1" as="geometry">
            <mxPoint x="1080" y="-520" as="sourcePoint" />
            <mxPoint x="1110" y="-590" as="targetPoint" />
          </mxGeometry>
        </mxCell>
        <mxCell id="x4CWHcI_3ok25Xr3Ort--1330" value="" style="endArrow=none;html=1;rounded=0;exitX=0.756;exitY=0.956;exitDx=0;exitDy=0;exitPerimeter=0;" edge="1" parent="1" source="x4CWHcI_3ok25Xr3Ort--996">
          <mxGeometry width="50" height="50" relative="1" as="geometry">
            <mxPoint x="560" y="-20" as="sourcePoint" />
            <mxPoint x="630" y="-10" as="targetPoint" />
          </mxGeometry>
        </mxCell>
        <mxCell id="x4CWHcI_3ok25Xr3Ort--1331" value="" style="endArrow=none;html=1;rounded=0;exitX=0.16;exitY=0.048;exitDx=0;exitDy=0;exitPerimeter=0;" edge="1" parent="1" source="x4CWHcI_3ok25Xr3Ort--1162">
          <mxGeometry width="50" height="50" relative="1" as="geometry">
            <mxPoint x="420" y="-170" as="sourcePoint" />
            <mxPoint x="530" y="-320" as="targetPoint" />
          </mxGeometry>
        </mxCell>
        <mxCell id="x4CWHcI_3ok25Xr3Ort--1332" value="" style="endArrow=none;html=1;rounded=0;entryX=0;entryY=1;entryDx=0;entryDy=0;" edge="1" parent="1" target="x4CWHcI_3ok25Xr3Ort--1161">
          <mxGeometry width="50" height="50" relative="1" as="geometry">
            <mxPoint x="720" y="-260" as="sourcePoint" />
            <mxPoint x="470" y="-220" as="targetPoint" />
          </mxGeometry>
        </mxCell>
        <mxCell id="x4CWHcI_3ok25Xr3Ort--1333" value="" style="endArrow=none;html=1;rounded=0;exitX=0.409;exitY=1.001;exitDx=0;exitDy=0;exitPerimeter=0;" edge="1" parent="1" source="x4CWHcI_3ok25Xr3Ort--1207">
          <mxGeometry width="50" height="50" relative="1" as="geometry">
            <mxPoint x="170" y="-210" as="sourcePoint" />
            <mxPoint x="170" y="-250" as="targetPoint" />
          </mxGeometry>
        </mxCell>
        <mxCell id="x4CWHcI_3ok25Xr3Ort--1334" value="" style="endArrow=none;html=1;rounded=0;exitX=0.231;exitY=0.939;exitDx=0;exitDy=0;exitPerimeter=0;" edge="1" parent="1" source="x4CWHcI_3ok25Xr3Ort--1208">
          <mxGeometry width="50" height="50" relative="1" as="geometry">
            <mxPoint x="170" y="-210" as="sourcePoint" />
            <mxPoint x="190" y="-250" as="targetPoint" />
          </mxGeometry>
        </mxCell>
        <mxCell id="x4CWHcI_3ok25Xr3Ort--1335" value="" style="endArrow=none;html=1;rounded=0;entryX=1;entryY=0.25;entryDx=0;entryDy=0;" edge="1" parent="1" target="x4CWHcI_3ok25Xr3Ort--1202">
          <mxGeometry width="50" height="50" relative="1" as="geometry">
            <mxPoint x="310" y="-240" as="sourcePoint" />
            <mxPoint x="220" y="-260" as="targetPoint" />
          </mxGeometry>
        </mxCell>
        <mxCell id="x4CWHcI_3ok25Xr3Ort--1336" value="" style="endArrow=none;html=1;rounded=0;exitX=1;exitY=0.5;exitDx=0;exitDy=0;" edge="1" parent="1" source="x4CWHcI_3ok25Xr3Ort--1221">
          <mxGeometry width="50" height="50" relative="1" as="geometry">
            <mxPoint x="-310" y="-340" as="sourcePoint" />
            <mxPoint x="-220" y="-360" as="targetPoint" />
          </mxGeometry>
        </mxCell>
        <mxCell id="x4CWHcI_3ok25Xr3Ort--1337" value="" style="endArrow=none;html=1;rounded=0;exitX=1;exitY=1;exitDx=0;exitDy=0;" edge="1" parent="1" source="x4CWHcI_3ok25Xr3Ort--943">
          <mxGeometry width="50" height="50" relative="1" as="geometry">
            <mxPoint x="-110" y="60" as="sourcePoint" />
            <mxPoint x="-210" y="-130" as="targetPoint" />
          </mxGeometry>
        </mxCell>
        <mxCell id="x4CWHcI_3ok25Xr3Ort--1338" value="" style="endArrow=none;html=1;rounded=0;entryX=0.25;entryY=0;entryDx=0;entryDy=0;" edge="1" parent="1" target="x4CWHcI_3ok25Xr3Ort--937">
          <mxGeometry width="50" height="50" relative="1" as="geometry">
            <mxPoint x="-200" y="-180" as="sourcePoint" />
            <mxPoint x="-60" y="10" as="targetPoint" />
          </mxGeometry>
        </mxCell>
        <mxCell id="x4CWHcI_3ok25Xr3Ort--1339" value="" style="endArrow=none;html=1;rounded=0;exitX=0.5;exitY=1;exitDx=0;exitDy=0;" edge="1" parent="1" source="x4CWHcI_3ok25Xr3Ort--931">
          <mxGeometry width="50" height="50" relative="1" as="geometry">
            <mxPoint x="-160" y="380" as="sourcePoint" />
            <mxPoint x="-460" y="170" as="targetPoint" />
          </mxGeometry>
        </mxCell>
        <mxCell id="x4CWHcI_3ok25Xr3Ort--1340" value="" style="endArrow=none;html=1;rounded=0;" edge="1" parent="1">
          <mxGeometry width="50" height="50" relative="1" as="geometry">
            <mxPoint x="-450" y="100" as="sourcePoint" />
            <mxPoint x="-440" y="150" as="targetPoint" />
          </mxGeometry>
        </mxCell>
        <mxCell id="x4CWHcI_3ok25Xr3Ort--1341" value="" style="endArrow=none;html=1;rounded=0;exitX=1;exitY=0.5;exitDx=0;exitDy=0;" edge="1" parent="1" source="x4CWHcI_3ok25Xr3Ort--1102">
          <mxGeometry width="50" height="50" relative="1" as="geometry">
            <mxPoint x="-520" y="410" as="sourcePoint" />
            <mxPoint x="-500" y="396" as="targetPoint" />
          </mxGeometry>
        </mxCell>
        <mxCell id="x4CWHcI_3ok25Xr3Ort--1342" value="" style="endArrow=none;html=1;rounded=0;entryX=0.5;entryY=0;entryDx=0;entryDy=0;" edge="1" parent="1" target="x4CWHcI_3ok25Xr3Ort--1286">
          <mxGeometry width="50" height="50" relative="1" as="geometry">
            <mxPoint x="-380" y="570" as="sourcePoint" />
            <mxPoint x="-270" y="660" as="targetPoint" />
          </mxGeometry>
        </mxCell>
        <mxCell id="x4CWHcI_3ok25Xr3Ort--1343" value="" style="endArrow=none;html=1;rounded=0;" edge="1" parent="1">
          <mxGeometry width="50" height="50" relative="1" as="geometry">
            <mxPoint x="-340" y="660" as="sourcePoint" />
            <mxPoint x="-300" y="660" as="targetPoint" />
          </mxGeometry>
        </mxCell>
        <mxCell id="x4CWHcI_3ok25Xr3Ort--1344" value="" style="endArrow=none;html=1;rounded=0;exitX=1;exitY=1;exitDx=0;exitDy=0;entryX=0;entryY=0.5;entryDx=0;entryDy=0;" edge="1" parent="1" source="x4CWHcI_3ok25Xr3Ort--918" target="x4CWHcI_3ok25Xr3Ort--915">
          <mxGeometry width="50" height="50" relative="1" as="geometry">
            <mxPoint x="360" y="590" as="sourcePoint" />
            <mxPoint x="410" y="540" as="targetPoint" />
          </mxGeometry>
        </mxCell>
        <mxCell id="x4CWHcI_3ok25Xr3Ort--1345" value="" style="endArrow=none;html=1;rounded=0;exitX=1;exitY=1;exitDx=0;exitDy=0;entryX=0;entryY=0;entryDx=0;entryDy=0;" edge="1" parent="1" source="x4CWHcI_3ok25Xr3Ort--919" target="x4CWHcI_3ok25Xr3Ort--915">
          <mxGeometry width="50" height="50" relative="1" as="geometry">
            <mxPoint x="320" y="600" as="sourcePoint" />
            <mxPoint x="370" y="550" as="targetPoint" />
          </mxGeometry>
        </mxCell>
        <mxCell id="x4CWHcI_3ok25Xr3Ort--1346" value="" style="endArrow=none;html=1;rounded=0;exitX=0.647;exitY=1.016;exitDx=0;exitDy=0;exitPerimeter=0;entryX=0.25;entryY=0;entryDx=0;entryDy=0;" edge="1" parent="1" source="x4CWHcI_3ok25Xr3Ort--920" target="x4CWHcI_3ok25Xr3Ort--915">
          <mxGeometry width="50" height="50" relative="1" as="geometry">
            <mxPoint x="320" y="600" as="sourcePoint" />
            <mxPoint x="370" y="550" as="targetPoint" />
          </mxGeometry>
        </mxCell>
        <mxCell id="x4CWHcI_3ok25Xr3Ort--1347" value="" style="endArrow=none;html=1;rounded=0;exitX=0.5;exitY=1;exitDx=0;exitDy=0;entryX=0.75;entryY=0;entryDx=0;entryDy=0;" edge="1" parent="1" source="x4CWHcI_3ok25Xr3Ort--992" target="x4CWHcI_3ok25Xr3Ort--915">
          <mxGeometry width="50" height="50" relative="1" as="geometry">
            <mxPoint x="320" y="600" as="sourcePoint" />
            <mxPoint x="370" y="550" as="targetPoint" />
          </mxGeometry>
        </mxCell>
        <mxCell id="x4CWHcI_3ok25Xr3Ort--1348" value="" style="endArrow=none;html=1;rounded=0;exitX=1;exitY=0;exitDx=0;exitDy=0;entryX=0.212;entryY=0.94;entryDx=0;entryDy=0;entryPerimeter=0;" edge="1" parent="1" source="x4CWHcI_3ok25Xr3Ort--915" target="x4CWHcI_3ok25Xr3Ort--991">
          <mxGeometry width="50" height="50" relative="1" as="geometry">
            <mxPoint x="320" y="600" as="sourcePoint" />
            <mxPoint x="370" y="550" as="targetPoint" />
          </mxGeometry>
        </mxCell>
        <mxCell id="x4CWHcI_3ok25Xr3Ort--1349" value="" style="endArrow=none;html=1;rounded=0;exitX=1;exitY=0.5;exitDx=0;exitDy=0;entryX=0.294;entryY=0.959;entryDx=0;entryDy=0;entryPerimeter=0;" edge="1" parent="1" source="x4CWHcI_3ok25Xr3Ort--915" target="x4CWHcI_3ok25Xr3Ort--990">
          <mxGeometry width="50" height="50" relative="1" as="geometry">
            <mxPoint x="320" y="600" as="sourcePoint" />
            <mxPoint x="370" y="550" as="targetPoint" />
          </mxGeometry>
        </mxCell>
        <mxCell id="x4CWHcI_3ok25Xr3Ort--1350" value="" style="endArrow=none;html=1;rounded=0;exitX=0;exitY=0.5;exitDx=0;exitDy=0;entryX=1;entryY=0.75;entryDx=0;entryDy=0;" edge="1" parent="1" source="x4CWHcI_3ok25Xr3Ort--989" target="x4CWHcI_3ok25Xr3Ort--915">
          <mxGeometry width="50" height="50" relative="1" as="geometry">
            <mxPoint x="320" y="600" as="sourcePoint" />
            <mxPoint x="370" y="550" as="targetPoint" />
          </mxGeometry>
        </mxCell>
        <mxCell id="x4CWHcI_3ok25Xr3Ort--1351" value="" style="endArrow=none;html=1;rounded=0;entryX=1;entryY=1;entryDx=0;entryDy=0;" edge="1" parent="1" target="x4CWHcI_3ok25Xr3Ort--1026">
          <mxGeometry width="50" height="50" relative="1" as="geometry">
            <mxPoint x="560" y="810" as="sourcePoint" />
            <mxPoint x="490" y="660" as="targetPoint" />
          </mxGeometry>
        </mxCell>
        <mxCell id="x4CWHcI_3ok25Xr3Ort--1352" value="&lt;b&gt;1&lt;/b&gt;" style="text;html=1;strokeColor=none;fillColor=none;align=center;verticalAlign=middle;whiteSpace=wrap;rounded=0;" vertex="1" parent="1">
          <mxGeometry x="390" y="560" width="35" height="20" as="geometry" />
        </mxCell>
        <mxCell id="x4CWHcI_3ok25Xr3Ort--1353" value="&lt;b&gt;N&lt;/b&gt;" style="text;html=1;strokeColor=none;fillColor=none;align=center;verticalAlign=middle;whiteSpace=wrap;rounded=0;" vertex="1" parent="1">
          <mxGeometry x="377.5" y="380" width="60" height="30" as="geometry" />
        </mxCell>
        <mxCell id="x4CWHcI_3ok25Xr3Ort--1354" value="&lt;b&gt;1&lt;/b&gt;" style="text;html=1;strokeColor=none;fillColor=none;align=center;verticalAlign=middle;whiteSpace=wrap;rounded=0;" vertex="1" parent="1">
          <mxGeometry x="385" y="330" width="35" height="20" as="geometry" />
        </mxCell>
        <mxCell id="x4CWHcI_3ok25Xr3Ort--1355" value="&lt;b&gt;1&lt;/b&gt;" style="text;html=1;strokeColor=none;fillColor=none;align=center;verticalAlign=middle;whiteSpace=wrap;rounded=0;" vertex="1" parent="1">
          <mxGeometry x="1440" y="480" width="35" height="20" as="geometry" />
        </mxCell>
        <mxCell id="x4CWHcI_3ok25Xr3Ort--1356" value="&lt;b&gt;1&lt;/b&gt;" style="text;html=1;strokeColor=none;fillColor=none;align=center;verticalAlign=middle;whiteSpace=wrap;rounded=0;" vertex="1" parent="1">
          <mxGeometry x="270" y="360" width="35" height="20" as="geometry" />
        </mxCell>
        <mxCell id="x4CWHcI_3ok25Xr3Ort--1357" value="&lt;b&gt;N&lt;/b&gt;" style="text;html=1;strokeColor=none;fillColor=none;align=center;verticalAlign=middle;whiteSpace=wrap;rounded=0;" vertex="1" parent="1">
          <mxGeometry x="-440" y="410" width="60" height="30" as="geometry" />
        </mxCell>
        <mxCell id="x4CWHcI_3ok25Xr3Ort--1358" value="&lt;b&gt;N&lt;/b&gt;" style="text;html=1;strokeColor=none;fillColor=none;align=center;verticalAlign=middle;whiteSpace=wrap;rounded=0;" vertex="1" parent="1">
          <mxGeometry x="-110" y="315" width="60" height="30" as="geometry" />
        </mxCell>
        <mxCell id="x4CWHcI_3ok25Xr3Ort--1359" value="&lt;b&gt;N&lt;/b&gt;" style="text;html=1;strokeColor=none;fillColor=none;align=center;verticalAlign=middle;whiteSpace=wrap;rounded=0;" vertex="1" parent="1">
          <mxGeometry x="650" y="-230" width="60" height="30" as="geometry" />
        </mxCell>
        <mxCell id="x4CWHcI_3ok25Xr3Ort--1360" value="" style="endArrow=none;html=1;rounded=0;exitX=0.412;exitY=0.074;exitDx=0;exitDy=0;exitPerimeter=0;" edge="1" parent="1" source="x4CWHcI_3ok25Xr3Ort--1006">
          <mxGeometry width="50" height="50" relative="1" as="geometry">
            <mxPoint x="630" y="-150" as="sourcePoint" />
            <mxPoint x="653" y="-230" as="targetPoint" />
          </mxGeometry>
        </mxCell>
        <mxCell id="x4CWHcI_3ok25Xr3Ort--1361" value="&lt;b&gt;1&lt;/b&gt;" style="text;html=1;strokeColor=none;fillColor=none;align=center;verticalAlign=middle;whiteSpace=wrap;rounded=0;" vertex="1" parent="1">
          <mxGeometry x="600" y="-230" width="35" height="20" as="geometry" />
        </mxCell>
        <mxCell id="x4CWHcI_3ok25Xr3Ort--1362" value="&lt;b&gt;1&lt;/b&gt;" style="text;html=1;strokeColor=none;fillColor=none;align=center;verticalAlign=middle;whiteSpace=wrap;rounded=0;" vertex="1" parent="1">
          <mxGeometry x="210" y="-220" width="35" height="20" as="geometry" />
        </mxCell>
        <mxCell id="x4CWHcI_3ok25Xr3Ort--1363" value="&lt;b&gt;1&lt;/b&gt;" style="text;html=1;strokeColor=none;fillColor=none;align=center;verticalAlign=middle;whiteSpace=wrap;rounded=0;" vertex="1" parent="1">
          <mxGeometry x="-165" y="-330" width="35" height="20" as="geometry" />
        </mxCell>
        <mxCell id="x4CWHcI_3ok25Xr3Ort--1364" value="" style="endArrow=none;html=1;rounded=0;exitX=0.5;exitY=0;exitDx=0;exitDy=0;" edge="1" parent="1" source="x4CWHcI_3ok25Xr3Ort--1162">
          <mxGeometry width="50" height="50" relative="1" as="geometry">
            <mxPoint x="830" y="-150" as="sourcePoint" />
            <mxPoint x="790" y="-380" as="targetPoint" />
          </mxGeometry>
        </mxCell>
        <mxCell id="x4CWHcI_3ok25Xr3Ort--1365" value="FirstName" style="ellipse;whiteSpace=wrap;html=1;" vertex="1" parent="1">
          <mxGeometry x="-450" y="-185" width="120" height="30" as="geometry" />
        </mxCell>
        <mxCell id="x4CWHcI_3ok25Xr3Ort--1366" value="LastName" style="ellipse;whiteSpace=wrap;html=1;" vertex="1" parent="1">
          <mxGeometry x="-320" y="-260" width="120" height="30" as="geometry" />
        </mxCell>
        <mxCell id="x4CWHcI_3ok25Xr3Ort--1367" value="" style="endArrow=none;html=1;rounded=0;exitX=1;exitY=0.5;exitDx=0;exitDy=0;entryX=0;entryY=0.5;entryDx=0;entryDy=0;" edge="1" parent="1" source="x4CWHcI_3ok25Xr3Ort--1365" target="x4CWHcI_3ok25Xr3Ort--943">
          <mxGeometry width="50" height="50" relative="1" as="geometry">
            <mxPoint x="-70" y="-60" as="sourcePoint" />
            <mxPoint x="-20" y="-110" as="targetPoint" />
          </mxGeometry>
        </mxCell>
        <mxCell id="x4CWHcI_3ok25Xr3Ort--1368" value="" style="endArrow=none;html=1;rounded=0;entryX=0.5;entryY=0;entryDx=0;entryDy=0;exitX=0.5;exitY=1;exitDx=0;exitDy=0;" edge="1" parent="1" source="x4CWHcI_3ok25Xr3Ort--1366" target="x4CWHcI_3ok25Xr3Ort--943">
          <mxGeometry width="50" height="50" relative="1" as="geometry">
            <mxPoint x="-270" y="-220" as="sourcePoint" />
            <mxPoint x="-20" y="-110" as="targetPoint" />
          </mxGeometry>
        </mxCell>
        <mxCell id="x4CWHcI_3ok25Xr3Ort--1369" value="" style="endArrow=none;html=1;rounded=0;entryX=0;entryY=1;entryDx=0;entryDy=0;" edge="1" parent="1" target="x4CWHcI_3ok25Xr3Ort--956">
          <mxGeometry width="50" height="50" relative="1" as="geometry">
            <mxPoint x="-100" y="-120" as="sourcePoint" />
            <mxPoint x="-65" y="-120" as="targetPoint" />
          </mxGeometry>
        </mxCell>
        <mxCell id="x4CWHcI_3ok25Xr3Ort--1370" value="" style="ellipse;whiteSpace=wrap;html=1;" vertex="1" parent="1">
          <mxGeometry x="40" y="-200" width="120" height="50" as="geometry" />
        </mxCell>
        <mxCell id="x4CWHcI_3ok25Xr3Ort--1371" value="Phone_No" style="ellipse;whiteSpace=wrap;html=1;" vertex="1" parent="1">
          <mxGeometry x="55" y="-195" width="90" height="40" as="geometry" />
        </mxCell>
        <mxCell id="x4CWHcI_3ok25Xr3Ort--1372" value="" style="endArrow=none;html=1;rounded=0;entryX=0.037;entryY=0.844;entryDx=0;entryDy=0;entryPerimeter=0;" edge="1" parent="1" target="x4CWHcI_3ok25Xr3Ort--1371">
          <mxGeometry width="50" height="50" relative="1" as="geometry">
            <mxPoint x="-100" y="-120" as="sourcePoint" />
            <mxPoint x="90" y="-130" as="targetPoint" />
          </mxGeometry>
        </mxCell>
        <mxCell id="x4CWHcI_3ok25Xr3Ort--1373" value="MiddleName" style="ellipse;whiteSpace=wrap;html=1;" vertex="1" parent="1">
          <mxGeometry x="330" y="-430" width="95" height="40" as="geometry" />
        </mxCell>
        <mxCell id="x4CWHcI_3ok25Xr3Ort--1374" value="FirstName" style="ellipse;whiteSpace=wrap;html=1;" vertex="1" parent="1">
          <mxGeometry x="330" y="-380" width="90" height="40" as="geometry" />
        </mxCell>
        <mxCell id="x4CWHcI_3ok25Xr3Ort--1375" value="LastName" style="ellipse;whiteSpace=wrap;html=1;" vertex="1" parent="1">
          <mxGeometry x="410" y="-460" width="90" height="40" as="geometry" />
        </mxCell>
        <mxCell id="x4CWHcI_3ok25Xr3Ort--1376" value="" style="endArrow=none;html=1;rounded=0;exitX=0;exitY=0.5;exitDx=0;exitDy=0;entryX=1;entryY=1;entryDx=0;entryDy=0;" edge="1" parent="1" source="x4CWHcI_3ok25Xr3Ort--1155" target="x4CWHcI_3ok25Xr3Ort--1374">
          <mxGeometry width="50" height="50" relative="1" as="geometry">
            <mxPoint x="580" y="-350" as="sourcePoint" />
            <mxPoint x="630" y="-400" as="targetPoint" />
          </mxGeometry>
        </mxCell>
        <mxCell id="x4CWHcI_3ok25Xr3Ort--1377" value="" style="endArrow=none;html=1;rounded=0;exitX=1;exitY=1;exitDx=0;exitDy=0;entryX=0;entryY=0;entryDx=0;entryDy=0;" edge="1" parent="1" source="x4CWHcI_3ok25Xr3Ort--1373" target="x4CWHcI_3ok25Xr3Ort--1155">
          <mxGeometry width="50" height="50" relative="1" as="geometry">
            <mxPoint x="580" y="-350" as="sourcePoint" />
            <mxPoint x="630" y="-400" as="targetPoint" />
          </mxGeometry>
        </mxCell>
        <mxCell id="x4CWHcI_3ok25Xr3Ort--1378" value="" style="endArrow=none;html=1;rounded=0;exitX=0.442;exitY=0.967;exitDx=0;exitDy=0;exitPerimeter=0;entryX=0.297;entryY=0.109;entryDx=0;entryDy=0;entryPerimeter=0;" edge="1" parent="1" source="x4CWHcI_3ok25Xr3Ort--1375" target="x4CWHcI_3ok25Xr3Ort--1155">
          <mxGeometry width="50" height="50" relative="1" as="geometry">
            <mxPoint x="580" y="-350" as="sourcePoint" />
            <mxPoint x="630" y="-400" as="targetPoint" />
          </mxGeometry>
        </mxCell>
        <mxCell id="x4CWHcI_3ok25Xr3Ort--1379" value="Gender" style="ellipse;whiteSpace=wrap;html=1;" vertex="1" parent="1">
          <mxGeometry x="810" y="-240" width="100" height="30" as="geometry" />
        </mxCell>
        <mxCell id="x4CWHcI_3ok25Xr3Ort--1380" value="" style="endArrow=none;html=1;rounded=0;exitX=0;exitY=0.5;exitDx=0;exitDy=0;entryX=1;entryY=0.5;entryDx=0;entryDy=0;" edge="1" parent="1" source="x4CWHcI_3ok25Xr3Ort--1379" target="x4CWHcI_3ok25Xr3Ort--1162">
          <mxGeometry width="50" height="50" relative="1" as="geometry">
            <mxPoint x="420" y="-170" as="sourcePoint" />
            <mxPoint x="470" y="-220" as="targetPoint" />
          </mxGeometry>
        </mxCell>
        <mxCell id="x4CWHcI_3ok25Xr3Ort--1381" value="Street" style="ellipse;whiteSpace=wrap;html=1;" vertex="1" parent="1">
          <mxGeometry x="540" y="-490" width="50" height="40" as="geometry" />
        </mxCell>
        <mxCell id="x4CWHcI_3ok25Xr3Ort--1382" value="City" style="ellipse;whiteSpace=wrap;html=1;" vertex="1" parent="1">
          <mxGeometry x="592.5" y="-520" width="57.5" height="40" as="geometry" />
        </mxCell>
        <mxCell id="x4CWHcI_3ok25Xr3Ort--1383" value="Province" style="ellipse;whiteSpace=wrap;html=1;" vertex="1" parent="1">
          <mxGeometry x="660" y="-520" width="70" height="40" as="geometry" />
        </mxCell>
        <mxCell id="x4CWHcI_3ok25Xr3Ort--1384" value="Postal_Code" style="ellipse;whiteSpace=wrap;html=1;" vertex="1" parent="1">
          <mxGeometry x="680" y="-470" width="90" height="40" as="geometry" />
        </mxCell>
        <mxCell id="x4CWHcI_3ok25Xr3Ort--1385" value="" style="endArrow=none;html=1;rounded=0;exitX=0.334;exitY=-0.022;exitDx=0;exitDy=0;exitPerimeter=0;entryX=1;entryY=1;entryDx=0;entryDy=0;" edge="1" parent="1" source="x4CWHcI_3ok25Xr3Ort--1156" target="x4CWHcI_3ok25Xr3Ort--1381">
          <mxGeometry width="50" height="50" relative="1" as="geometry">
            <mxPoint x="530" y="-340" as="sourcePoint" />
            <mxPoint x="580" y="-390" as="targetPoint" />
          </mxGeometry>
        </mxCell>
        <mxCell id="x4CWHcI_3ok25Xr3Ort--1386" value="" style="endArrow=none;html=1;rounded=0;entryX=0.5;entryY=1;entryDx=0;entryDy=0;" edge="1" parent="1" target="x4CWHcI_3ok25Xr3Ort--1382">
          <mxGeometry width="50" height="50" relative="1" as="geometry">
            <mxPoint x="610" y="-410" as="sourcePoint" />
            <mxPoint x="580" y="-390" as="targetPoint" />
          </mxGeometry>
        </mxCell>
        <mxCell id="x4CWHcI_3ok25Xr3Ort--1387" value="" style="endArrow=none;html=1;rounded=0;exitX=0;exitY=1;exitDx=0;exitDy=0;entryX=0.618;entryY=-0.006;entryDx=0;entryDy=0;entryPerimeter=0;" edge="1" parent="1" source="x4CWHcI_3ok25Xr3Ort--1383" target="x4CWHcI_3ok25Xr3Ort--1156">
          <mxGeometry width="50" height="50" relative="1" as="geometry">
            <mxPoint x="530" y="-340" as="sourcePoint" />
            <mxPoint x="580" y="-390" as="targetPoint" />
          </mxGeometry>
        </mxCell>
        <mxCell id="x4CWHcI_3ok25Xr3Ort--1388" value="" style="endArrow=none;html=1;rounded=0;exitX=0;exitY=0.5;exitDx=0;exitDy=0;entryX=0.741;entryY=0.057;entryDx=0;entryDy=0;entryPerimeter=0;" edge="1" parent="1" source="x4CWHcI_3ok25Xr3Ort--1384" target="x4CWHcI_3ok25Xr3Ort--1156">
          <mxGeometry width="50" height="50" relative="1" as="geometry">
            <mxPoint x="530" y="-340" as="sourcePoint" />
            <mxPoint x="580" y="-390" as="targetPoint" />
          </mxGeometry>
        </mxCell>
        <mxCell id="x4CWHcI_3ok25Xr3Ort--1481" value="&lt;b&gt;1&lt;/b&gt;" style="text;html=1;strokeColor=none;fillColor=none;align=center;verticalAlign=middle;whiteSpace=wrap;rounded=0;" vertex="1" parent="1">
          <mxGeometry x="707.5" y="-230" width="35" height="20" as="geometry" />
        </mxCell>
        <mxCell id="x4CWHcI_3ok25Xr3Ort--1482" value="" style="edgeStyle=orthogonalEdgeStyle;rounded=0;orthogonalLoop=1;jettySize=auto;html=1;" edge="1" parent="1" source="x4CWHcI_3ok25Xr3Ort--937" target="x4CWHcI_3ok25Xr3Ort--1304">
          <mxGeometry relative="1" as="geometry" />
        </mxCell>
        <mxCell id="x4CWHcI_3ok25Xr3Ort--1487" value="Offers" style="rhombus;whiteSpace=wrap;html=1;fillColor=#FFB366;" vertex="1" parent="1">
          <mxGeometry x="-97.5" y="-292.5" width="80" height="55" as="geometry" />
        </mxCell>
        <mxCell id="x4CWHcI_3ok25Xr3Ort--1488" value="" style="endArrow=none;html=1;rounded=0;exitX=0;exitY=0.25;exitDx=0;exitDy=0;entryX=1;entryY=0.5;entryDx=0;entryDy=0;" edge="1" parent="1" source="x4CWHcI_3ok25Xr3Ort--1202" target="x4CWHcI_3ok25Xr3Ort--1487">
          <mxGeometry width="50" height="50" relative="1" as="geometry">
            <mxPoint x="-20" y="-90" as="sourcePoint" />
            <mxPoint x="30" y="-140" as="targetPoint" />
          </mxGeometry>
        </mxCell>
        <mxCell id="x4CWHcI_3ok25Xr3Ort--1489" value="" style="endArrow=none;html=1;rounded=0;exitX=0.888;exitY=1.04;exitDx=0;exitDy=0;exitPerimeter=0;entryX=0;entryY=0.5;entryDx=0;entryDy=0;" edge="1" parent="1" source="x4CWHcI_3ok25Xr3Ort--1220" target="x4CWHcI_3ok25Xr3Ort--1487">
          <mxGeometry width="50" height="50" relative="1" as="geometry">
            <mxPoint x="-20" y="-90" as="sourcePoint" />
            <mxPoint x="30" y="-140" as="targetPoint" />
          </mxGeometry>
        </mxCell>
      </root>
    </mxGraphModel>
  </diagram>
</mxfile>
